<?xml version="1.0" standalone="no"?>
<!DOCTYPE svg PUBLIC "-//W3C//DTD SVG 1.1//EN" "http://www.w3.org/Graphics/SVG/1.1/DTD/svg11.dtd" >
<svg xmlns="http://www.w3.org/2000/svg">
<metadata></metadata>
<defs>
<font id="garamonditalic" horiz-adv-x="448" >
<font-face units-per-em="2048" ascent="1638" descent="-410" />
<missing-glyph horiz-adv-x="512" />
<glyph horiz-adv-x="2048" />
<glyph horiz-adv-x="2048" />
<glyph unicode="&#xd;" horiz-adv-x="2048" />
<glyph unicode=" "  horiz-adv-x="512" />
<glyph unicode="&#x09;" horiz-adv-x="512" />
<glyph unicode="&#xa0;" horiz-adv-x="512" />
<glyph unicode="!" d="M102 88q0 40 33.5 72t73.5 32q33 0 62 -30.5t29 -72.5q0 -45 -32 -78.5t-73 -33.5q-37 0 -63 26q-11 11 -27 58q-3 11 -3 27zM248 317q22 134 41 196q51 170 101 410t83 306q14 27 31 37.5t41 10.5q31 0 50 -16t19 -36q0 -63 -60 -192q-9 -21 -62 -170q-14 -41 -53 -139 l-71 -166l-96 -242q-15 0 -24 1z" />
<glyph unicode="&#x22;" horiz-adv-x="853" d="M254 803l31 296q13 127 26 171q19 62 54.5 89.5t77.5 27.5q35 0 55.5 -20t20.5 -50q0 -24 -10 -53q-14 -42 -73 -166l-139 -295h-43zM688 803l30 292q11 114 15 134q14 64 35 98q16 25 46.5 42.5t65.5 17.5q34 0 54 -19t20 -50q0 -26 -15 -66q-38 -105 -62 -156 l-141 -293h-48z" />
<glyph unicode="#" horiz-adv-x="1365" d="M167 367v88h231l85 406h-316v88h335l88 416h87l-88 -416h455l87 416h88l-88 -416h213v-88h-230l-85 -406h315v-88h-333l-85 -414h-89l87 414h-458l-84 -414h-89l86 414h-212zM485 457h457l85 404h-457z" />
<glyph unicode="$" horiz-adv-x="896" d="M24 268q0 29 17 48t41 19q27 0 46.5 -24t23 -81.5t15 -90t35.5 -61.5l182 507q23 64 28 82q-91 135 -91 255q0 131 84 223.5t216 103.5l14 39l26 1q7 0 17 -2l-13 -40q56 -9 123 -36l30 76l42 1q-3 -15 -19 -58q-5 -12 -15 -43q117 -87 117 -208q0 -35 -18 -56t-42 -21 q-27 0 -45.5 22t-18.5 70q0 8 2 38l2 23q0 37 -19 70l-184 -513q11 -18 46 -70.5t39 -59.5q16 -32 27 -74t11 -88q0 -93 -47.5 -175.5t-131.5 -128.5q-59 -33 -173 -44l-69 -189l-43 1q22 71 57 160q6 17 10 31q-66 10 -125 34l-82 -226l-41 1q3 11 28 82l57 164 q-78 49 -118.5 115t-40.5 123zM233 52q69 -39 128 -39l175 490q-10 16 -31 41t-63 80zM405 13q90 3 158 76.5t68 179.5q0 100 -64 192zM431 968q0 -83 39 -142l134 375q-6 1 -11 1q-22 0 -59 -23q-51 -31 -77 -85t-26 -126zM496 774q10 -28 91 -128l184 516q-50 45 -121 45z " />
<glyph unicode="%" horiz-adv-x="1536" d="M147 844q0 102 60.5 225.5t141.5 175.5t161 52q76 0 121.5 -53.5t45.5 -171.5q0 -88 -30 -169q-22 -56 -51.5 -105.5t-67.5 -86.5q-56 -57 -105 -79.5t-96 -22.5q-75 0 -127.5 61t-52.5 174zM248 774q0 -74 20.5 -100.5t55.5 -26.5q51 0 93 45q62 65 122 247 q46 138 46 214q0 55 -25 86q-17 21 -51 21q-59 0 -116.5 -63t-106.5 -222q-38 -120 -38 -201zM326 -65l84 139q38 62 79 120q70 100 290 451l410 650l10 3q44 -3 49 -3l-422 -684q-58 -95 -65 -108q-9 -18 -26 -33l-17 -25q-48 -74 -78 -127q-11 -20 -22 -36l-232 -349 q-12 0 -53 2h-7zM974 222q0 103 61 226t141.5 175.5t160.5 52.5q76 0 122 -53.5t46 -171.5q0 -88 -31 -169q-21 -56 -51 -105.5t-68 -86.5q-56 -57 -105 -79.5t-95 -22.5q-75 0 -128 61t-53 173zM1076 153q0 -74 20.5 -100.5t54.5 -26.5q52 0 93 45q62 65 123 247 q46 138 46 214q0 55 -25 86q-17 21 -52 21q-58 0 -115.5 -63t-107.5 -222q-37 -120 -37 -201z" />
<glyph unicode="&#x26;" horiz-adv-x="1856" d="M188 419q0 61 26 148t79 168q21 32 94 96q55 48 126 78q53 23 123 23q68 0 126 -28q32 -16 61 -69l10 -23q19 13 64 61l139 154q55 68 70 102q4 10 4 33q-42 6 -55 21q-20 23 -20 52q0 43 30.5 75t73.5 32q33 0 57.5 -24.5t24.5 -56.5q0 -53 -38.5 -120t-150.5 -186 q-26 -28 -33 -37l-279 -306q-16 -18 -54 -64q-129 -152 -277 -304q41 -36 78 -58q58 -33 120 -56q15 -6 98 -22q37 -7 106 -7q80 0 201.5 30.5t206.5 84.5q116 74 186 159q41 49 56 65q33 45 54 72q33 56 58 95q6 14 19 40t20 44l-133 97q-71 54 -121 73q-26 11 -54 11 q-57 0 -91 -33t-34 -90q0 -42 17 -68q10 -15 24 -15q9 0 20 2q8 52 21.5 67t37.5 15q22 0 35 -15q16 -19 16 -48q0 -32 -24.5 -54.5t-64.5 -22.5q-50 0 -86.5 40t-36.5 104q0 74 64 135.5t153 61.5q63 0 119 -22q76 -28 180 -101.5t145.5 -92t77.5 -18.5q40 0 74 37t34 95 q0 51 -25 79.5t-55 28.5q-9 0 -12.5 -3.5t-4.5 -14.5q14 -23 14 -39q0 -18 -13 -30t-36 -12q-24 0 -39 15.5t-15 40.5q0 34 26 58.5t70 24.5q49 0 88.5 -42t39.5 -110q0 -82 -65 -147t-153 -65q-71 0 -153 37q-43 -73 -68 -120q-56 -105 -158 -227q-75 -90 -204 -179.5 t-255.5 -126.5t-254.5 -37q-190 0 -347 121.5t-157 317.5zM309 454q0 -18 16 -88q22 -57 39 -85q14 14 41 44q76 85 87 96l169 186q87 97 103 119q-43 1 -60 16.5t-17 50.5q0 15 5 28q10 27 10 32q0 13 -15 24t-60 11q-39 0 -75 -17q-53 -25 -97 -69q-60 -61 -96 -119 q-16 -27 -44 -130q-6 -25 -6 -99z" />
<glyph unicode="'" d="M269 803l31 296q13 127 26 171q19 62 53.5 89.5t77.5 27.5q36 0 57 -20t21 -51q0 -23 -10 -50q-13 -39 -74 -168l-138 -295h-44z" />
<glyph unicode="(" horiz-adv-x="555" d="M195 104q0 352 165.5 677.5t495.5 553.5l22 -25q-173 -152 -280 -307q-144 -206 -229 -469.5t-85 -543.5q0 -237 81 -495l-29 -18q-141 298 -141 627z" />
<glyph unicode=")" horiz-adv-x="555" d="M-160 -497q110 93 184 179.5t93 119.5q5 9 43 64t113 211t115 321q50 206 50 436q0 112 -15.5 210.5t-62.5 276.5l28 16q139 -308 139 -624q0 -230 -68 -446q-82 -258 -242 -460.5t-349 -325.5z" />
<glyph unicode="*" horiz-adv-x="875" d="M196 839q53 21 331 70q5 1 14 5q-16 19 -47 50q-7 7 -72 75q-8 9 -124 123q27 32 55 57q173 -211 228 -264q11 36 22 77q17 59 31 105q27 90 40 156q33 -9 74 -21q-9 -35 -35 -109l-57 -166q-12 -31 -15 -61q22 6 40 12l44 17q52 18 96 29.5t166 35.5q10 -34 18 -74 q-20 -6 -222 -46q-116 -23 -126 -26q15 -17 25.5 -27.5t51.5 -47.5l117 -113q30 -26 60 -63q-23 -23 -56 -51q-9 8 -66.5 72t-74.5 85q-58 73 -99 106l-45 -159q-22 -78 -28 -116.5t-14 -66.5q-41 9 -73 26q8 33 15 54q19 57 85 272q-44 -9 -140.5 -39.5t-202.5 -48.5z" />
<glyph unicode="+" horiz-adv-x="1365" d="M217 590v88h492v494h88v-494h495v-88h-495v-489h-88v489h-492z" />
<glyph unicode="," d="M-36 -296q100 66 118 82q54 45 82.5 93t28.5 85q0 23 -31 57q-45 52 -45 92q0 53 37 101q24 30 57 30q36 0 66 -38q40 -50 40 -120q0 -95 -89 -218.5t-252 -196.5z" />
<glyph unicode="-" horiz-adv-x="533" d="M106 356q5 14 16.5 36t17.5 36q3 6 8 17l21 1h31q10 0 55 3l31 -1l49 2l86 -2q11 0 33 -1q35 2 41 2q8 0 33 -2q7 -1 23 -2q-20 -62 -39 -94q-21 -3 -42 -4l-18 4q-46 -2 -56 -3q-27 5 -47 5q-101 0 -156 -5q-30 7 -87 8z" />
<glyph unicode="." d="M84 81q0 44 32.5 77t75.5 33q42 0 71 -31t29 -78t-30.5 -79t-73.5 -32q-42 0 -73 32.5t-31 77.5z" />
<glyph unicode="/" horiz-adv-x="1024" d="M116 -277l704 1703h88l-705 -1703h-87z" />
<glyph unicode="0" horiz-adv-x="960" d="M107 422q0 200 92 416q111 260 243 359.5t260 99.5q113 0 178 -84q85 -111 85 -344q0 -268 -139 -536q-87 -167 -225 -275q-105 -82 -208 -82q-113 0 -184 93q-102 131 -102 353zM238 287q0 -153 41 -207.5t107 -54.5q93 0 165 83q109 122 214 477q85 287 85 443 q0 117 -50 179q-34 44 -101 44q-100 0 -188 -101q-113 -127 -201 -441q-72 -253 -72 -422z" />
<glyph unicode="1" horiz-adv-x="960" d="M304 965q310 144 465 329h66l-367 -1294h-137l309 1096q-160 -116 -332 -187z" />
<glyph unicode="2" horiz-adv-x="960" d="M34 0l6 27q407 385 545 529q169 178 222 289q34 69 34 159q0 99 -47.5 149.5t-133.5 50.5q-96 0 -164 -51.5t-132 -188.5h-54q56 168 157 249.5t223 81.5q143 0 224 -78t81 -203q0 -71 -22 -127q-28 -73 -98 -152.5t-306 -288.5l-358 -320h570l-33 -126h-714z" />
<glyph unicode="3" horiz-adv-x="960" d="M44 -23l9 42q123 0 241 43.5t207.5 125.5t144.5 184.5t55 191.5q0 73 -39.5 115.5t-100.5 42.5q-40 0 -96 -29q-79 -40 -114 -75q-23 21 -28 37q60 52 152 108q134 80 181 120q64 53 95 109t31 117q0 45 -31 74.5t-82 29.5q-54 0 -109 -36.5t-90 -117.5l-41 18 q30 98 111 158t175 60q105 0 159 -50t54 -126q0 -50 -24 -93.5t-71 -80.5q-20 -16 -186 -129q104 -24 150.5 -79.5t46.5 -137.5q0 -131 -97 -284.5t-276 -246t-367 -92.5q-20 0 -60 1z" />
<glyph unicode="4" horiz-adv-x="960" d="M33 380l9 75l813 839h53l-240 -825h240l-22 -89h-244l-108 -380h-143l109 380h-467zM130 469h396l168 586z" />
<glyph unicode="5" horiz-adv-x="960" d="M31 0q0 11 7 21q65 0 180 26.5t214.5 93t169 185t69.5 218.5q0 80 -48.5 131t-123.5 51q-70 0 -170 -62l207 611l92 2q43 0 125 -4q49 -3 63 -3q105 0 132 6q14 4 25 19.5t30 15.5h19l-38 -127q-9 -30 -18 -40q-50 -8 -102 -8q-54 0 -193 5q-72 3 -123 3l-105 -309 q57 17 96 17q116 0 193 -76.5t77 -195.5q0 -148 -101.5 -296t-307.5 -239q-141 -62 -367 -69q-2 14 -2 24z" />
<glyph unicode="6" horiz-adv-x="960" d="M115 279q0 88 19 165q36 140 115.5 277t203.5 256q93 90 209 165q149 98 245 125q65 19 75 23q19 8 25 8q10 0 29 -13q-1 -27 -8.5 -35.5t-37.5 -16.5q-127 -33 -271.5 -151t-238.5 -251.5t-176.5 -333.5t-82.5 -306q0 -78 36.5 -120.5t85.5 -42.5q75 0 164.5 67 t154 204.5t64.5 240.5q0 52 -30 85.5t-67 33.5q-24 0 -56.5 -9t-61.5 -28q-5 0 -8 4q-7 10 -7 27q0 21 28 39q56 35 141 35q48 0 94 -25.5t71.5 -81t25.5 -118.5q0 -208 -179 -380q-153 -146 -309 -146q-115 0 -184 75.5t-69 227.5z" />
<glyph unicode="7" horiz-adv-x="960" d="M166 -10q0 14 32 50q43 50 126 198l6 12q5 9 51 79l303 462q50 76 215 332l-129 3h-196q-85 0 -114 -6q-56 -12 -91 -12t-55 12q-10 6 -10 15l6 18l35 100q260 -4 541 -4q46 0 66 2q41 6 65 6t38 -9q7 -5 7 -13q0 -11 -133 -205l-682 -1022q-25 -32 -47 -32q-21 0 -29 5 q-5 3 -5 9z" />
<glyph unicode="8" horiz-adv-x="960" d="M94 220q0 64 37 129q49 85 141 164q62 52 204 138q-142 164 -142 314q0 75 54.5 158.5t137.5 127t191 43.5q124 0 190 -60.5t66 -151.5q0 -56 -26 -104q-38 -72 -102 -126t-222 -157q95 -109 133 -191.5t38 -165.5q0 -155 -109 -260.5t-279 -105.5q-142 0 -227 76 t-85 172zM229 185q0 -74 50.5 -122t134.5 -48q105 0 179.5 77t74.5 193q0 71 -34.5 146.5t-125.5 185.5q-105 -73 -148 -121q-63 -69 -97 -151.5t-34 -159.5zM467 997q0 -57 26 -117t98 -150q154 115 208 198t54 172q0 71 -42.5 113t-114.5 42q-59 0 -113 -33t-85 -97 t-31 -128z" />
<glyph unicode="9" horiz-adv-x="960" d="M58 -12q1 27 8.5 35.5t38.5 16.5q126 32 271 150.5t238.5 252t176 333.5t82.5 305q0 79 -36 121t-85 42q-76 0 -165.5 -66.5t-154 -204t-64.5 -240.5q0 -52 30 -86t67 -34q25 0 57.5 9.5t60.5 28.5q6 0 9 -5q6 -9 6 -26q0 -22 -28 -39q-56 -35 -141 -35q-48 0 -93.5 25.5 t-71.5 80.5t-26 119q0 208 179 380q154 146 309 146q115 0 184 -75.5t69 -227.5q0 -88 -19 -166q-35 -139 -114.5 -276.5t-203.5 -255.5q-94 -90 -209 -166q-149 -97 -246 -125q-65 -18 -74 -22q-19 -8 -26 -8q-10 0 -29 13z" />
<glyph unicode=":" d="M87 84q0 46 31 77t75 31t76 -30t32 -68q0 -50 -31.5 -82.5t-74.5 -32.5t-75.5 32t-32.5 73zM278 696q0 53 31 84.5t75 31.5q40 0 72 -33.5t32 -74.5q0 -44 -32 -77t-78 -33q-42 0 -71 29.5t-29 72.5z" />
<glyph unicode=";" d="M0 -282q14 12 36 27q157 115 157 206q0 25 -34.5 55.5t-44.5 47.5q-14 26 -14 52q0 53 40 108q20 28 49 28q38 0 68 -39q42 -55 42 -136q0 -111 -82.5 -220t-205.5 -169zM306 705q0 46 32.5 78.5t77.5 32.5q41 0 70 -30t29 -73q0 -56 -45 -97q-32 -18 -56 -18 q-45 0 -76.5 31t-31.5 76z" />
<glyph unicode="&#x3c;" horiz-adv-x="1365" d="M219 598v79l1071 453v-96l-955 -396l955 -399v-96z" />
<glyph unicode="=" horiz-adv-x="1365" d="M219 360v89h1072v-89h-1072zM219 824v88h1072v-88h-1072z" />
<glyph unicode="&#x3e;" horiz-adv-x="1365" d="M219 143v96l955 396l-955 398v97l1071 -455v-79z" />
<glyph unicode="?" horiz-adv-x="747" d="M226 72v11q0 49 32.5 82t70.5 33q32 0 57 -28.5t25 -70.5q0 -52 -31.5 -88t-69.5 -36q-33 0 -58.5 27.5t-25.5 69.5zM254 433q0 70 30 136t95 129q44 43 162.5 127.5t145.5 110.5q48 46 72 94q14 28 14 66q0 58 -55.5 108.5t-124.5 50.5q-86 0 -145 -52q-32 -28 -64 -118 q-20 -2 -31 -2q-6 0 -19 1q17 101 87.5 159.5t175.5 58.5q104 0 180 -69t76 -196q0 -66 -25.5 -123t-73.5 -104q-33 -33 -192 -141q-113 -77 -159 -117.5t-73 -93.5q-15 -29 -15 -62q0 -40 23 -60q35 -32 78 -32q39 0 71 36q44 48 63 106q17 -1 31 -13q-4 -68 -59 -122 t-115 -54q-59 0 -106 51t-47 125z" />
<glyph unicode="@" horiz-adv-x="1877" d="M97 444q0 264 124 492.5t347.5 357t474.5 128.5q207 0 373.5 -85.5t253.5 -250t87 -349.5q0 -183 -81.5 -362.5t-207.5 -261.5t-263 -82q-76 0 -114.5 36t-38.5 100q0 57 18 148q-138 -166 -228 -225.5t-166 -59.5q-71 0 -126 63.5t-55 168.5q0 146 94.5 326t250.5 293 q115 83 206 83q67 0 111.5 -34.5t60.5 -103.5l33 110l157 22l-117 -399q-66 -227 -79.5 -285.5t-13.5 -94.5q0 -32 21.5 -54t52.5 -22q74 0 176.5 73t175.5 237t73 342q0 171 -82.5 316t-233 222.5t-332.5 77.5q-231 0 -429 -122.5t-313.5 -352.5t-115.5 -478 q0 -230 101.5 -418t285.5 -284.5t396 -96.5q263 0 475.5 141t328.5 412h58q-90 -274 -327 -444t-540 -170q-238 0 -442 112.5t-317 319t-113 454.5zM653 292q0 -62 35.5 -101.5t79.5 -39.5q58 0 121.5 43.5t134 135t101.5 180.5q57 161 57 263q0 66 -36.5 105t-87.5 39 q-77 0 -154 -80q-112 -116 -192 -312q-59 -144 -59 -233z" />
<glyph unicode="A" horiz-adv-x="1557" d="M-113 20l12 5l110 10l68 12q7 3 22 12q12 10 29 24l15 13l234 234q40 40 53 50.5t28 27.5t39.5 40t39.5 39q41 37 54 52q141 129 372 357l217 211q24 26 42 41q62 71 98 109q11 10 52 55q13 2 25 2t34 -2l1 -11q-7 -83 -7 -119q-7 -41 -8 -116l-13 -180q-2 -21 -6 -106 l-36 -469l1 -22l-2 -52v-15q-3 -12 -4 -17l-2 -86l1 -13l-3 -40q8 -14 43 -18q89 -9 132 -25l1 -13q0 -8 -5 -24q-36 6 -44 7l-123 8l-89 -2q-87 -10 -142 -10l-24 -3l-29 1q-44 -4 -52 -4q-15 0 -36 4l2 28q29 8 66 11q61 4 111 18q13 3 18 3h5q11 11 14 20q6 19 20.5 158 t15.5 212q1 36 2 53q-12 1 -58 1q-57 0 -355 -8l-202 -7q-7 -1 -21 -2q-14 -8 -34.5 -29t-51.5 -44q-43 -46 -131 -124q-35 -32 -60 -59l-75 -81q-14 -11 -25 -23q-8 -7 -16 -13q-7 -11 -14 -21q2 -11 2 -25q27 -15 73 -19q21 -2 45 -5q33 -6 49 -7q12 -2 21 -6 q-1 -16 -8 -34l-185 13l-138 -7q-31 -1 -46 -3h-10q-8 0 -35 -3l-48 -1q-12 0 -26 4q-3 15 -3 33zM655 532q16 -10 75 -10l51 1q36 2 74 2q22 0 33 -1h24l125 6l163 11q22 3 42 4q3 18 5 55q6 39 7 47l19 291l15 187q-13 -6 -58 -46q-21 -13 -56 -46l-231 -220l-40 -38 q-23 -25 -45.5 -44t-42.5 -40q-10 -11 -26.5 -24.5t-30.5 -28.5q-14 -11 -29 -28t-34 -35q-13 -13 -40 -43z" />
<glyph unicode="B" horiz-adv-x="1152" d="M25 -15l3 33q17 5 33 6.5t29 4.5q12 1 19 2q71 5 89.5 15t28.5 32q26 67 33 105q3 22 5 30q2 12 4 31q8 43 9 53q3 27 14 75.5t19 110.5q4 35 6 44q22 107 31 165q39 243 57 318q6 57 23 152l2 50q0 17 -12 28q-23 21 -73 28t-79 7l-12 -1l-17 7q-1 12 -1 18l1 11 q61 2 68 2q136 0 183 -3q33 -1 53 -1q22 0 71 2q32 2 48 2q150 0 208 -14q79 -18 123 -57q65 -58 88.5 -107.5t23.5 -120.5q0 -38 -15.5 -76t-49.5 -75q-11 -12 -79 -63q-15 -9 -38 -22l-89 -43q72 -15 122 -46q15 -9 30 -15q14 -12 27 -21.5t24 -18.5q27 -32 38 -56l16 -31 q7 -14 16.5 -64t9.5 -89q0 -32 -2 -44l-21 -65q-44 -81 -70 -118.5t-93 -91.5q-36 -29 -103 -55q-29 -11 -123 -27l-14 -1q-6 0 -59 -4q-30 -3 -49 -3q-40 0 -168 8q-47 2 -74 9l-85 3l-12 -1l-42 -6l-32 2l-59 -7q-39 -8 -66 -8q-8 0 -18 1zM389 109q0 -48 23.5 -65.5 t140.5 -17.5q95 0 166 25q13 7 25 12q46 20 74 46q56 53 80 101q40 84 44 101q17 80 17 138q0 25 -7 55.5t-22 66.5q-26 31 -40 42.5t-62 43.5q-22 7 -41 15q-13 3 -19 4q-30 7 -40 8l-62 2l-47 -2h-40l-88 -7l-3 -7q-5 -53 -35 -185q-9 -37 -24 -150q-40 -176 -40 -226z M506 739q0 -5 14 -13q115 2 152 10q78 16 128.5 45.5t94.5 80.5q26 30 45 84.5t19 95.5q0 42 -12 78q-8 24 -35 65q-37 41 -53 50q-32 17 -113 35l-18 -1l-79 2q-33 0 -53 -17q-13 -13 -18 -51q-11 -108 -31 -193l-31 -170l-4 -52q-2 -23 -5 -41z" />
<glyph unicode="C" horiz-adv-x="1280" d="M144 460q0 124 38 211q80 184 183.5 292.5t244.5 192.5q102 61 237.5 113.5t279.5 52.5l176 2q64 0 135 -20q-4 -35 -21.5 -110.5t-29.5 -113.5l-29 1v26q0 109 -23.5 136.5t-99.5 27.5q-31 -1 -48 -1h-37q-27 1 -35 1q-71 0 -159 -27.5t-211 -103.5q-57 -36 -170 -142 q-44 -42 -151 -195l-34 -60l-43 -108q-16 -53 -22.5 -102t-6.5 -100q0 -68 15 -128t40 -92q53 -66 112.5 -109.5t137 -67.5t179.5 -24q105 0 173 30t119 85q17 18 96 141l33 -10l-54 -170q-14 -44 -22 -64q-65 -24 -134 -35q-132 -21 -257 -21q-183 0 -282 35t-193 122 q-67 62 -102 157.5t-35 177.5z" />
<glyph unicode="D" horiz-adv-x="1493" d="M37 -11l1 35q151 18 168 26q9 4 14 12q11 15 27 93l72 392l104 510q18 107 24 125q9 27 9 41q0 16 -18 26.5t-116 15.5q-42 1 -69 8l-2 13q0 8 7 24q16 -1 67 -3q67 -2 82 -2q21 0 42 1q51 3 58 3q88 0 193 -2l153 1l47 -3l107 1q87 0 166 -27.5t140.5 -74t115.5 -126.5 q36 -53 55.5 -125t19.5 -131q0 -115 -52.5 -247t-151 -246t-235.5 -199q-99 -61 -250.5 -99.5t-278.5 -38.5l-185 2l-94 -6q-23 -1 -138 -1q-57 0 -82 2zM382 117q0 -43 30.5 -63.5t166.5 -20.5q11 0 92 13q112 19 205 61t173.5 111t143 165t90.5 177q52 146 52 244 q0 119 -57.5 220.5t-132.5 153t-208.5 69t-232.5 17.5q-65 0 -99 -9q-2 -18 -16.5 -81.5t-21.5 -110.5q-4 -32 -36 -194l-92 -470q-9 -41 -28 -117q-29 -109 -29 -165z" />
<glyph unicode="E" horiz-adv-x="1408" d="M-6 15l93 4l62 8q26 5 74 16q4 17 9 43q54 266 72 379l62 339q3 12 15 99l33 168q9 42 14 107q1 13 1 26q0 23 -17 34.5t-115 17.5l-64 4q1 18 7 37h122l149 1l83 -2l704 8q24 0 45 -2q14 -1 37 -1q-2 -26 -21 -124q-11 -59 -26 -98q-15 2 -25 13q-11 60 -12 78 q-3 48 -4 54.5t-10 30.5q-32 6 -56 7q-12 1 -31 3q-22 -1 -38 0l-26 -2l-32 1l-69 -5h-78l-56 -1l-20 1l-38 -1h-16l-37 -1h-25l-100 -3q-26 -2 -46 -7q-10 -3 -34 -14q-2 -22 -9 -57l-24 -127l-21 -118l-3 -29q-24 -120 -30 -170q-1 -14 -3 -30q51 7 282 20q282 16 300 21 q39 10 60.5 31t76.5 141l38 5q-9 -57 -42 -209q-5 -19 -10 -54q-4 -24 -18 -80q-5 -22 -7 -34q-5 -37 -11 -54q-18 2 -35 2l-1 5q0 5 3 19q5 20 5 70q0 66 -21 87t-92 21q-70 0 -167 -14q-74 -1 -210 -11l-70 -5l-19 -3q-28 0 -43 -3q-8 -1 -25 -2q-16 -82 -24 -115 q-21 -84 -29 -133l-60 -299q-3 -18 -3 -31q0 -10 7 -25q21 -18 40 -23.5t74 -6.5q13 0 50 -1q11 -1 17 -1l159 7l39 2l26 -1q59 0 133 12q19 3 48 6q128 16 228 90q74 56 119 170h14q8 0 17 -2q-11 -49 -87 -311q-107 -3 -311 -3l-147 -3h-43l-126 -4l-91 2l-97 -1l-220 1 l-49 -2l-86 2l-87 -1z" />
<glyph unicode="F" horiz-adv-x="1173" d="M15 -9q5 23 15 37q36 6 96 7l57 1l40 6q5 2 14 7q9 19 14 43q14 69 80 488q27 174 34 262q28 152 44 313q4 36 4 57q0 37 -34 48q-21 7 -175 15l1 34l73 1q22 0 36 -1q74 -6 225 -7l47 -1l354 9l80 1l82 -1h68l44 -1h16l17 1l82 -4q-2 -13 -3 -19q-3 -16 -4 -32l-35 -137 q-1 -5 -8 -26l-33 3q-2 46 -11 86q-8 54 -25 65q-33 22 -117 22l-367 -6q-112 -1 -162 -11l-4 -18l-23 -199l-37 -279q23 -3 89 -5q21 -1 31 -2h9l156 8h53l47 -3l38 1l50 -1q20 0 56 9q43 89 49 107.5t25 53.5q15 2 22 2h11l-4 -57l-48 -349l-35 -7l-3 18v21l-10 113 q-9 30 -21 37q-16 9 -91 9l-104 -3l-36 1l-85 -2h-121l-63 -3q-16 0 -25 -2q-15 -81 -47 -322q-9 -67 -16 -98.5t-11 -60.5q-5 -48 -16 -115q-5 -31 -5 -57q12 -6 18 -8q104 -16 158 -18q11 0 33 -1q2 -11 2 -16q0 -7 -3 -20q-20 1 -31 1q-8 0 -35 -2q-19 -1 -33 -1 q-21 0 -86 10q-28 0 -56.5 1.5t-39.5 1.5q-129 0 -195 -6q-45 -4 -63 -4q-24 0 -49 5z" />
<glyph unicode="G" horiz-adv-x="1451" d="M145 475l6 93q12 63 32 127q4 13 38 92l18 29l12 23q76 109 143.5 183.5t122.5 112.5q92 64 200 101q146 51 242 62l108 13q17 2 53 2q90 0 227 -13q68 -6 98 -15q2 -24 2 -36q0 -20 -3 -38l-15 -100q-5 -24 -15 -53q-18 2 -37 8l-15 109q-8 49 -15.5 62t-15.5 17 q-18 11 -51 15q-71 7 -82 7q-110 0 -193 -21q-119 -31 -197 -66t-158.5 -103.5t-123.5 -123.5l-17 -19q-29 -40 -56 -74q-41 -63 -97 -214q-35 -92 -35 -187l4 -62q1 -6 1 -19q13 -68 41.5 -125.5t69.5 -102t108 -83.5q52 -30 105 -41q77 -16 126 -16q125 0 215 23 q51 13 82 46q18 20 28 55q42 155 42 228q0 31 -24 40q-60 23 -103 23l-64 -1q-13 0 -31 9q15 28 19 30l36 1l79 -2l82 2q24 0 66 -1.5t59 -1.5q48 0 72.5 1.5t37.5 1.5l80 -3v-31q-22 -6 -54 -11q-58 -8 -73 -23q-22 -23 -32 -75q-16 -87 -32 -152l-27 -132l-215 -50 q-77 -17 -106 -20l-94 -10q-96 0 -197 10q-22 2 -56 14l-123 45q-43 22 -116 71q-71 62 -88 83q-35 45 -61 103q-15 33 -22 79q-11 70 -11 104z" />
<glyph unicode="H" horiz-adv-x="1579" d="M33 6q0 10 4 17q27 5 65.5 8t56.5 6q13 3 29 4q21 3 39 9q7 24 27 138l40 226q9 76 79 457q17 91 29 168.5t23 123.5q1 16 2 24q5 32 5 37q0 6 -5 21q-22 8 -51 9l-45 3h-22q-15 0 -64 7q0 22 6 45q8 -1 18 -1q38 -2 68 -5q55 0 88 -2l80 2l52 -3q115 0 192 7q11 1 21 1 q5 0 14 -1q4 -12 4 -18q0 -9 -8 -25l-104 -7l-83 -11q-7 -2 -14 -7q-7 -22 -11 -43l-42 -241q-10 -62 -30 -162q-8 -45 -13 -100q126 -7 220 -7q59 0 208 9l124 -1l28 1q30 0 89.5 -3.5t90.5 -3.5q15 0 40 3l33 169l43 228q15 79 17 99t2 43v19q-12 13 -61 14q-7 0 -20 1 q-50 6 -104 7q2 22 8 37l217 -4l288 4q0 -17 -8 -36q-15 -4 -43 -6l-79 -8q-30 -1 -49 -9l-7 -14q-4 -17 -8 -31q-8 -24 -12 -55l-12 -89l-75 -408q-23 -116 -66 -357l-41 -215q-2 -12 -2 -22q11 -12 23 -14q7 -1 18 -4t32 -4q21 -2 127 -17l-2 -9q-2 -13 -8 -21l-22 3 l-248 5q-145 0 -187 -5q-21 -3 -93 -7q0 21 4 35l10 4l126 13q40 3 69 10l4 11q10 32 23 101q1 8 61 296q23 106 30 178q-46 7 -123 7l-94 -1l-12 1l-17 1l-28 -1h-55l-126 -4h-64l-81 -3h-40l-48 -3l-65 2l-46 -2q-6 -31 -8 -61l-25 -145q-8 -48 -23 -114q-6 -51 -22 -111 q-7 -24 -8 -46q-3 -28 -9 -54q-4 -17 -4 -27q0 -8 4 -17q11 -7 17.5 -9t53.5 -6l122 -19q0 -16 -6 -35l-85 -1l-222 13q-58 0 -159 -10q-18 -2 -65 -2v20z" />
<glyph unicode="I" horiz-adv-x="661" d="M16 16q34 8 68 14q84 13 113 32q10 6 21 26t57 209q60 252 106 527l55 287l6 58q4 23 4 39q0 27 -16 37q-28 18 -108 18l-8 -1h-27q-16 0 -41 6q3 20 9 43l120 -6l187 -6l168 8l75 4v-35q-18 -5 -72 -11q-82 -10 -100 -22q-13 -10 -24 -34.5t-81 -355.5l-114 -547 q-45 -210 -45 -238q0 -6 4 -14q24 -15 102 -22q49 -5 81 -11l3 -31q-4 -4 -15 -4h-24q-47 -3 -156 -3l-177 4h-47q-6 0 -45 -2.5t-79 -2.5v34z" />
<glyph unicode="J" horiz-adv-x="661" d="M-240 -406q0 27 19.5 45.5t46.5 18.5q33 0 59 -19q18 -12 43.5 -54t51.5 -42q7 0 19 3q54 14 92 62q52 66 85 204q51 217 59 273q5 38 59 264q18 74 23 99q1 8 3 17l49 265l57 293l26 133q10 46 12 68q-71 30 -195 49v10q0 7 1 21q22 4 30 4q11 0 40 -3q20 -2 49 -3 l112 -4q184 0 262 10q16 1 23 1h12l1 -32q-10 -8 -15 -9l-72 -9q-81 -10 -96 -23q-11 -26 -18 -64q-6 -28 -14 -62l-8 -32l-4 -24q-44 -254 -82 -414l-89 -440q-38 -171 -82.5 -311t-125.5 -248q-58 -76 -140 -118q-64 -31 -135 -31q-45 0 -85 14q-22 8 -57 37 q-16 19 -16 51z" />
<glyph unicode="K" horiz-adv-x="1216" d="M29 17q10 5 42 11q85 13 116 41.5t43 93.5q3 15 17 56l48 222l25 128q2 11 4 30q12 49 41 195l5 17l76 355l6 44q0 10 -8 27q-30 18 -74 21q-21 1 -36 4q-39 5 -46 6q-25 0 -37 11q4 15 4 25l77 2l185 -11l116 4l33 -1q13 0 37.5 3.5t31.5 3.5q14 0 42 -7q-3 -24 -19 -41 l-33 -3q-20 -3 -49.5 -4t-44.5 -10q-5 -3 -10 -10q-14 -22 -38 -115l-39 -159q-47 -173 -66 -279q-6 -36 -11 -55l165 138q19 17 38 36q44 33 83 71q96 94 138 129l156 146q46 42 65 72q-13 7 -20 10q-15 8 -25 13q-31 17 -79 21q-18 2 -37 6v9q0 8 2 25q23 7 34 7 q34 0 83.5 -9.5t132.5 -9.5q80 0 131 5q21 2 28 2q8 0 24 -2l1 -32q-92 -27 -125 -41q-8 -4 -108 -63q-165 -140 -343 -297l-157 -138l-11 -12q8 -16 15 -26l114 -149l118 -162q8 -13 46 -69q20 -36 49 -69q10 -12 30 -41q31 -46 74 -97q16 -19 43 -31q37 -18 125 -35 q-2 -24 -7 -43h-53q-102 15 -222 16q-91 129 -136 202l-16 19l-45 66l-112 162q-48 77 -109 146q-12 14 -22 28q-19 -15 -37.5 -26t-43.5 -29l-82 -378q-13 -63 -13 -103q0 -5 2 -19q28 -23 60 -33q32 -7 63 -10t54 -8q11 -7 11 -16q0 -5 -1 -11q-22 -8 -53 -8q-72 0 -119 6 l-58 -2l-39 2l-108 -2q-10 -1 -29 -5l-113 -1v35z" />
<glyph unicode="L" horiz-adv-x="1301" d="M4 -1q0 13 4 30l137 11q16 3 47 12q26 14 38 31q17 23 23 55q24 116 85 529l69 473l1 10q0 36 -3 45.5t-14 23.5q-26 16 -73 26t-99 11q1 18 7 39q80 -1 110 -3q77 -4 206 -4q22 0 42 1q28 3 57 3l126 1v-19q0 -9 -2 -20q-15 -3 -37 -4q-64 -3 -106 -20 q-22 -9 -37.5 -36.5t-33.5 -113.5q-6 -54 -9 -78l-31 -193l-66 -389q-22 -113 -34 -213t-12 -108q0 -33 14 -45q21 -18 67 -18l117 1l208 -2q109 0 198 17.5t166 59.5q50 28 95 76q17 19 72 109q4 7 13 20q19 0 33 -3q-4 -36 -10 -54l-68 -219q-8 -26 -19 -48q-66 -3 -93 -3 l-60 2l-249 -2l-150 2l-190 -2l-209 6l-84 1l-144 -5q-13 -1 -102 -1v8z" />
<glyph unicode="M" horiz-adv-x="1685" d="M-52 -2v8q0 21 10 32q69 7 102 22q22 6 40 22.5t50 78.5t83 217l90 258q19 63 26 83l123 335q25 77 45 127q11 28 11 42q0 29 -24 40.5t-101 19.5q-90 -3 -96 -3h-12l-10 40q36 3 43 3q29 -2 39 -2l86 3q82 0 138 -5q22 -2 62 -3q5 -5 7 -11q10 -25 20 -85l30 -164 q10 -36 27 -136q33 -189 45 -287q31 -143 40 -214q1 -9 23 -133q9 -54 14 -70q47 69 81.5 127.5t118.5 216.5l213 370l44 77q81 153 182 314q67 -4 129 -4q8 0 20 0.5t28 0.5l116 3q7 -1 19 -2l-3 -32q-25 -9 -74 -18q-69 -14 -91.5 -28t-29.5 -37q-31 -201 -82 -489 l-91 -520l-1 -8q-2 -15 -5 -59q-1 -17 -3 -27l-2 -10q0 -5 3 -13q20 -15 35 -21q23 -8 105 -19q37 -5 55 -9v-9q0 -8 -5 -20q-43 -2 -62 -2q-48 0 -113 6q-49 5 -122 5q-65 0 -153 -4q-31 -1 -40 -1q-14 0 -35 2q-4 11 -4 16q0 8 7 23q26 2 38 2q91 4 125 22q13 7 23 25 q13 25 30 133l41 236l47 272q12 76 21 150q14 73 22.5 137.5t14.5 96.5q7 45 9 70q-169 -297 -212 -362q-10 -16 -132 -230l-43 -85q-20 -27 -34 -52q-171 -303 -244 -445q-17 -32 -30 -54h-38q0 50 -4 93q-9 108 -19 176q-2 12 -27 143l-59 323q-9 48 -11 74.5t-11 65.5 q-13 56 -34 175l-25 130q-8 -17 -13 -36l-106 -303l-65 -194q-29 -73 -70.5 -218t-76.5 -239q-9 -26 -9 -43q0 -18 13 -30.5t69 -31.5q24 -4 39 -7q57 -4 77 -9q7 -2 12 -10q0 -18 -5 -33l-70 3l-45 2q-6 0 -17 -1q-89 10 -183 10q-6 0 -149 -3z" />
<glyph unicode="N" horiz-adv-x="1600" d="M-20 -2v36q20 4 63 7t67 7q63 5 93 31q19 17 25 49l59 276q15 74 24 105l3 25l47 258q2 24 16 72t21 148l15 74l13 127q0 18 -13 25q-29 16 -201 40l9 32l369 1q11 -13 18 -27q12 -20 54 -81l57 -81q34 -56 70 -110t67 -109q22 -37 309 -493q54 -85 75 -123 q39 -72 82 -141q13 62 21 130q42 193 49 260q4 37 10 70q5 22 13 81l16 112q1 19 24 173.5t23 210.5q0 16 -9 45q-29 19 -143 37q-40 7 -63 12q-3 15 -3 23v9l13 1q19 0 245 -12q39 -2 53 -2q66 0 131 6q46 4 71 4q-4 -23 -12 -44q-142 -13 -180 -25q-21 -7 -28.5 -17 t-23.5 -91q-22 -116 -29 -170t-15 -91q-10 -51 -13 -68l-39 -273l-70 -408q-21 -134 -22 -157h-24q-10 0 -31 1q-20 38 -47 79l-286 448q-19 29 -33 54l-72 108l-228 359q-47 72 -80 113q-8 15 -18 28.5t-24 36.5q-5 7 -14 22q-8 -30 -21 -109l-23 -128q-18 -111 -62 -337 l-23 -120l-24 -178q-9 -75 -23 -138t-14 -103q0 -12 13 -26q24 -10 65 -21q19 -6 58 -12q7 -1 107 -25l-9 -35q-24 5 -84 11q-140 14 -196 14q-26 0 -66 -2q-115 -5 -147 -5q-17 0 -55 1z" />
<glyph unicode="O" horiz-adv-x="1387" d="M167 579q0 103 41 211.5t108 223.5q22 40 150 168q42 42 178 105q56 27 143 32q23 2 57.5 6t59.5 4q207 0 362 -196q115 -145 115 -398q0 -87 -36.5 -204t-107.5 -218t-164.5 -183.5t-197.5 -120t-207 -37.5q-130 0 -236.5 67t-172.5 176q-92 153 -92 364zM316 510 q0 -153 47 -271q24 -60 99 -139q33 -31 58 -43.5t106 -38.5q16 -4 42 -4h18l41 2q110 26 147 49q62 37 118 107q76 96 125.5 212t72.5 199q32 115 32 212q0 89 -21.5 173.5t-35.5 111.5q-36 68 -78.5 111t-98.5 68t-120 25q-104 0 -199.5 -52t-163 -140.5t-128.5 -262.5 t-61 -319z" />
<glyph unicode="P" horiz-adv-x="1088" d="M26 -12v40q9 4 19 4q97 8 139 23q28 10 41 29q6 9 25 89q6 44 56 265q7 47 20 119q4 19 20 126q2 17 23 124l23 129l4 39q44 206 44 261q0 6 -6 17q-15 10 -51 13q-8 1 -26 3l-50 1l-23 -2l-16 -1q-10 0 -31 5q1 12 12 44q17 0 118.5 -5.5t172.5 -5.5q72 0 166 8 q35 4 52 4q98 0 178 -34q6 -2 17 -7l70 -40q57 -45 75 -68q33 -40 55.5 -97t22.5 -113q0 -38 -7 -64l-24 -88q-15 -36 -43 -77q-13 -20 -46 -48q-13 -11 -24 -22q-56 -44 -133 -78q-40 -18 -90 -24q-97 -12 -110 -12q-14 0 -53 6q-69 10 -94 18v6q0 6 5 25q28 -3 98 -6 q14 2 47 4q70 13 105 33q72 40 120 90t76 123q20 54 20 133q0 61 -31 121.5t-69.5 96.5t-95.5 56.5t-160 20.5q-36 0 -73 -9q-13 -36 -21 -91q-4 -26 -9 -52l-91 -505l-54 -255q-9 -65 -14.5 -91.5t-10.5 -60.5t-11 -54q-11 -38 -11 -60q0 -16 16.5 -28.5t72.5 -17.5t78 -16 q-1 -16 -1 -24q0 -14 -3 -21q-26 0 -119 9l-196 3q-92 0 -194 -11z" />
<glyph unicode="Q" horiz-adv-x="1408" d="M-200 -325q0 62 72 114q94 69 266 69q72 0 184 -33q4 8 26.5 27t56 58t48.5 63q-16 6 -41 15q-128 45 -202.5 159t-74.5 274q0 111 28 196q44 135 142 277t200 223q136 106 291 164q103 37 218 37q110 0 175.5 -32.5t117.5 -101.5t88 -178q19 -58 19 -161 q0 -148 -45 -267q-57 -154 -197 -330q-109 -137 -265.5 -210t-338.5 -73h-43q-5 0 -25 -2q-14 -16 -25 -30q-50 -61 -109 -120l89 -30q88 -30 139 -53q81 -35 129 -50q94 -27 178 -42t152 -15q195 0 318 120l21 -21q-47 -58 -99 -95q-79 -56 -164.5 -82.5t-141.5 -26.5 l-31 1l-114 3q-109 15 -144 26q-98 29 -196.5 74.5t-220.5 109.5q-54 -55 -154 -115q-70 -41 -154 -45l-59 -3q-47 4 -80.5 37t-33.5 69zM-158 -326q0 -27 27 -48.5t87 -21.5t121 31q89 44 127 81q11 10 16 13l13 15q-4 3 -18 6q-29 7 -52 15q-64 21 -128 21q-49 0 -101 -18 t-72 -44t-20 -50zM246 298q0 -80 19 -122q35 -74 101.5 -116.5t155.5 -42.5q85 0 182 40t221 158t211 262q117 195 145 287q38 127 38 201q0 87 -38.5 162t-99.5 113.5t-136 38.5q-12 0 -64 -10q-38 -7 -66 -19q-42 -14 -103 -52q-33 -21 -124 -97q-54 -46 -74 -72 q-51 -55 -137 -170l-114 -193q-41 -70 -69 -146t-40 -132q-8 -42 -8 -90z" />
<glyph unicode="R" horiz-adv-x="1280" d="M62 -5q1 10 1 15q1 11 4 15q25 2 46 8q16 1 62 12q56 6 87 28q11 7 13.5 13t26.5 242l36 383q31 257 33 333q1 25 9 63l6 89q0 15 -12 27q-17 16 -40 23q-111 8 -133 12q-7 13 -7 19t6 17q12 4 23 4q66 0 137 -2t86 -2l301 9l41 1h24q72 0 124 -16q60 -18 107 -62 t65 -98.5t18 -89.5q0 -99 -73 -187.5t-240 -175.5q26 -44 248 -388q21 -33 65.5 -106t83.5 -101.5t99 -35.5q28 -4 71 -13l-4 -42q-39 0 -101 4q-111 8 -169 8l-145 -2l-63 -4l-10 1q-11 0 -18 -4q-13 10 -14 31q10 10 24 13q29 7 106 7q34 0 59 19q-12 38 -77 126 q-11 16 -105 158l-191 287q-71 -15 -149 -15q-14 0 -52 2l-25 -268l-19 -183l-3 -41q-3 -24 -3 -29q0 -7 4 -23q41 -19 92.5 -27.5t97.5 -20.5q2 -9 2 -15t-1 -15q-30 -1 -43 -1q-14 0 -51 2q-52 4 -104 4q-113 0 -183.5 -4.5t-124.5 -4.5q-16 0 -32 -1q-5 0 -16 2zM479 697 l1 -18q26 -9 82 -9q26 0 98 13q47 9 103 38q42 21 81 58q55 62 61 72q29 47 46.5 102t17.5 97q0 94 -65.5 152.5t-214.5 58.5q-87 0 -146 -20l-6 -18q-19 -52 -20 -130q0 -8 -1 -16l-19 -163q-14 -176 -18 -217z" />
<glyph unicode="S" horiz-adv-x="1024" d="M59 14v6q0 19 11 73q4 20 16 122q2 19 7 51q18 0 34 -4q8 -139 79 -218q51 -33 113 -38l37 -1h15q55 1 111 19q64 22 93 50q37 38 72 113q15 32 15 87q0 33 -4 55q-8 38 -29.5 95.5t-55.5 127.5l-96 201q-25 52 -52 139q-12 40 -12 98q0 79 33 141t95 108.5t109 61.5 q65 20 140 20q139 0 282 -59q-3 -58 -15 -103q-17 -64 -35 -109q-19 0 -33 3q-1 54 -24 130q-13 43 -57 74t-103 31q-112 0 -179 -67t-67 -180q0 -62 18 -120.5t105 -232.5q43 -85 65 -143q5 -11 28.5 -84t25.5 -89q5 -28 5 -64q0 -142 -101 -226q-137 -113 -361 -113 q-142 0 -285 45z" />
<glyph unicode="T" horiz-adv-x="1195" d="M142 1060q8 27 18 51q44 108 76 225h28l13 -1q5 -17 24 -28q24 -14 73 -14l86 1l39 -3l82 2l108 -1l73 4l99 -3l84 4q14 0 33 -1q59 -2 71 -2q14 0 44 1.5t124 3t142 37.5l16 -3h22q-18 -99 -37 -165q-10 -38 -14 -62q-3 -18 -11 -55q-22 1 -39 5q-1 114 -44 157t-165 43 q-107 0 -195 -10q-27 -4 -43 -10q-4 -11 -7 -20q-13 -50 -41 -284q-8 -71 -75 -442l-74 -362q-4 -27 -6 -33q-6 -22 -6 -32q0 -14 11 -21q21 -12 82 -13q14 0 77 -5q39 -3 45 -6q4 -2 7 -8l-5 -32q-68 1 -109 6t-66 5q-166 0 -406 -9q6 22 16 40q50 7 109 10q14 4 37 9 q34 7 43 14.5t16 24.5q30 74 64 326l92 515q44 249 48 326q-30 5 -65 5q-189 0 -248 -14t-98.5 -45.5t-112.5 -134.5q-18 3 -35 4z" />
<glyph unicode="U" horiz-adv-x="1472" d="M237 1255l15 53q37 -7 53 -7l179 -5q65 0 188 11q18 2 78 4q3 -19 3 -28q0 -5 -1 -16q-15 -3 -93 -14.5t-88 -18.5q-8 -5 -11 -12q-23 -49 -49 -209l-69 -414q-29 -192 -29 -268q0 -37 12 -100q8 -44 30 -77q30 -45 73 -76q114 -58 209 -58q65 0 102 7q136 26 203.5 66 t109.5 102t78 195q26 95 74 422q33 226 33 333q0 44 -33 77t-103 42q-37 4 -61 8l-1 8q0 12 5 34q135 -11 278 -11q50 0 121 6l19 1h43l1 -39q-14 -3 -60 -12q-62 -12 -86.5 -27t-41.5 -46q-27 -48 -37 -135l-43 -338q-20 -150 -60 -317q-28 -119 -75 -206q-30 -55 -98 -114 q-51 -44 -143.5 -75.5t-219.5 -31.5q-18 0 -69 5q-95 2 -180.5 35t-129.5 74t-73 109t-29 160q0 108 22.5 211.5t60.5 332.5l47 266q3 21 3 35q0 17 -13.5 27t-82.5 20q-45 7 -61 11z" />
<glyph unicode="V" horiz-adv-x="1643" d="M242 1300q0 6 5 8l218 -4l112 -2l193 2q18 0 45 -1l-18 -41q-57 -7 -83 -8q-71 -3 -94 -14.5t-33 -28.5q-13 -23 -15 -94l-22 -591q-12 -240 -12 -346v-17l-2 -55v-11q112 98 211 202q35 38 71 69q279 296 337 347q15 13 73 71q86 87 159 174l21 24l60 60l142 154 q20 21 22.5 26t2.5 14q-11 11 -30 16q-30 9 -98 12q-25 1 -55 6v33q59 -4 108 -5l74 -4h16q24 2 74 2q57 9 90 9q30 0 82 -3v-35q-16 -3 -42 -6t-46 -10q-62 -24 -84 -36l-59 -47l-234 -233q-25 -21 -48 -45q-170 -179 -204 -210t-57 -55l-473 -483q-27 -31 -37 -39 l-159 -144h-20q-9 0 -28 1l14 466l4 70l-1 28l13 268l3 202q3 62 3 109q0 21 -0.5 40t-0.5 24v37q0 20 -10.5 31t-36.5 17q-128 9 -150 12z" />
<glyph unicode="W" horiz-adv-x="1813" d="M218 1261l1 38l22 2q46 4 70 4l24 -2h34l153 -3l55 -1q11 -1 42 -4l1 -7q0 -8 -3 -22q-50 -14 -80 -15q-29 -9 -37 -21q-14 -21 -16 -63l-5 -115l-5 -123l1 -19q0 -40 -3 -143v-102l-7 -115v-69l-7 -202l-8 -110q-1 -11 -1 -31q35 32 49 50q31 42 63 73q15 14 43 50 q48 60 164 185q20 22 35 41l1 39l32 382q10 94 10 214q0 37 -15 52q-24 24 -83 35q-20 4 -34 8l-1 32q13 0 77 3h54l22 1l63 -2l67 2l134 -3l8 2q6 0 16 -5v-26q-16 -5 -46 -10q-80 -14 -103.5 -32t-23.5 -90q-1 -46 -15 -268q-8 -121 -8 -140v-26q35 43 65 75t195 232 q21 24 48 64q104 120 104 138q0 7 -6 12q-14 13 -42 22l-24 8q-13 4 -27 6.5t-28 8.5l-1 11q0 8 3 22l10 -1l61 3l306 -2q0 -23 -6 -38q-14 -3 -20 -4q-47 -7 -88 -28t-79 -56q-81 -75 -137 -140l-259 -313q-33 -38 -52 -58q-20 -26 -37 -42l-6 -141q0 -16 -2 -45l-16 -231 q-4 -47 -4 -72q14 14 18 19l160 183q15 18 64 70q11 11 70 79q25 28 55 58q18 18 32 34l337 387l129 147q53 63 66 86q8 13 12 37q-14 8 -45 13q-22 6 -41 9q-11 1 -46 9v31l79 6h40l38 1q125 0 172 -1l-3 -39q-79 -29 -110 -54q-47 -36 -236 -252l-348 -391l-37 -44 l-40 -42l-225 -253l-240 -263h-11q-13 0 -34 2v23l-1 16q0 5 2 17q2 19 10 183l11 173l-1 43l2 36q-11 -9 -48 -51q-4 -4 -31 -31.5t-59 -69.5q-54 -59 -271 -310q-8 -9 -31 -31l-51 -3l-1 13l9 374l10 330l12 355q5 59 5 70v44l1 38q-3 25 -14 48q-5 11 -16.5 16.5 t-41.5 5.5q-31 0 -50 4z" />
<glyph unicode="X" horiz-adv-x="1515" d="M-21 -12v37q11 5 30.5 11.5t41.5 16.5q30 13 64 31q95 51 143 88l178 146q45 35 178 149l110 97q4 4 24 18l55 48q-29 43 -44 68q-6 11 -13 21q-53 95 -93 161l-103 170q-36 73 -90 147q-26 37 -64.5 56t-136.5 28q-25 2 -43 6l-2 36h51l166 -5q9 0 31 3q100 -5 149 -5 l112 2q23 0 43.5 -1.5t33.5 -1.5h19q1 -15 1 -22v-14q-144 -3 -186 -25q-20 -10 -20 -25l1 -9q2 -8 24 -51q6 -10 169 -300q63 -111 92 -153q12 9 203 178q163 145 222 210.5t67.5 84t8.5 28.5q0 19 -15 29q-34 22 -141 39v7q0 9 5 25l12 1h48l101 1l28 -3q7 0 178 -7h43 q7 0 32 -1l-1 -39q-93 -10 -211 -107q-20 -15 -47 -34q-13 -10 -93 -75l-115 -110q-33 -26 -48 -41q-51 -48 -254 -225q71 -130 175 -303q84 -141 119 -192l51 -72q13 -13 64 -47q22 -10 44 -19q42 -17 67 -32l1 -11q0 -7 -2 -19q-36 0 -111.5 11t-161.5 11q-46 0 -255 -8 q-1 15 -1 22q0 8 1 23q29 4 54 5q64 2 100 27q22 14 22 35q0 27 -27 76q-95 175 -202 339q-32 50 -42 68q-88 -64 -248 -210q-194 -176 -236 -240q-17 -26 -17 -46q0 -13 17 -26q34 -25 99 -35q21 -4 39 -8q-3 -15 -8 -32q-13 -1 -19 -1l-19 -1l-17 1l-113 7q-63 5 -80 5 l-169 -10q-45 -7 -69 -7z" />
<glyph unicode="Y" horiz-adv-x="1323" d="M146 1290l1 27l16 1q11 0 42 -3l133 -12q118 0 283 9q18 1 24 1h11q5 -16 5 -24q0 -5 -2 -15l-138 -23q-21 -7 -21 -22q0 -6 3 -14l49 -98q71 -142 120 -258q32 -76 101 -183q195 196 234.5 230.5t82.5 79.5q61 62 116 114q86 81 86 118q0 22 -20 34q-44 25 -151 26 q-11 1 -33 1l-1 11q0 8 5 23l24 1h132l103 -5q59 0 125 5q43 3 81 3q-1 -14 -1 -22q0 -11 -1 -18q-11 -3 -22 -5q-16 -3 -86 -23q-35 -16 -65 -39q-23 -17 -64 -60q-18 -16 -28 -26q-61 -61 -93 -89t-126 -120l-266 -257q-5 -20 -12 -51q-13 -52 -25 -109q-17 -77 -26 -116 l-21 -88q-9 -41 -15 -61q-19 -70 -19 -130q0 -34 15 -46q29 -20 103 -21q30 0 49.5 -2.5t35.5 -3.5q2 -8 2 -13q0 -6 -4 -18q-49 -4 -139 -4l-68 4q-30 2 -58 2q-18 0 -64 -2q-149 -6 -238 -6q-6 0 -32 1l7 30l189 30q16 5 22 12q14 16 28 71l44 156q57 251 69 322 q-33 57 -154 303q-60 122 -84 162q-61 128 -77 151q-11 17 -20 21q-4 2 -105 18q-43 3 -60 6q-2 7 -2 14z" />
<glyph unicode="Z" horiz-adv-x="1237" d="M85 2v12l18 22q208 237 442 530l442 558q23 29 68 90q18 23 36 42q-107 6 -227 6q-59 0 -194 -9q-93 -7 -132 -20q-53 -18 -83.5 -45t-75.5 -107q-6 -22 -22 -51q-22 1 -49 4q11 76 22 119l39 146q40 1 605 2l272 1q16 0 46 -1q1 -11 1 -19q0 -9 -3 -19q-26 -38 -37 -52 l-217 -264q-25 -29 -52 -64t-134 -167l-173 -217l-158 -191l-154 -186q-45 -50 -66 -77l25 -1q133 0 225 4q22 1 34 1l100 3q52 0 162 13q41 5 98 23q11 5 36 28q40 36 55 59q46 76 73 133l40 -4v-7l-3 -12q-44 -250 -53 -281h-318q-77 0 -215 -2h-197l-195 -2q-42 0 -81 2z " />
<glyph unicode="[" horiz-adv-x="619" d="M97 -467l498 1747l386 -1l-11 -39h-340l-477 -1669l337 -2l-11 -38z" />
<glyph unicode="\" horiz-adv-x="1024" d="M113 1426h87l711 -1703h-88z" />
<glyph unicode="]" horiz-adv-x="619" d="M-214 -471l12 39l338 1l468 1670l-337 -1l11 42l383 1l-489 -1751z" />
<glyph unicode="^" horiz-adv-x="1024" d="M139 836l447 538l448 -538l-65 -53l-383 461l-384 -461z" />
<glyph unicode="_" horiz-adv-x="1024" d="M-12 -154h1048v-102h-1048v102z" />
<glyph unicode="`" horiz-adv-x="683" d="M399 1208q0 20 14 33t36 13q27 0 55.5 -19t94.5 -105q98 -129 134 -185h-18q-258 174 -287 204t-29 59z" />
<glyph unicode="a" horiz-adv-x="832" d="M78 90q0 64 28 142q48 133 97 197q84 111 166.5 176t151.5 95q91 40 158 40q22 0 42 -4t38 -12q10 17 13 27q12 30 24 39q28 3 41 3q17 0 33 -7l3 -12q0 -6 -5 -18q-3 -6 -13 -38l-8 -20l-66 -179q-42 -121 -73.5 -193t-54.5 -146.5t-42 -106.5l-4 -10q0 -6 11 -16 q45 25 76 54q80 75 95 93q11 13 21 24q12 -10 22 -21q-28 -39 -94 -106t-119 -95q-41 -21 -77 -21q-23 0 -34.5 10t-11.5 26q0 14 10 52q25 66 35 87t27 65q10 27 41 94q-19 -19 -47 -56q-81 -102 -186 -193q-24 -21 -116 -67q-34 -13 -80 -17q-39 1 -52 8q-24 13 -39 41 q-11 21 -11 65zM193 138q0 -37 15 -55t38 -18q8 0 37 3q24 6 42 17q11 6 78 55q122 123 138 141q35 39 79 107q12 17 51 94l26 69q14 61 14 70q0 28 -23 53q-15 15 -49 15q-39 0 -67 -13q-63 -30 -115 -76q-70 -63 -135 -161.5t-92 -164.5q-37 -91 -37 -136z" />
<glyph unicode="b" horiz-adv-x="832" d="M137 75q0 55 21 128l52 186l192 591q34 112 64 192q12 32 12 55q0 15 -17 35q-27 18 -79 18h-16l2 28q28 7 110 9q17 0 127 7q-3 -15 -61 -193l-74 -235q-10 -38 -50 -159l-109 -356l145 191q127 148 149 168q54 48 96 65.5t74 17.5q37 0 67 -35q38 -46 38 -108 q0 -130 -67.5 -270.5t-186.5 -256.5q-77 -75 -226 -144q-85 -39 -137 -39q-59 0 -92.5 31t-33.5 74zM236 83q0 -30 19 -50.5t49 -20.5q32 0 67 21q69 39 155.5 139t118.5 152q66 109 108 217q32 80 32 140q0 28 -18.5 45.5t-47.5 17.5q-28 0 -61 -19q-64 -38 -151 -142 q-138 -164 -178.5 -231t-66.5 -153.5t-26 -115.5z" />
<glyph unicode="c" horiz-adv-x="555" d="M99 147q0 80 38.5 195t113.5 222t122.5 153.5t116.5 79.5q47 23 88 23q42 0 74.5 -36.5t32.5 -85.5q0 -30 -15.5 -46.5t-36.5 -16.5q-13 0 -32 6q-15 12 -23 22q-5 7 -19 38.5t-21 38.5q-12 11 -25 11q-35 0 -75 -43q-74 -79 -149.5 -261t-75.5 -302q0 -45 13 -63 q10 -13 29 -13q39 0 86 42q63 56 128 156q19 4 29 4l15 -1q-4 -18 -56 -95q-75 -110 -138 -153.5t-116 -43.5q-46 0 -71 33q-33 43 -33 136z" />
<glyph unicode="d" horiz-adv-x="832" d="M91 108q0 97 44 200q26 63 86.5 162t135 172.5t142 106t122.5 32.5q43 0 76 -20q22 -13 47 -51l108 345q7 22 20 72q2 10 4 16q21 66 21 84q0 13 -13 24q-27 21 -91 36l-21 6l8 28q170 0 226 23l12 1q12 0 26 -4q-7 -30 -10 -41l-1 -6l-83 -248l-100 -320 q-27 -82 -36 -121q-13 -58 -30 -108l-142 -425l3 -6q36 6 184 169q16 -7 24 -18q-83 -125 -186 -202q-74 -55 -111 -55q-8 0 -22 4q-6 9 -6 16q0 30 34 139t47 158q-27 -25 -79 -83q-99 -111 -209 -183q-79 -52 -143 -52q-35 0 -55 28q-32 43 -32 121zM211 152 q0 -42 21.5 -66t54.5 -24q40 0 93 37q97 68 182.5 180.5t120 224.5t34.5 133q0 32 -25 61t-46 29q-37 0 -89.5 -26t-110.5 -89q-33 -35 -101 -146t-101 -191t-33 -123z" />
<glyph unicode="e" horiz-adv-x="597" d="M104 189q0 48 14.5 115t33.5 112q30 70 67 132l77 112q75 80 84 88q35 30 70.5 45.5t73.5 15.5q49 0 86 -41t37 -103q0 -55 -28.5 -108.5t-61.5 -78.5l-83 -54q-14 -7 -75 -25.5t-157 -37.5q-33 -91 -33 -184q0 -68 32 -109q21 -28 57 -28q22 0 39 9q37 19 63.5 45 t55.5 68t47 94h14q12 0 27 -2q-30 -112 -148 -220q-74 -67 -153 -67q-53 0 -90 48q-49 63 -49 174zM259 411h2q32 0 98 25q37 14 98 55q24 16 55 54.5t47 80t16 85.5q0 29 -17 48t-38 19q-27 0 -64 -31q-62 -54 -130 -181q-51 -97 -67 -155z" />
<glyph unicode="f" d="M-374 -435q0 35 27 51q20 9 30 9q34 0 60 -46q11 -20 22 -33q25 -25 54 -25q42 0 104 48q52 55 97.5 157.5t80.5 220.5l98 337q9 31 18 68l66 236q27 90 41 127q-18 1 -27 1q-7 0 -32 -1.5t-118 -1.5q3 28 6 50q21 2 45 3l145 5q44 147 100 276q35 77 100 155 q50 59 119 95q33 18 85 18q64 0 103 -34.5t39 -71.5q0 -24 -16 -41.5t-36 -17.5q-26 0 -46.5 17t-29.5 53q-7 26 -19 37q-13 10 -34 10q-20 0 -35 -8q-31 -16 -68 -61q-26 -33 -55.5 -97t-64 -182.5t-38.5 -146.5l27 -2l94 2q6 0 31 -2q1 -9 1 -14q0 -15 -6 -37l-165 -6 l-33 -112l-84 -302q-7 -24 -12 -39q-18 -47 -22 -71l-74 -237q-49 -137 -97.5 -226t-120.5 -160q-53 -51 -112 -75q-38 -16 -99 -16q-84 0 -116.5 26.5t-32.5 63.5z" />
<glyph unicode="g" horiz-adv-x="661" d="M-190 -294q0 44 41 77q59 47 336 168q-76 62 -98 89q-8 10 -8 22q0 15 10.5 27t51 29t132.5 77q-11 14 -48 53l-32 35q-12 22 -22 59t-10 74q0 60 19 116q27 83 66.5 140.5t80.5 89.5q28 22 68 36q62 22 105 22q51 0 102 -25q33 -16 76 -16q17 0 40.5 3t32.5 3q8 0 24 -2 q3 -30 3 -43q0 -10 -7 -21q-16 -2 -23 -2q-23 0 -70 13q-19 5 -34 9q28 -61 28 -135q0 -145 -99.5 -273t-230.5 -155q-71 -14 -111 -46q-16 -12 -16 -32q0 -33 52 -74q64 -32 118 -57q153 -54 231 -121q60 -51 60 -138q0 -46 -24 -83.5t-78 -70.5q-36 -22 -117.5 -40.5 t-156.5 -18.5q-136 0 -197 13q-111 23 -174 56t-100 83q-21 29 -21 59zM-78 -295q0 -43 30 -74q56 -51 149 -74q16 -4 30 -9q18 -5 61 -11q63 -3 107 -3q90 0 171.5 29t106.5 60q17 20 17 52q0 55 -64 110q-48 40 -195 96q-66 26 -108 44q-67 -22 -174 -80 q-57 -31 -86.5 -58t-32.5 -33q-12 -24 -12 -49zM248 331q0 -42 25 -73t62 -37q52 8 88 38q17 13 57 80.5t59 121.5q44 125 44 205q0 54 -26.5 83.5t-67.5 29.5q-44 0 -85 -37.5t-98.5 -183.5t-57.5 -227z" />
<glyph unicode="h" horiz-adv-x="853" d="M72 -3q0 17 16 55l72 179q6 13 11 26l283 808l41 116q16 44 16 60q0 12 -6 18.5t-23 9.5q-40 8 -72 21l4 21q173 19 209 19q11 0 32 -1l-5 -19l-27 -67l-59 -167q-14 -38 -39 -118q-46 -148 -96.5 -266.5t-94.5 -257.5q16 20 41 56q142 202 238 276q65 50 128 50 q51 0 87.5 -43t36.5 -132q0 -114 -57 -269.5t-135 -252.5t-133.5 -125t-100.5 -28q-39 0 -59 21q-30 31 -30 64q0 15 16 28.5t42 13.5q20 0 32 -8.5t37 -45.5q17 -16 28 -16q19 0 52 43q65 86 146 327q65 191 65 289q0 54 -15 73t-41 19q-14 0 -32 -9q-54 -27 -117 -93 t-199 -255q-30 -42 -99.5 -191t-94.5 -210q-13 -32 -25 -41t-32 -9q-22 0 -31.5 8t-9.5 23z" />
<glyph unicode="i" horiz-adv-x="469" d="M76 25q0 77 113 290l161 304q25 47 35 74q6 17 6 23q0 5 -5 18q-21 0 -31 -3q-47 -25 -69 -43q-45 -35 -85 -82l-58 -13q77 104 171 163t148 59q23 0 34.5 -11.5t11.5 -29.5q0 -49 -56 -163q-7 -14 -33 -72q-60 -131 -128 -248q-22 -38 -48 -90q-14 -28 -25 -47 q-31 -52 -31 -77q0 -7 5.5 -12.5t13.5 -5.5q11 0 32 12q35 20 83.5 66.5t85.5 106.5h41q-29 -54 -85.5 -124t-128.5 -112q-54 -32 -96 -32q-32 0 -47 13.5t-15 35.5zM425 1183q0 35 27 62.5t63 27.5q34 0 58 -24t24 -55q0 -40 -30 -73q-18 -19 -66 -19q-32 0 -54 22t-22 59z " />
<glyph unicode="j" horiz-adv-x="427" d="M-444 -412q0 33 36 54q23 7 33 7q17 0 35.5 -16.5t29 -49t28.5 -41.5q38 0 70 9q35 14 63.5 39t72.5 90q34 50 85 159.5t78 178.5q14 39 28 72l133 323l47 113q14 31 39.5 84t25.5 93q0 10 -6 16.5t-13 6.5q-14 0 -53 -27q-54 -38 -137 -141q-14 7 -26 20 q44 63 113.5 131t140.5 102q44 21 90 21q15 -13 15 -27q0 -101 -136 -405q-14 -32 -28 -70q-42 -115 -122 -294q-116 -261 -161 -331.5t-104.5 -120t-108.5 -64.5q-72 -23 -128 -23q-50 0 -72 10q-35 15 -56 42q-12 15 -12 39zM437 1164q0 31 25 54.5t64 23.5 q22 0 39.5 -19.5t17.5 -49.5q0 -32 -20 -52t-57 -20q-31 0 -50 19t-19 44z" />
<glyph unicode="k" horiz-adv-x="1067" d="M66 -7q0 25 69 156q15 27 45.5 99.5t61.5 140.5l153 333l60 134q64 156 126 295q9 28 9 53q0 17 -10 28t-46 21q-23 6 -36 11l9 26q127 0 233 31h37q-9 -25 -27 -62l-186 -404l-103 -222l-51 -113q-5 -11 -8 -25q30 19 49 35l140 132q98 84 165 114.5t130 30.5 q65 0 121 -48q37 -32 37 -87q0 -91 -98.5 -173t-276.5 -82q-70 0 -163 13q19 -74 61 -149q23 -41 79 -127q29 -44 69 -79q56 -47 94 -64t76 -17q54 0 89.5 29.5t35.5 59.5q0 12 -8.5 21t-15.5 9t-44 -15q-12 -6 -27 -6q-27 0 -47 17q-14 12 -14 33q0 26 22 44.5t66 19.5 q56 -12 77 -38q30 -37 30 -85q0 -50 -46 -90.5t-122 -40.5q-120 0 -209 53t-177 186q-49 73 -106 245q-16 -23 -47 -87q-4 -9 -22.5 -45.5t-41.5 -86.5q-96 -206 -118 -233q-14 -19 -41 -19q-18 0 -48 9q-5 11 -5 19zM463 485q57 -15 96 -15q163 0 285 44q89 33 123 76.5 t34 81.5q0 17 -16.5 30t-49.5 13q-64 0 -133 -22q-119 -39 -201.5 -96t-137.5 -112z" />
<glyph unicode="l" d="M73 5q0 47 160 413q49 111 102 254q93 250 143 356t73 191q2 9 2 15q0 15 -14 28q-18 16 -85 32l3 28q122 9 185 9h44v-14l-31 -97q-2 -4 -73 -185l-135 -352q-36 -99 -120 -306l-33 -87q-35 -95 -56 -128q-33 -54 -33 -80l4 -16q33 3 85 45q76 59 138 151q20 4 31 4 l12 -1q-39 -73 -84 -119q-71 -72 -98 -91q-60 -44 -115 -67q-35 -15 -69 -15q-18 0 -27 9t-9 23z" />
<glyph unicode="m" horiz-adv-x="1280" d="M50 -6q0 15 15 40q6 10 164 314l178 349q3 7 4 21l-14 4q-18 0 -56 -29q-69 -52 -119 -116q-10 -13 -20 -24q-19 2 -38 5q31 51 62 83q72 74 100 95q56 43 105 64q25 11 50 11q22 0 36.5 -13t14.5 -28q0 -35 -117 -264q-33 -66 -43 -90q55 58 141 159q61 72 164 164 q40 35 91 54t84 19q27 0 47 -18q13 -12 13 -35q0 -86 -115 -299l-46 -88l-6 -16l102 121q47 52 64 70q32 31 46 48q85 102 175.5 157t142.5 55q22 0 39 -17.5t17 -47.5q0 -20 -4 -38q-8 -33 -32 -89q-2 -5 -87 -160q-49 -89 -75 -132l-50 -79q-37 -64 -56 -83 q-58 -58 -58 -94q0 -5 7 -10q5 0 37 20q65 40 160 127l31 -8q-48 -81 -156.5 -152.5t-195.5 -71.5q-21 0 -36 16q0 13 4 21.5t32 54.5l166 269q134 217 160 276q38 87 38 102q0 11 -7 18.5t-17 7.5q-14 0 -36 -12q-58 -32 -135 -113q-152 -162 -232 -257 q-127 -153 -217 -317q-21 -39 -47 -63q-22 -3 -43 -3q-32 0 -53 6q3 18 28 59q48 77 154 271t139 263.5t42 102.5q3 11 3 23q0 17 -10 29q-6 9 -15 9q-16 0 -47 -18q-46 -24 -129 -113q-144 -153 -162 -176q-123 -158 -183 -255q-3 -6 -38.5 -66.5t-47.5 -83.5 q-15 -24 -39 -45q-26 -3 -44 -3q-13 0 -26 4z" />
<glyph unicode="n" horiz-adv-x="875" d="M93 -10q0 8 10 36q22 65 108 274l23 54l128 339q-2 8 -5.5 11t-8.5 3q-52 0 -162 -164q-11 -1 -16 -1q-6 0 -20 1q21 42 68.5 106t101 106.5t101.5 63.5q16 7 29 7q5 0 15 -1q18 -18 18 -37q0 -12 -2.5 -24t-10.5 -37q-30 -86 -44 -121l-57 -148q-20 -51 -39 -108 q8 10 14 19q93 136 200.5 260.5t177.5 166.5q50 31 95 31q34 0 53 -18.5t19 -47.5q0 -18 -4 -35q-7 -38 -31 -106t-126 -295l-100 -231l-4 -13q0 -6 7 -18q56 12 168 178l41 -1q-31 -56 -102 -144q-55 -67 -118 -104q-35 -21 -75 -21q-24 0 -36 10t-12 22q0 53 51 164 l145 317l56 133q19 44 23 61t4 34q0 13 -7 20.5t-18 7.5q-16 0 -37 -13q-74 -44 -163 -151q-128 -154 -170 -221q-105 -166 -183 -339q-12 -28 -29 -41q-21 -3 -32 -3q-13 0 -40 5q-4 8 -4 13z" />
<glyph unicode="o" horiz-adv-x="725" d="M114 226q0 87 39 200.5t101 188.5q14 17 32 41q53 69 126 116t149 47q70 0 118 -58.5t48 -192.5q0 -232 -140.5 -412t-291.5 -180q-81 0 -131 60.5t-50 189.5zM207 113q0 -46 21.5 -68t69.5 -22q47 0 95 46q86 84 172 289t86 323q0 42 -21 66.5t-48 24.5q-59 0 -123 -69 q-109 -116 -188 -320q-64 -166 -64 -270z" />
<glyph unicode="p" horiz-adv-x="832" d="M-289 -507q0 9 6 24q37 9 97 16q31 3 44 5q16 4 30 6q14 6 20 13q11 13 27 53l99 260q21 51 40 113q12 39 26.5 76t16.5 48q6 23 10 33l93 259q5 15 75 220q21 62 38 124q-71 -12 -124 -28q-11 -3 -31 -9q-37 -15 -46 -15q-8 0 -25 7l-2 11q0 14 16 24q49 31 232 70 q48 125 58 170q15 60 34 83q12 2 25 2q14 0 42 -2q17 -18 17 -29l-4 -14q-2 -5 -13 -46q-6 -23 -19 -57q-26 -67 -33 -90q44 3 59 3q16 0 48 -2h5q53 0 111 -28q81 -40 118 -107.5t37 -156.5q0 -67 -26 -143t-79 -155t-121 -132.5t-121 -71.5q-119 -42 -157 -42q-28 0 -63 8 t-76 24q-40 -81 -133 -347q-18 -53 -29 -78.5t-11 -39.5l1 -9l11 -9q27 -8 64.5 -10t65.5 -7q5 -4 13 -7l5 -16q0 -5 -5 -11q-39 2 -60 2q-14 0 -23 -1l-24 -1l-184 7q-49 0 -77 -6q-35 2 -60 2h-37zM231 104q0 -34 19 -49q30 -23 83 -23q48 0 92 19q34 15 124 87 q93 102 132.5 208.5t39.5 186.5q0 51 -14 103q-7 28 -29 50q-31 32 -60 45q-48 21 -123 21q-23 0 -55 -3q-66 -206 -109 -320l-83 -239q-10 -29 -14 -56q-3 -14 -3 -30z" />
<glyph unicode="q" horiz-adv-x="875" d="M78 138q0 205 208 422q252 263 392 263q28 0 67 -15q53 -21 93 -49q32 39 63 66h8q6 0 14 -6q0 -25 -10 -51q-36 -97 -42 -117q-12 -45 -56 -173l-73 -221q-59 -154 -94 -274q-6 -18 -33 -93q-37 -101 -50 -144l-19 -66q-13 -36 -34 -122q0 -16 16 -27l66 -6q7 -1 14 -1 q18 -2 30 -12q2 -8 2 -13l-2 -12l-44 -3q-176 5 -188 5q-19 0 -40 -1q-65 -3 -106 -3l-70 -2q-13 0 -28 14q1 15 15 22l55 3q95 6 130 29q23 15 38.5 50.5t73.5 216.5l121 338l38 128q19 49 22 67q-10 -13 -32 -41q-82 -108 -156 -184.5t-110 -102.5t-93 -48 q-33 -13 -66 -13q-51 0 -85.5 41t-34.5 135zM196 159q0 -58 21 -82.5t60 -24.5q34 0 64 18t113 99q62 60 145 173t119.5 197t36.5 142q0 48 -20 71.5t-47 23.5t-70 -24t-129.5 -104.5t-143.5 -157.5q-91 -123 -120 -199t-29 -132z" />
<glyph unicode="r" horiz-adv-x="619" d="M114 10q0 20 10 46q43 105 138 387l70 214q7 29 10 37l6 15q0 10 -20 26q-33 -24 -62 -56q-8 -9 -91 -120l-41 -2q25 54 93 133t118 108q32 19 72 22q25 -7 34.5 -19t9.5 -29t-4 -34q-11 -55 -44 -157t-59 -161l-52 -123l-4 -18q14 24 57 107q163 309 235 382 q53 52 124 52q40 0 75 -32q26 -25 26 -66q0 -46 -29 -79q-20 -23 -57 -23q-31 0 -43.5 14.5t-15.5 72.5q-13 26 -29 26t-34 -17q-48 -43 -181 -275.5t-166.5 -323t-54.5 -124.5q-11 -17 -41 -17q-27 0 -38.5 9.5t-11.5 24.5z" />
<glyph unicode="s" horiz-adv-x="597" d="M53 104q0 30 17 48.5t45 18.5q50 0 82 -77q16 -38 31 -50q14 -13 37 -13q43 0 82 40q30 30 30 92q0 48 -34 144q-48 139 -48 218q0 115 62 204t196 89q57 0 91 -31t34 -75q0 -30 -16.5 -48.5t-37.5 -18.5q-44 0 -79 42.5t-47 49.5q-12 6 -37 6q-28 0 -49.5 -24t-21.5 -58 q0 -81 48 -225.5t48 -224.5q0 -51 -31.5 -103.5t-98 -89t-136.5 -36.5q-84 0 -125.5 36t-41.5 86z" />
<glyph unicode="t" horiz-adv-x="512" d="M79 23q0 29 49 135l43 93l151 355q29 69 47 121h-58l-28 1l-65 -2h-13q2 22 17 51q144 4 171 7q20 48 34 77q30 65 62 154q10 29 22 53q22 3 51 3q24 0 46 -5l2 -16q0 -19 -90 -220q-10 -23 -17 -47q29 -5 34 -5h21l34 -1l96 2q0 -33 -12 -54q-40 -4 -105 -4 q-32 0 -41 -1q-51 -5 -59 -10l-166 -388q-26 -57 -92 -217q0 -6 6 -14l13 -2q27 0 67 34q89 75 168 175q17 -9 30 -21q-101 -121 -142 -159.5t-104 -80t-76 -46.5q-23 -9 -47 -9q-25 0 -37 10.5t-12 30.5z" />
<glyph unicode="u" horiz-adv-x="875" d="M78 14q0 16 7 40q16 51 57 130l171 337l70 149q19 30 19 44q0 5 -7 18q-33 -14 -93 -77q-39 -33 -73 -69q-23 -26 -34 -36l-32 7q16 30 93 112.5t157 128.5q39 23 71 23q19 0 33 -14t14 -30q0 -21 -17 -57q-3 -6 -15 -34q-45 -105 -174 -357q-112 -216 -112 -245l1 -6 q26 4 70 42q131 111 198 186q9 9 46 48q114 118 189 227q45 65 128 236q28 3 47 3q23 0 35 -16q-21 -63 -79 -206l-186 -464q-17 -36 -22 -66l7 -1q7 0 33 23q58 52 97 106q18 25 31 39l32 -5q-48 -91 -162 -198q-63 -58 -99 -58q-13 0 -34 6q-18 19 -18 36q0 50 41 146 l141 329q6 10 8 20q-18 -20 -79 -90q-144 -168 -247.5 -264t-222.5 -165q-29 -16 -57 -16q-14 0 -23.5 10t-9.5 28z" />
<glyph unicode="v" horiz-adv-x="704" d="M108 26q0 41 24 100q109 266 192 498q15 44 15 73q0 18 -9 30q-7 9 -16 9q-22 0 -49 -35q-50 -65 -92 -166l-32 -2h-9q58 155 156 252q47 47 92 47q27 0 49 -23.5t22 -64.5q0 -44 -10 -89.5t-48 -144.5l-90 -229q-40 -94 -47 -115l-14 -40q-22 -55 -22 -75q0 -6 7 -26 q11 -5 16 -5l65 31q120 93 152 128q62 64 141 173q38 52 60 118q15 45 15 89q0 52 -23 173q0 47 24 78q18 24 38 24q21 0 41.5 -26t20.5 -75q0 -128 -72 -280q-50 -107 -162 -240t-235 -207q-60 -37 -126 -37q-20 0 -48 11q-26 22 -26 46z" />
<glyph unicode="w" horiz-adv-x="1088" d="M72 -16q0 14 4 25q2 4 39 72q67 124 98 199q57 137 86 248q20 79 20 129q0 30 -12 46q-8 10 -23 10q-16 0 -38 -22t-69 -107l-26 11q26 91 79 158.5t106 67.5q39 0 65.5 -34t26.5 -123q0 -95 -44 -227.5t-161 -363.5q55 20 130 74q107 77 181 165q36 42 84.5 125.5 t59.5 114.5q19 59 19 114q0 26 -11 41q-7 10 -18 10q-14 0 -27 -8q-18 -12 -38 -39l-52 -85l-29 15q37 82 70 127q46 64 73 79.5t46 15.5q41 0 63 -26q35 -40 35 -135q0 -91 -54.5 -261t-143.5 -326q188 82 344 264q118 139 118 313q0 7 -2 72q0 34 15.5 65.5t38.5 31.5 q26 0 42 -16t16 -46q0 -95 -48.5 -211t-164.5 -255q-81 -97 -205 -178q-75 -49 -255 -133q-57 -19 -62 -19q-7 0 -25 8q0 15 2.5 20t18.5 24q91 135 142 241t66 165q-83 -134 -150 -198q-97 -92 -285 -207q-85 -51 -124 -51q-9 0 -15 6t-6 14z" />
<glyph unicode="x" horiz-adv-x="1024" d="M18 66q0 45 37.5 84.5t73.5 39.5q12 0 33 -5q-5 -14 -8 -21q-19 -47 -19 -62q0 -14 11 -25t26 -11q14 0 26 6q43 21 157 123.5t176 167.5q-25 58 -56 109l-103 174q-21 30 -38 41q-12 7 -24 7q-17 0 -28 -14q-17 -128 -22 -147q-25 19 -32 38q-16 35 -16 89q0 51 30 103 t65 52q39 0 80 -39q63 -61 191 -292q21 -38 30 -51l193 174q137 123 202 167q27 19 57 29q14 5 28 5q21 0 36.5 -18.5t15.5 -50.5q0 -89 -59 -135q-23 -12 -34 -12q-14 0 -35 6q40 54 40 73q0 16 -12 30q-12 3 -17 3q-10 0 -32 -8q-14 -5 -66 -40q-81 -57 -155 -127 l-137 -130q126 -239 152 -270q19 -24 38 -24q17 0 31 16q23 24 23 35l-4 67l2 9q13 0 21 -5q25 -36 25 -99q0 -19 -16 -70q-11 -35 -36 -55.5t-50 -20.5t-48.5 16.5t-77.5 92.5q-8 13 -102 173l-37 61q-15 -14 -84 -81q-183 -177 -262 -228q-57 -36 -98 -36q-40 0 -66 24.5 t-26 61.5z" />
<glyph unicode="y" horiz-adv-x="683" d="M-441 -406q0 20 15 34.5t35 14.5q28 0 59 -15q15 -8 49 -43q21 -23 36.5 -29.5t52.5 -6.5q53 0 124.5 29.5t105.5 61.5q64 43 148 139q45 52 77.5 133t48 204.5t15.5 212.5q0 52 -5 191q-5 95 -15.5 130t-27.5 50q-9 8 -23 8q-23 0 -40 -20q-35 -43 -69 -163l-8 -2 q-10 0 -25 11q35 131 50 163q31 64 54 89q14 15 46 30q16 2 25 2q58 0 93 -75q48 -104 48 -283q0 -81 -11.5 -201t-24.5 -177q-17 -81 -19 -100q5 5 11 15q64 96 110 184q36 66 65.5 158t46.5 189q10 58 10 127q0 25 -1 43q-2 24 -2 29q0 49 19 74q9 14 35 14t38.5 -14 t12.5 -46q0 -48 -57 -239q-78 -264 -161 -408q-126 -219 -291 -387q-112 -114 -232.5 -166.5t-209.5 -52.5q-120 0 -164 30.5t-44 61.5z" />
<glyph unicode="z" horiz-adv-x="853" d="M120 46q0 32 36 61t109 29q42 0 52 4q30 13 112 86l296 267q43 36 101 106l-108 -4q-100 0 -227 86q-69 47 -126 47q-56 0 -93 -36t-37 -87q0 -28 17 -61l13 -1q9 8 13 20q9 29 25.5 42t38.5 13q24 0 41 -19.5t21 -66.5q-10 -33 -36 -51.5t-60 -18.5q-44 0 -76.5 36.5 t-32.5 96.5q0 84 76.5 154t178.5 70q93 0 197.5 -80t127 -91t36.5 -11q18 0 35 15l8 18q12 75 26 91q19 22 47 22q25 0 44 -17.5t19 -38.5q0 -36 -19 -63q-26 -38 -108 -105q-23 -20 -85 -82q-38 -38 -81 -77l-104 -87q-95 -94 -205 -185q12 -7 18 -10q86 -45 95 -52 q21 -19 50.5 -71t59.5 -155l50 -170q9 -24 30 -67q14 -17 26 -35q44 -51 122 -51q56 0 77 14q15 9 15 25q0 8 -4 21q-7 6 -34 15t-33 17q-12 17 -12 35q0 23 20 41t49 18q9 0 21 -5q22 -7 38 -30.5t16 -60.5q0 -57 -41 -92t-130 -35q-72 0 -105 13q-53 22 -100 71.5 t-79 116.5q-13 27 -46.5 145.5t-44.5 146.5q-28 65 -60 94q-18 16 -41 16q-21 0 -60 -40q-58 -60 -107 -60q-24 0 -43 19t-19 44z" />
<glyph unicode="{" horiz-adv-x="981" d="M283 470v41q107 14 167.5 76t60.5 133q0 55 -23 150t-23 169q0 135 104.5 248t271.5 135v-35q-117 -28 -171.5 -91.5t-54.5 -137.5q0 -61 22.5 -157.5t22.5 -164.5q0 -101 -74 -196t-221 -147q144 -53 219.5 -150t75.5 -198q0 -68 -22.5 -164.5t-22.5 -157.5 q0 -74 54.5 -137.5t171.5 -92.5v-35q-167 23 -271.5 135.5t-104.5 248.5q0 74 23 168.5t23 150.5q0 70 -61 132.5t-167 76.5z" />
<glyph unicode="|" horiz-adv-x="1024" d="M540 -505v1819h89v-1819h-89z" />
<glyph unicode="}" horiz-adv-x="981" d="M274 -407q117 29 171.5 92t54.5 138q0 61 -23 157.5t-23 163.5q0 102 74.5 197t221.5 147q-144 53 -220 150t-76 198q0 68 23 164.5t23 157.5q0 74 -54.5 137.5t-171.5 91.5v35q166 -22 271 -134.5t105 -249.5q0 -73 -23 -168t-23 -150q0 -70 60.5 -132.5t167.5 -76.5 v-41q-107 -14 -167.5 -76t-60.5 -134q0 -54 23 -149t23 -169q0 -135 -104.5 -248t-271.5 -136v35z" />
<glyph unicode="~" horiz-adv-x="1365" d="M223 501q7 133 74 203t158 70q44 0 89 -13q103 -30 291 -110q154 -66 223 -66q75 0 126 48t61 139h43q-3 -127 -72.5 -200.5t-170.5 -73.5q-46 0 -91 14q-60 17 -281 108q-156 64 -220 64q-71 0 -119 -43t-68 -140h-43z" />
<glyph unicode="&#xa1;" d="M-36 -412q0 14 9 48l50 144l129 340q17 43 30.5 71.5t25.5 57.5l98 246h11q8 0 17 -2l-3 -18q-17 -97 -51 -206q-20 -85 -29 -116q-16 -50 -25 -99.5t-37 -148.5q-34 -192 -57.5 -262t-49.5 -92q-20 -16 -60 -16q-22 0 -40 18t-18 35zM278 720q0 51 30.5 84t72.5 33 q39 0 64 -28q31 -37 31 -89q0 -34 -32.5 -67t-73.5 -33q-37 0 -64.5 29t-27.5 71z" />
<glyph unicode="&#xa2;" horiz-adv-x="619" d="M-15 -248l121 238q-47 18 -74 61.5t-27 114.5q0 90 59 218q44 97 132 206t201 180q70 44 136 51l142 274h44q-8 -20 -17 -37q-22 -40 -73 -141l-50 -98q55 -19 78.5 -48t23.5 -64q0 -29 -18 -48t-42 -19q-36 0 -58 46q-18 35 -29 46l-88 -172l-245 -484q28 0 43 7 q31 14 83.5 63.5t101.5 125.5h47q-50 -107 -156 -205q-79 -73 -169 -80l-121 -235h-45zM120 165q0 -44 37 -75l339 659q-58 0 -123 -60q-95 -86 -174 -254.5t-79 -269.5z" />
<glyph unicode="&#xa3;" horiz-adv-x="1280" d="M65 -437q0 26 17 55t57.5 62.5t65.5 45.5q10 7 15 11q29 18 40 30l37 135q26 91 33 128q5 27 27 113q-136 12 -267 12q-6 15 -6 24l2 11q22 4 41 4h33q139 0 209 4l57 243q23 80 91 301q10 31 15 42q14 36 22 63q36 126 124.5 247.5t175.5 167.5q66 35 188 35 q97 0 135.5 -27.5t38.5 -58.5q0 -33 -17.5 -53t-41.5 -20q-16 0 -32 8q-12 6 -52 43t-63 47q-33 16 -66 16q-40 0 -62.5 -10.5t-57 -49.5t-75.5 -117q-28 -53 -52 -126q-42 -126 -57 -206q-5 -25 -12 -52l-74 -279l-27 -105q-14 -43 -23 -101q212 -5 260 -12q-2 -14 -10 -32 q-3 -6 -8 -19l-214 -3q-28 0 -50 -3l-43 -107q-29 -70 -126 -251q15 6 28 12t28 11l8 3q85 18 106 18q20 0 50 -7.5t54 -20.5l120 -78q24 -15 105 -79l45 -35q8 -5 22 -8h22q48 0 97.5 53.5t49.5 105.5q0 32 -22.5 75.5t-22.5 57.5q0 26 20 49q15 16 39 16q28 0 44 -11 q20 -14 31.5 -42.5t11.5 -40.5q0 -21 -15 -90q-26 -68 -54 -100q-62 -72 -131 -106.5t-147 -34.5q-49 0 -75.5 12.5t-87.5 67.5q-98 89 -154.5 118t-106.5 29q-15 0 -31.5 -5t-35.5 -15q-26 -26 -34 -38.5t-24 -50.5q-23 -58 -67.5 -92.5t-72.5 -34.5q-19 0 -36 15 q-12 11 -12 30z" />
<glyph unicode="&#xa4;" horiz-adv-x="1387" d="M274 257l126 124q-52 72 -74 136t-22 143q0 77 22 140t74 137l-126 124l74 76l126 -125q75 52 137.5 73.5t139.5 21.5q78 0 141.5 -22t137.5 -74l126 126l73 -76l-125 -125q51 -72 73.5 -136t22.5 -143q0 -77 -22.5 -140t-73.5 -135l125 -125l-73 -74l-126 125 q-70 -51 -135 -74t-144 -23q-78 0 -142 23t-134 73l-126 -124zM410 659q0 -141 100 -241t242 -100q141 0 241 100t100 241q0 142 -99.5 241.5t-241.5 99.5q-143 0 -242.5 -99.5t-99.5 -241.5z" />
<glyph unicode="&#xa5;" horiz-adv-x="1280" d="M93 323l10 40q57 -3 64 -3l387 5l75 223l-10 23l-448 -4l10 40q55 3 419 6q-19 40 -28 63q-97 236 -167 384q-21 45 -29 66q-23 63 -47 78t-136 28l1 35l41 1q38 0 95 -9t185 -9q99 0 160 13l1 -32q0 -6 -2 -17l-74 -6q-60 -7 -69.5 -11.5t-16.5 -21.5l123 -283l117 -278 q18 9 22 13q98 103 365 374l21 20q36 34 72 91q22 35 22 47q0 24 -25 40q-32 22 -115 22q-26 0 -56 -2v42q40 7 72 7q19 0 86 -7t86 -7q42 0 107 5q23 1 45 2q25 6 49 6h14v-47q-10 -3 -27 -6q-39 -6 -79 -25q-27 -12 -93 -64q-32 -25 -241 -236q-112 -114 -258 -275l329 -4 l68 1q23 0 41 -4l-10 -40h-58l-384 7q-7 0 -20 -1q-7 -14 -22 -57l-63 -191q341 0 479 -2l-10 -40l-248 -4l-237 1q-52 -144 -57 -163q-11 -42 -11 -66q0 -26 19 -40q29 -21 99 -24q36 -1 86 -7q1 -10 1 -16q0 -7 -2 -16h-61q-27 0 -54.5 -3.5t-40.5 -3.5q-6 0 -35 2l-43 -1 l-72 7h-32l-38 1l-159 -9q-18 0 -62 2q4 22 12 39q122 10 156 17q14 2 32 13q17 16 23 28l53 124l39 117z" />
<glyph unicode="&#xa6;" horiz-adv-x="1024" d="M540 216h89v-721h-89v721zM540 593v721h89v-721h-89z" />
<glyph unicode="&#xa7;" horiz-adv-x="896" d="M-9 -267q0 55 26 88q20 25 50 25q31 0 52 -26.5t23.5 -92t16.5 -87.5q19 -30 67 -30q63 0 101.5 44t38.5 142q0 92 -40 297.5t-52.5 307t-12.5 186.5q0 180 49.5 328.5t137.5 251.5q58 67 113 100q84 52 163 52q107 0 167 -59.5t60 -153.5q0 -49 -22.5 -75t-53.5 -26 q-27 0 -47 22.5t-31 94t-33 96.5q-23 24 -58 24q-54 0 -93 -46t-39 -133q0 -46 6 -94q3 -26 30 -175q62 -344 62 -519q0 -190 -62.5 -357.5t-168.5 -274.5q-112 -108 -234 -108q-76 0 -138 42q-78 63 -78 156zM352 715q0 -141 36 -373q46 -290 46 -423q0 -150 -23 -223 q70 67 118.5 196.5t48.5 285.5q0 92 -32 320q-41 297 -41 432q0 129 25 228q-73 -60 -125.5 -177t-52.5 -266z" />
<glyph unicode="&#xa8;" horiz-adv-x="683" d="M368 1097q0 32 23.5 56t57.5 24t57.5 -23.5t23.5 -57.5t-24 -58t-57 -24t-57 24t-24 59zM702 1097q0 32 23.5 55.5t57.5 23.5t58 -24t24 -57q0 -34 -24 -58t-58 -24t-57.5 24t-23.5 60z" />
<glyph unicode="&#xa9;" horiz-adv-x="1557" d="M166 678q0 185 95.5 355.5t265.5 262t348 91.5q179 0 349 -91.5t265.5 -262t95.5 -355.5q0 -184 -94 -353t-263 -262.5t-353 -93.5t-352.5 93.5t-262.5 262.5t-94 353zM228 678q0 -168 85.5 -322t239.5 -240t322 -86t322.5 86t240 240t85.5 322q0 169 -87 324.5 t-242 239.5t-319 84q-163 0 -318 -84t-242 -239.5t-87 -324.5zM417 672q0 192 140 327.5t358 135.5q46 0 76.5 -6t108.5 -32q25 -8 37 -8q16 0 27 8.5t22 36.5h40l20 -280h-39q-36 119 -114.5 177.5t-188.5 58.5q-82 0 -146 -34t-105 -91q-30 -43 -50 -114t-20 -150 q0 -212 91 -312.5t240 -100.5q195 0 312 162l37 -19q-139 -203 -383 -203q-200 0 -331.5 129.5t-131.5 314.5z" />
<glyph unicode="&#xaa;" horiz-adv-x="533" d="M211 881q0 47 44 143q19 42 79.5 106.5t137 105t132.5 40.5q10 0 24 -1.5t31 -4.5l5 10q9 19 19 25q24 2 34 2q14 0 30 -7q1 -9 1 -15q0 -7 -1 -12l-52 -128q-21 -56 -74 -176q-30 -69 -39 -105q48 35 115 103q17 -11 29 -24q-54 -65 -116 -108q-45 -32 -82 -32 q-25 0 -37 9q-8 7 -8 20q0 25 46 122q-135 -150 -247 -150q-34 0 -52.5 19t-18.5 58zM310 907q0 -18 8.5 -27.5t21.5 -9.5q16 0 31 8q43 24 83 61q53 49 75 75q48 56 71 109t23 76q0 15 -9.5 24t-28.5 9q-26 0 -83 -33q-27 -16 -82.5 -80t-82.5 -124t-27 -88z" />
<glyph unicode="&#xab;" horiz-adv-x="789" d="M108 405q17 19 115 103l278 237l94 81h37l-407 -417q7 -27 13 -44l80 -237q27 -73 49 -143l-29 -1zM481 402q95 97 340 325l23 22q44 43 63 58l31 -1l-230 -271l-70 -83q-24 -27 -39 -46l50 -402h-26z" />
<glyph unicode="&#xac;" horiz-adv-x="1365" d="M218 856v89h1074v-576h-87v487h-987z" />
<glyph unicode="&#xad;" horiz-adv-x="533" d="M106 356q5 14 16.5 36t17.5 36q3 6 8 17l21 1h31q10 0 55 3l31 -1l49 2l86 -2q11 0 33 -1q35 2 41 2q8 0 33 -2q7 -1 23 -2q-20 -62 -39 -94q-21 -3 -42 -4l-18 4q-46 -2 -56 -3q-27 5 -47 5q-101 0 -156 -5q-30 7 -87 8z" />
<glyph unicode="&#xae;" horiz-adv-x="1557" d="M166 678q0 185 95.5 355.5t265.5 262t348 91.5q179 0 349 -91.5t265.5 -262t95.5 -355.5q0 -184 -94 -353t-263 -262.5t-353 -93.5t-352.5 93.5t-262.5 262.5t-94 353zM228 678q0 -168 85.5 -322t239.5 -240t322 -86t322.5 86t240 240t85.5 322q0 169 -87 324.5 t-242 239.5t-319 84q-163 0 -318 -84t-242 -239.5t-87 -324.5zM471 249v33q50 0 70.5 13t29.5 39q4 13 4 86v523q0 74 -3 87q-7 23 -25.5 35.5t-63.5 12.5v36h386q145 0 221 -65.5t76 -158.5q0 -76 -51.5 -133.5t-170.5 -88.5l209 -298q38 -53 68 -73q19 -12 53 -15v-33 h-184l-294 405h-76v-309q6 -33 28.5 -48t89.5 -15v-33h-367zM720 697h30q133 0 194 52t61 130q0 81 -56.5 136t-144.5 55q-38 0 -84 -16v-357z" />
<glyph unicode="&#xaf;" horiz-adv-x="1024" d="M164 1371v102h1048v-102h-1048z" />
<glyph unicode="&#xb0;" horiz-adv-x="811" d="M213 1082q0 128 89.5 217.5t217.5 89.5q129 0 218.5 -89.5t89.5 -217.5q0 -127 -90 -217t-218 -90q-127 0 -217 90t-90 217zM297 1083q0 -93 65 -158t158 -65q92 0 157.5 65t65.5 158q0 92 -65 157.5t-158 65.5t-158 -65.5t-65 -157.5z" />
<glyph unicode="&#xb1;" horiz-adv-x="1365" d="M217 -37v89h1075v-89h-1075zM217 771v88h492v494h88v-494h495v-88h-495v-492h-88v492h-492z" />
<glyph unicode="&#xb2;" horiz-adv-x="576" d="M101 621l6 22q357 292 414.5 363t57.5 134q0 48 -24 72.5t-70 24.5q-55 0 -91.5 -26t-75.5 -97h-55q34 91 96.5 136.5t141.5 45.5q94 0 143.5 -43.5t49.5 -106.5q0 -44 -20 -79q-28 -49 -109 -118q-38 -33 -323 -250h328l-24 -78h-445z" />
<glyph unicode="&#xb3;" horiz-adv-x="576" d="M108 610l8 34q187 0 300 113q81 81 81 158q0 35 -19 55t-49 20q-54 0 -125 -58q-20 14 -30 32q40 30 99 60q105 55 139 92q33 37 33 78q0 22 -14 34.5t-41 12.5q-71 0 -110 -83l-44 18q19 53 69 86.5t115 33.5q67 0 101 -28.5t34 -67.5q0 -34 -26 -64t-131 -89 q62 -18 85 -46.5t23 -66.5q0 -65 -55.5 -143.5t-164.5 -130t-233 -51.5q-17 0 -45 1z" />
<glyph unicode="&#xb4;" horiz-adv-x="683" d="M497 944q2 5 85.5 122.5t94.5 129.5q27 31 56 47q20 10 42 10q25 0 39.5 -13.5t14.5 -32.5q0 -43 -82 -100l-232 -164z" />
<glyph unicode="&#xb5;" horiz-adv-x="1024" d="M-127 -372q0 22 9 50q4 15 37 77q114 220 193 529l10 35l133 466h124l-131 -458q-31 -107 -31 -156q0 -50 31 -81.5t81 -31.5q72 0 136 49q90 69 151 182q41 76 83 221l79 275h125l-156 -541q-17 -58 -17 -110q0 -36 18.5 -55.5t48.5 -19.5q37 0 69 28q50 44 80 125h40 q-33 -115 -101.5 -175t-143.5 -60q-63 0 -103 41t-40 109q0 29 10 78q-60 -101 -154.5 -164.5t-185.5 -63.5q-61 0 -99.5 30t-58.5 100q-25 -80 -37.5 -143t-27.5 -188.5t-35 -165.5q-26 -51 -70 -51q-27 0 -47 20t-20 49z" />
<glyph unicode="&#xb6;" horiz-adv-x="917" d="M-14 981q0 110 43 180q58 96 154.5 145.5t252.5 49.5h495v-55h-133v-1743h-72v1743h-187v-1743h-73v1043q-191 8 -285.5 50.5t-144.5 131t-50 198.5z" />
<glyph unicode="&#xb7;" horiz-adv-x="683" d="M333 650q0 44 32.5 77t75.5 33q42 0 71 -31t29 -78t-30.5 -79t-73.5 -32q-42 0 -73 32.5t-31 77.5z" />
<glyph unicode="&#xb8;" horiz-adv-x="683" d="M48 -404q0 18 9 29t17 11q12 0 29 -16q36 -34 65 -34q32 0 57.5 28t25.5 67q0 58 -49 94q-25 18 -30 26q-3 4 -3 18q4 16 14.5 37.5t69.5 158.5l27 -1q-8 -27 -25 -63.5t-25 -64.5l2 -13q5 -9 27 -33q44 -49 44 -124t-48 -124t-122 -49q-46 0 -69 17q-16 13 -16 36z" />
<glyph unicode="&#xb9;" horiz-adv-x="576" d="M262 1123q189 77 280 173h60l-221 -675h-105l178 546q-95 -54 -189 -87z" />
<glyph unicode="&#xba;" horiz-adv-x="469" d="M236 961q0 49 26 120q19 53 51 96.5t61 70.5q40 37 79.5 56t84.5 19q53 0 87 -38t34 -119q0 -146 -96 -254t-199 -108q-59 0 -93.5 39t-34.5 118zM320 892q0 -24 10.5 -35.5t30.5 -11.5q31 0 58 24q51 44 108.5 166.5t57.5 196.5q0 24 -10 36.5t-23 12.5q-31 0 -67 -35 q-65 -64 -115 -174t-50 -180z" />
<glyph unicode="&#xbb;" horiz-adv-x="789" d="M-26 7q13 14 43 50l300 349l-50 403h25l142 -401l-423 -401h-37zM285 -12q35 37 406 415q-21 74 -123 368q-14 39 -19 57l30 -4l228 -418l-403 -348q-69 -59 -85 -71z" />
<glyph unicode="&#xbc;" horiz-adv-x="1515" d="M262 1123q189 77 280 173h60l-221 -675h-105l178 546q-95 -54 -189 -87zM350 -65l84 139q38 62 79 120q70 100 290 451l410 650l10 3q44 -3 49 -3l-422 -684q-58 -95 -65 -108q-9 -18 -26 -33l-17 -25q-48 -74 -78 -127q-11 -20 -22 -36l-232 -349q-12 0 -53 2h-7z M952 194l6 47l486 434h51l-141 -422h141l-17 -59h-144l-64 -194h-108l64 194h-274zM1043 253h203l86 260z" />
<glyph unicode="&#xbd;" horiz-adv-x="1515" d="M262 1123q189 77 280 173h60l-221 -675h-105l178 546q-95 -54 -189 -87zM350 -65l84 139q38 62 79 120q70 100 290 451l410 650l10 3q44 -3 49 -3l-422 -684q-58 -95 -65 -108q-9 -18 -26 -33l-17 -25q-48 -74 -78 -127q-11 -20 -22 -36l-232 -349q-12 0 -53 2h-7z M952 -1l6 22q357 292 414.5 363t57.5 134q0 48 -24 72.5t-70 24.5q-55 0 -91.5 -26t-75.5 -97h-55q34 91 96.5 136.5t141.5 45.5q94 0 143.5 -43.5t49.5 -106.5q0 -44 -20 -79q-28 -49 -109 -118q-38 -33 -323 -250h328l-24 -78h-445z" />
<glyph unicode="&#xbe;" horiz-adv-x="1515" d="M108 610l8 34q187 0 300 113q81 81 81 158q0 35 -19 55t-49 20q-54 0 -125 -58q-20 14 -30 32q40 30 99 60q105 55 139 92q33 37 33 78q0 22 -14 34.5t-41 12.5q-71 0 -110 -83l-44 18q19 53 69 86.5t115 33.5q67 0 101 -28.5t34 -67.5q0 -34 -26 -64t-131 -89 q62 -18 85 -46.5t23 -66.5q0 -65 -55.5 -143.5t-164.5 -130t-233 -51.5q-17 0 -45 1zM350 -65l84 139q38 62 79 120q70 100 290 451l410 650l10 3q44 -3 49 -3l-422 -684q-58 -95 -65 -108q-9 -18 -26 -33l-17 -25q-48 -74 -78 -127q-11 -20 -22 -36l-232 -349q-12 0 -53 2 h-7zM952 194l6 47l486 434h51l-141 -422h141l-17 -59h-144l-64 -194h-108l64 194h-274zM1043 253h203l86 260z" />
<glyph unicode="&#xbf;" horiz-adv-x="747" d="M-10 -228q0 61 16 102q21 58 62 106t115 100l171 114q103 72 146 135q26 40 26 85q0 11 1 24q-12 34 -31 47q-36 23 -70 23q-31 0 -66.5 -30t-68.5 -110q-18 2 -34 11q6 50 39.5 96t73 65t69.5 19q27 0 65 -23t62.5 -66.5t24.5 -95.5q0 -45 -22.5 -107t-77 -123 t-177 -147.5t-163.5 -123.5t-71 -96q-10 -22 -10 -57q0 -64 55 -113t136 -49q58 0 122 41l13 13q39 37 61 115q25 3 52 3q-15 -101 -85.5 -159t-182.5 -58q-109 0 -180 73.5t-71 185.5zM430 711q0 56 31 91.5t70 35.5q35 0 60.5 -29t25.5 -85q0 -22 -16.5 -53t-38.5 -43 q-29 -15 -54 -15t-51.5 30t-26.5 68z" />
<glyph unicode="&#xc0;" horiz-adv-x="1557" d="M-113 20l12 5l110 10l68 12q7 3 22 12q12 10 29 24l15 13l234 234q40 40 53 50.5t28 27.5t39.5 40t39.5 39q41 37 54 52q141 129 372 357l217 211q24 26 42 41q62 71 98 109q11 10 52 55q13 2 25 2t34 -2l1 -11q-7 -83 -7 -119q-7 -41 -8 -116l-13 -180q-2 -21 -6 -106 l-36 -469l1 -22l-2 -52v-15q-3 -12 -4 -17l-2 -86l1 -13l-3 -40q8 -14 43 -18q89 -9 132 -25l1 -13q0 -8 -5 -24q-36 6 -44 7l-123 8l-89 -2q-87 -10 -142 -10l-24 -3l-29 1q-44 -4 -52 -4q-15 0 -36 4l2 28q29 8 66 11q61 4 111 18q13 3 18 3h5q11 11 14 20q6 19 20.5 158 t15.5 212q1 36 2 53q-12 1 -58 1q-57 0 -355 -8l-202 -7q-7 -1 -21 -2q-14 -8 -34.5 -29t-51.5 -44q-43 -46 -131 -124q-35 -32 -60 -59l-75 -81q-14 -11 -25 -23q-8 -7 -16 -13q-7 -11 -14 -21q2 -11 2 -25q27 -15 73 -19q21 -2 45 -5q33 -6 49 -7q12 -2 21 -6 q-1 -16 -8 -34l-185 13l-138 -7q-31 -1 -46 -3h-10q-8 0 -35 -3l-48 -1q-12 0 -26 4q-3 15 -3 33zM655 532q16 -10 75 -10l51 1q36 2 74 2q22 0 33 -1h24l125 6l163 11q22 3 42 4q3 18 5 55q6 39 7 47l19 291l15 187q-13 -6 -58 -46q-21 -13 -56 -46l-231 -220l-40 -38 q-23 -25 -45.5 -44t-42.5 -40q-10 -11 -26.5 -24.5t-30.5 -28.5q-14 -11 -29 -28t-34 -35q-13 -13 -40 -43zM1228 1686q0 20 14 33t36 13q27 0 55.5 -19t94.5 -105q98 -129 134 -185h-18q-258 174 -287 204t-29 59z" />
<glyph unicode="&#xc1;" horiz-adv-x="1557" d="M-113 20l12 5l110 10l68 12q7 3 22 12q12 10 29 24l15 13l234 234q40 40 53 50.5t28 27.5t39.5 40t39.5 39q41 37 54 52q141 129 372 357l217 211q24 26 42 41q62 71 98 109q11 10 52 55q13 2 25 2t34 -2l1 -11q-7 -83 -7 -119q-7 -41 -8 -116l-13 -180q-2 -21 -6 -106 l-36 -469l1 -22l-2 -52v-15q-3 -12 -4 -17l-2 -86l1 -13l-3 -40q8 -14 43 -18q89 -9 132 -25l1 -13q0 -8 -5 -24q-36 6 -44 7l-123 8l-89 -2q-87 -10 -142 -10l-24 -3l-29 1q-44 -4 -52 -4q-15 0 -36 4l2 28q29 8 66 11q61 4 111 18q13 3 18 3h5q11 11 14 20q6 19 20.5 158 t15.5 212q1 36 2 53q-12 1 -58 1q-57 0 -355 -8l-202 -7q-7 -1 -21 -2q-14 -8 -34.5 -29t-51.5 -44q-43 -46 -131 -124q-35 -32 -60 -59l-75 -81q-14 -11 -25 -23q-8 -7 -16 -13q-7 -11 -14 -21q2 -11 2 -25q27 -15 73 -19q21 -2 45 -5q33 -6 49 -7q12 -2 21 -6 q-1 -16 -8 -34l-185 13l-138 -7q-31 -1 -46 -3h-10q-8 0 -35 -3l-48 -1q-12 0 -26 4q-3 15 -3 33zM655 532q16 -10 75 -10l51 1q36 2 74 2q22 0 33 -1h24l125 6l163 11q22 3 42 4q3 18 5 55q6 39 7 47l19 291l15 187q-13 -6 -58 -46q-21 -13 -56 -46l-231 -220l-40 -38 q-23 -25 -45.5 -44t-42.5 -40q-10 -11 -26.5 -24.5t-30.5 -28.5q-14 -11 -29 -28t-34 -35q-13 -13 -40 -43zM1415 1423q2 5 85.5 122.5t94.5 129.5q27 31 56 47q20 10 42 10q25 0 39.5 -13.5t14.5 -32.5q0 -43 -82 -100l-232 -164z" />
<glyph unicode="&#xc2;" horiz-adv-x="1557" d="M-113 20l12 5l110 10l68 12q7 3 22 12q12 10 29 24l15 13l234 234q40 40 53 50.5t28 27.5t39.5 40t39.5 39q41 37 54 52q141 129 372 357l217 211q24 26 42 41q62 71 98 109q11 10 52 55q13 2 25 2t34 -2l1 -11q-7 -83 -7 -119q-7 -41 -8 -116l-13 -180q-2 -21 -6 -106 l-36 -469l1 -22l-2 -52v-15q-3 -12 -4 -17l-2 -86l1 -13l-3 -40q8 -14 43 -18q89 -9 132 -25l1 -13q0 -8 -5 -24q-36 6 -44 7l-123 8l-89 -2q-87 -10 -142 -10l-24 -3l-29 1q-44 -4 -52 -4q-15 0 -36 4l2 28q29 8 66 11q61 4 111 18q13 3 18 3h5q11 11 14 20q6 19 20.5 158 t15.5 212q1 36 2 53q-12 1 -58 1q-57 0 -355 -8l-202 -7q-7 -1 -21 -2q-14 -8 -34.5 -29t-51.5 -44q-43 -46 -131 -124q-35 -32 -60 -59l-75 -81q-14 -11 -25 -23q-8 -7 -16 -13q-7 -11 -14 -21q2 -11 2 -25q27 -15 73 -19q21 -2 45 -5q33 -6 49 -7q12 -2 21 -6 q-1 -16 -8 -34l-185 13l-138 -7q-31 -1 -46 -3h-10q-8 0 -35 -3l-48 -1q-12 0 -26 4q-3 15 -3 33zM655 532q16 -10 75 -10l51 1q36 2 74 2q22 0 33 -1h24l125 6l163 11q22 3 42 4q3 18 5 55q6 39 7 47l19 291l15 187q-13 -6 -58 -46q-21 -13 -56 -46l-231 -220l-40 -38 q-23 -25 -45.5 -44t-42.5 -40q-10 -11 -26.5 -24.5t-30.5 -28.5q-14 -11 -29 -28t-34 -35q-13 -13 -40 -43zM1231 1394q17 20 117 115l270 255l57 1l20 -373l-21 -1q-3 7 -28 89l-39 129q-4 15 -9 26l-336 -240z" />
<glyph unicode="&#xc3;" horiz-adv-x="1557" d="M-113 20l12 5l110 10l68 12q7 3 22 12q12 10 29 24l15 13l234 234q40 40 53 50.5t28 27.5t39.5 40t39.5 39q41 37 54 52q141 129 372 357l217 211q24 26 42 41q62 71 98 109q11 10 52 55q13 2 25 2t34 -2l1 -11q-7 -83 -7 -119q-7 -41 -8 -116l-13 -180q-2 -21 -6 -106 l-36 -469l1 -22l-2 -52v-15q-3 -12 -4 -17l-2 -86l1 -13l-3 -40q8 -14 43 -18q89 -9 132 -25l1 -13q0 -8 -5 -24q-36 6 -44 7l-123 8l-89 -2q-87 -10 -142 -10l-24 -3l-29 1q-44 -4 -52 -4q-15 0 -36 4l2 28q29 8 66 11q61 4 111 18q13 3 18 3h5q11 11 14 20q6 19 20.5 158 t15.5 212q1 36 2 53q-12 1 -58 1q-57 0 -355 -8l-202 -7q-7 -1 -21 -2q-14 -8 -34.5 -29t-51.5 -44q-43 -46 -131 -124q-35 -32 -60 -59l-75 -81q-14 -11 -25 -23q-8 -7 -16 -13q-7 -11 -14 -21q2 -11 2 -25q27 -15 73 -19q21 -2 45 -5q33 -6 49 -7q12 -2 21 -6 q-1 -16 -8 -34l-185 13l-138 -7q-31 -1 -46 -3h-10q-8 0 -35 -3l-48 -1q-12 0 -26 4q-3 15 -3 33zM655 532q16 -10 75 -10l51 1q36 2 74 2q22 0 33 -1h24l125 6l163 11q22 3 42 4q3 18 5 55q6 39 7 47l19 291l15 187q-13 -6 -58 -46q-21 -13 -56 -46l-231 -220l-40 -38 q-23 -25 -45.5 -44t-42.5 -40q-10 -11 -26.5 -24.5t-30.5 -28.5q-14 -11 -29 -28t-34 -35q-13 -13 -40 -43zM1253 1436v10q0 91 47.5 142.5t114.5 51.5q63 0 149.5 -55.5t105.5 -63.5q27 -11 43 -11q32 0 58 28t36 103h15q1 -15 1 -26q0 -76 -49 -127.5t-115 -51.5 q-32 0 -67 14t-109.5 63t-120.5 49q-33 0 -58.5 -28t-32.5 -98h-18z" />
<glyph unicode="&#xc4;" horiz-adv-x="1557" d="M-113 20l12 5l110 10l68 12q7 3 22 12q12 10 29 24l15 13l234 234q40 40 53 50.5t28 27.5t39.5 40t39.5 39q41 37 54 52q141 129 372 357l217 211q24 26 42 41q62 71 98 109q11 10 52 55q13 2 25 2t34 -2l1 -11q-7 -83 -7 -119q-7 -41 -8 -116l-13 -180q-2 -21 -6 -106 l-36 -469l1 -22l-2 -52v-15q-3 -12 -4 -17l-2 -86l1 -13l-3 -40q8 -14 43 -18q89 -9 132 -25l1 -13q0 -8 -5 -24q-36 6 -44 7l-123 8l-89 -2q-87 -10 -142 -10l-24 -3l-29 1q-44 -4 -52 -4q-15 0 -36 4l2 28q29 8 66 11q61 4 111 18q13 3 18 3h5q11 11 14 20q6 19 20.5 158 t15.5 212q1 36 2 53q-12 1 -58 1q-57 0 -355 -8l-202 -7q-7 -1 -21 -2q-14 -8 -34.5 -29t-51.5 -44q-43 -46 -131 -124q-35 -32 -60 -59l-75 -81q-14 -11 -25 -23q-8 -7 -16 -13q-7 -11 -14 -21q2 -11 2 -25q27 -15 73 -19q21 -2 45 -5q33 -6 49 -7q12 -2 21 -6 q-1 -16 -8 -34l-185 13l-138 -7q-31 -1 -46 -3h-10q-8 0 -35 -3l-48 -1q-12 0 -26 4q-3 15 -3 33zM655 532q16 -10 75 -10l51 1q36 2 74 2q22 0 33 -1h24l125 6l163 11q22 3 42 4q3 18 5 55q6 39 7 47l19 291l15 187q-13 -6 -58 -46q-21 -13 -56 -46l-231 -220l-40 -38 q-23 -25 -45.5 -44t-42.5 -40q-10 -11 -26.5 -24.5t-30.5 -28.5q-14 -11 -29 -28t-34 -35q-13 -13 -40 -43zM1233 1530q0 32 23.5 56t57.5 24t57.5 -23.5t23.5 -57.5t-24 -58t-57 -24t-57 24t-24 59zM1567 1530q0 32 23.5 55.5t57.5 23.5t58 -24t24 -57q0 -34 -24 -58 t-58 -24t-57.5 24t-23.5 60z" />
<glyph unicode="&#xc5;" horiz-adv-x="1557" d="M-113 20l12 5l110 10l68 12q7 3 22 12q12 10 29 24l15 13l234 234q40 40 53 50.5t28 27.5t39.5 40t39.5 39q41 37 54 52q141 129 372 357l217 211q24 26 42 41q62 71 98 109q11 10 52 55q13 2 25 2t34 -2l1 -11q-7 -83 -7 -119q-7 -41 -8 -116l-13 -180q-2 -21 -6 -106 l-36 -469l1 -22l-2 -52v-15q-3 -12 -4 -17l-2 -86l1 -13l-3 -40q8 -14 43 -18q89 -9 132 -25l1 -13q0 -8 -5 -24q-36 6 -44 7l-123 8l-89 -2q-87 -10 -142 -10l-24 -3l-29 1q-44 -4 -52 -4q-15 0 -36 4l2 28q29 8 66 11q61 4 111 18q13 3 18 3h5q11 11 14 20q6 19 20.5 158 t15.5 212q1 36 2 53q-12 1 -58 1q-57 0 -355 -8l-202 -7q-7 -1 -21 -2q-14 -8 -34.5 -29t-51.5 -44q-43 -46 -131 -124q-35 -32 -60 -59l-75 -81q-14 -11 -25 -23q-8 -7 -16 -13q-7 -11 -14 -21q2 -11 2 -25q27 -15 73 -19q21 -2 45 -5q33 -6 49 -7q12 -2 21 -6 q-1 -16 -8 -34l-185 13l-138 -7q-31 -1 -46 -3h-10q-8 0 -35 -3l-48 -1q-12 0 -26 4q-3 15 -3 33zM655 532q16 -10 75 -10l51 1q36 2 74 2q22 0 33 -1h24l125 6l163 11q22 3 42 4q3 18 5 55q6 39 7 47l19 291l15 187q-13 -6 -58 -46q-21 -13 -56 -46l-231 -220l-40 -38 q-23 -25 -45.5 -44t-42.5 -40q-10 -11 -26.5 -24.5t-30.5 -28.5q-14 -11 -29 -28t-34 -35q-13 -13 -40 -43zM1222 1454q0 70 48.5 119t117.5 49q68 0 116.5 -48.5t48.5 -117.5q0 -68 -48.5 -117t-116.5 -49q-69 0 -117.5 48t-48.5 116zM1267 1456q0 -51 35 -86.5t86 -35.5 t86.5 35.5t35.5 85.5q0 51 -36 87t-86 36t-85.5 -35.5t-35.5 -86.5z" />
<glyph unicode="&#xc6;" horiz-adv-x="1813" d="M-67 -8l1 38q23 6 60 15q82 19 102.5 31t53.5 51q5 6 106 155q135 201 281 405q102 142 159 238q35 59 78 120q80 112 121 193q-48 17 -163 27l-36 3l2 37q34 1 546 1q505 0 536 -1q-2 -24 -12 -88l-20 -129h-30q-13 119 -22 142q-7 16 -21 20q-46 14 -147 14 q-317 0 -384 -21q-13 -41 -24 -110l-79 -430q40 -1 57 -1q232 0 336 10q74 8 127 26q29 41 92 169q14 0 36 -4q-61 -218 -89 -375l-13 -68l-36 2q6 75 6 112q0 55 -25 72.5t-166 17.5q-168 0 -336 -7q-6 -29 -13 -69q-35 -200 -83 -422q-16 -76 -20 -99q92 -34 266 -34 q217 0 334 64.5t197 215.5q20 -3 42 -10q-4 -28 -26 -107q-35 -119 -68 -209q-23 1 -78 3l-162 3q-168 5 -296 5q-88 0 -194 -3q-211 -8 -308 -8q-60 0 -107 3l6 30q118 12 150 18q50 11 90 28q67 215 128 585l-322 -1q-52 -75 -80 -117q-210 -324 -237 -356 q-51 -61 -51 -97q0 -13 16 -23.5t104 -20.5q32 -4 49 -7v-34l-276 5q-77 0 -131 -6q-12 -1 -27 -2zM603 695q46 -2 129 -2q9 0 34 1q63 2 130 2l63 317q34 169 41 228l-1 6l-36 2l-244 -373q-97 -149 -116 -181z" />
<glyph unicode="&#xc7;" horiz-adv-x="1280" d="M144 460q0 124 38 211q80 184 183.5 292.5t244.5 192.5q102 61 237.5 113.5t279.5 52.5l176 2q64 0 135 -20q-4 -35 -21.5 -110.5t-29.5 -113.5l-29 1v26q0 109 -23.5 136.5t-99.5 27.5q-31 -1 -48 -1h-37q-27 1 -35 1q-71 0 -159 -27.5t-211 -103.5q-57 -36 -170 -142 q-44 -42 -151 -195l-34 -60l-43 -108q-16 -53 -22.5 -102t-6.5 -100q0 -68 15 -128t40 -92q53 -66 112.5 -109.5t137 -67.5t179.5 -24q105 0 173 30t119 85q17 18 96 141l33 -10l-54 -170q-14 -44 -22 -64q-65 -24 -134 -35q-132 -21 -257 -21q-183 0 -282 35t-193 122 q-67 62 -102 157.5t-35 177.5zM347 -410q0 18 9 29t17 11q12 0 29 -16q36 -34 65 -34q32 0 57.5 28t25.5 67q0 58 -49 94q-25 18 -30 26q-3 4 -3 18q4 16 14.5 37.5t69.5 158.5l27 -1q-8 -27 -25 -63.5t-25 -64.5l2 -13q5 -9 27 -33q44 -49 44 -124t-48 -124t-122 -49 q-46 0 -69 17q-16 13 -16 36z" />
<glyph unicode="&#xc8;" horiz-adv-x="1408" d="M-6 15l93 4l62 8q26 5 74 16q4 17 9 43q54 266 72 379l62 339q3 12 15 99l33 168q9 42 14 107q1 13 1 26q0 23 -17 34.5t-115 17.5l-64 4q1 18 7 37h122l149 1l83 -2l704 8q24 0 45 -2q14 -1 37 -1q-2 -26 -21 -124q-11 -59 -26 -98q-15 2 -25 13q-11 60 -12 78 q-3 48 -4 54.5t-10 30.5q-32 6 -56 7q-12 1 -31 3q-22 -1 -38 0l-26 -2l-32 1l-69 -5h-78l-56 -1l-20 1l-38 -1h-16l-37 -1h-25l-100 -3q-26 -2 -46 -7q-10 -3 -34 -14q-2 -22 -9 -57l-24 -127l-21 -118l-3 -29q-24 -120 -30 -170q-1 -14 -3 -30q51 7 282 20q282 16 300 21 q39 10 60.5 31t76.5 141l38 5q-9 -57 -42 -209q-5 -19 -10 -54q-4 -24 -18 -80q-5 -22 -7 -34q-5 -37 -11 -54q-18 2 -35 2l-1 5q0 5 3 19q5 20 5 70q0 66 -21 87t-92 21q-70 0 -167 -14q-74 -1 -210 -11l-70 -5l-19 -3q-28 0 -43 -3q-8 -1 -25 -2q-16 -82 -24 -115 q-21 -84 -29 -133l-60 -299q-3 -18 -3 -31q0 -10 7 -25q21 -18 40 -23.5t74 -6.5q13 0 50 -1q11 -1 17 -1l159 7l39 2l26 -1q59 0 133 12q19 3 48 6q128 16 228 90q74 56 119 170h14q8 0 17 -2q-11 -49 -87 -311q-107 -3 -311 -3l-147 -3h-43l-126 -4l-91 2l-97 -1l-220 1 l-49 -2l-86 2l-87 -1zM668 1686q0 20 14 33t36 13q27 0 55.5 -19t94.5 -105q98 -129 134 -185h-18q-258 174 -287 204t-29 59z" />
<glyph unicode="&#xc9;" horiz-adv-x="1408" d="M-6 15l93 4l62 8q26 5 74 16q4 17 9 43q54 266 72 379l62 339q3 12 15 99l33 168q9 42 14 107q1 13 1 26q0 23 -17 34.5t-115 17.5l-64 4q1 18 7 37h122l149 1l83 -2l704 8q24 0 45 -2q14 -1 37 -1q-2 -26 -21 -124q-11 -59 -26 -98q-15 2 -25 13q-11 60 -12 78 q-3 48 -4 54.5t-10 30.5q-32 6 -56 7q-12 1 -31 3q-22 -1 -38 0l-26 -2l-32 1l-69 -5h-78l-56 -1l-20 1l-38 -1h-16l-37 -1h-25l-100 -3q-26 -2 -46 -7q-10 -3 -34 -14q-2 -22 -9 -57l-24 -127l-21 -118l-3 -29q-24 -120 -30 -170q-1 -14 -3 -30q51 7 282 20q282 16 300 21 q39 10 60.5 31t76.5 141l38 5q-9 -57 -42 -209q-5 -19 -10 -54q-4 -24 -18 -80q-5 -22 -7 -34q-5 -37 -11 -54q-18 2 -35 2l-1 5q0 5 3 19q5 20 5 70q0 66 -21 87t-92 21q-70 0 -167 -14q-74 -1 -210 -11l-70 -5l-19 -3q-28 0 -43 -3q-8 -1 -25 -2q-16 -82 -24 -115 q-21 -84 -29 -133l-60 -299q-3 -18 -3 -31q0 -10 7 -25q21 -18 40 -23.5t74 -6.5q13 0 50 -1q11 -1 17 -1l159 7l39 2l26 -1q59 0 133 12q19 3 48 6q128 16 228 90q74 56 119 170h14q8 0 17 -2q-11 -49 -87 -311q-107 -3 -311 -3l-147 -3h-43l-126 -4l-91 2l-97 -1l-220 1 l-49 -2l-86 2l-87 -1zM907 1423q2 5 85.5 122.5t94.5 129.5q27 31 56 47q20 10 42 10q25 0 39.5 -13.5t14.5 -32.5q0 -43 -82 -100l-232 -164z" />
<glyph unicode="&#xca;" horiz-adv-x="1408" d="M-6 15l93 4l62 8q26 5 74 16q4 17 9 43q54 266 72 379l62 339q3 12 15 99l33 168q9 42 14 107q1 13 1 26q0 23 -17 34.5t-115 17.5l-64 4q1 18 7 37h122l149 1l83 -2l704 8q24 0 45 -2q14 -1 37 -1q-2 -26 -21 -124q-11 -59 -26 -98q-15 2 -25 13q-11 60 -12 78 q-3 48 -4 54.5t-10 30.5q-32 6 -56 7q-12 1 -31 3q-22 -1 -38 0l-26 -2l-32 1l-69 -5h-78l-56 -1l-20 1l-38 -1h-16l-37 -1h-25l-100 -3q-26 -2 -46 -7q-10 -3 -34 -14q-2 -22 -9 -57l-24 -127l-21 -118l-3 -29q-24 -120 -30 -170q-1 -14 -3 -30q51 7 282 20q282 16 300 21 q39 10 60.5 31t76.5 141l38 5q-9 -57 -42 -209q-5 -19 -10 -54q-4 -24 -18 -80q-5 -22 -7 -34q-5 -37 -11 -54q-18 2 -35 2l-1 5q0 5 3 19q5 20 5 70q0 66 -21 87t-92 21q-70 0 -167 -14q-74 -1 -210 -11l-70 -5l-19 -3q-28 0 -43 -3q-8 -1 -25 -2q-16 -82 -24 -115 q-21 -84 -29 -133l-60 -299q-3 -18 -3 -31q0 -10 7 -25q21 -18 40 -23.5t74 -6.5q13 0 50 -1q11 -1 17 -1l159 7l39 2l26 -1q59 0 133 12q19 3 48 6q128 16 228 90q74 56 119 170h14q8 0 17 -2q-11 -49 -87 -311q-107 -3 -311 -3l-147 -3h-43l-126 -4l-91 2l-97 -1l-220 1 l-49 -2l-86 2l-87 -1zM679 1394q17 20 117 115l270 255l57 1l20 -373l-21 -1q-3 7 -28 89l-39 129q-4 15 -9 26l-336 -240z" />
<glyph unicode="&#xcb;" horiz-adv-x="1408" d="M-6 15l93 4l62 8q26 5 74 16q4 17 9 43q54 266 72 379l62 339q3 12 15 99l33 168q9 42 14 107q1 13 1 26q0 23 -17 34.5t-115 17.5l-64 4q1 18 7 37h122l149 1l83 -2l704 8q24 0 45 -2q14 -1 37 -1q-2 -26 -21 -124q-11 -59 -26 -98q-15 2 -25 13q-11 60 -12 78 q-3 48 -4 54.5t-10 30.5q-32 6 -56 7q-12 1 -31 3q-22 -1 -38 0l-26 -2l-32 1l-69 -5h-78l-56 -1l-20 1l-38 -1h-16l-37 -1h-25l-100 -3q-26 -2 -46 -7q-10 -3 -34 -14q-2 -22 -9 -57l-24 -127l-21 -118l-3 -29q-24 -120 -30 -170q-1 -14 -3 -30q51 7 282 20q282 16 300 21 q39 10 60.5 31t76.5 141l38 5q-9 -57 -42 -209q-5 -19 -10 -54q-4 -24 -18 -80q-5 -22 -7 -34q-5 -37 -11 -54q-18 2 -35 2l-1 5q0 5 3 19q5 20 5 70q0 66 -21 87t-92 21q-70 0 -167 -14q-74 -1 -210 -11l-70 -5l-19 -3q-28 0 -43 -3q-8 -1 -25 -2q-16 -82 -24 -115 q-21 -84 -29 -133l-60 -299q-3 -18 -3 -31q0 -10 7 -25q21 -18 40 -23.5t74 -6.5q13 0 50 -1q11 -1 17 -1l159 7l39 2l26 -1q59 0 133 12q19 3 48 6q128 16 228 90q74 56 119 170h14q8 0 17 -2q-11 -49 -87 -311q-107 -3 -311 -3l-147 -3h-43l-126 -4l-91 2l-97 -1l-220 1 l-49 -2l-86 2l-87 -1zM724 1530q0 32 23.5 56t57.5 24t57.5 -23.5t23.5 -57.5t-24 -58t-57 -24t-57 24t-24 59zM1058 1530q0 32 23.5 55.5t57.5 23.5t58 -24t24 -57q0 -34 -24 -58t-58 -24t-57.5 24t-23.5 60z" />
<glyph unicode="&#xcc;" horiz-adv-x="661" d="M16 16q34 8 68 14q84 13 113 32q10 6 21 26t57 209q60 252 106 527l55 287l6 58q4 23 4 39q0 27 -16 37q-28 18 -108 18l-8 -1h-27q-16 0 -41 6q3 20 9 43l120 -6l187 -6l168 8l75 4v-35q-18 -5 -72 -11q-82 -10 -100 -22q-13 -10 -24 -34.5t-81 -355.5l-114 -547 q-45 -210 -45 -238q0 -6 4 -14q24 -15 102 -22q49 -5 81 -11l3 -31q-4 -4 -15 -4h-24q-47 -3 -156 -3l-177 4h-47q-6 0 -45 -2.5t-79 -2.5v34zM266 1686q0 20 14 33t36 13q27 0 55.5 -19t94.5 -105q98 -129 134 -185h-18q-258 174 -287 204t-29 59z" />
<glyph unicode="&#xcd;" horiz-adv-x="661" d="M16 16q34 8 68 14q84 13 113 32q10 6 21 26t57 209q60 252 106 527l55 287l6 58q4 23 4 39q0 27 -16 37q-28 18 -108 18l-8 -1h-27q-16 0 -41 6q3 20 9 43l120 -6l187 -6l168 8l75 4v-35q-18 -5 -72 -11q-82 -10 -100 -22q-13 -10 -24 -34.5t-81 -355.5l-114 -547 q-45 -210 -45 -238q0 -6 4 -14q24 -15 102 -22q49 -5 81 -11l3 -31q-4 -4 -15 -4h-24q-47 -3 -156 -3l-177 4h-47q-6 0 -45 -2.5t-79 -2.5v34zM505 1423q2 5 85.5 122.5t94.5 129.5q27 31 56 47q20 10 42 10q25 0 39.5 -13.5t14.5 -32.5q0 -43 -82 -100l-232 -164z" />
<glyph unicode="&#xce;" horiz-adv-x="661" d="M16 16q34 8 68 14q84 13 113 32q10 6 21 26t57 209q60 252 106 527l55 287l6 58q4 23 4 39q0 27 -16 37q-28 18 -108 18l-8 -1h-27q-16 0 -41 6q3 20 9 43l120 -6l187 -6l168 8l75 4v-35q-18 -5 -72 -11q-82 -10 -100 -22q-13 -10 -24 -34.5t-81 -355.5l-114 -547 q-45 -210 -45 -238q0 -6 4 -14q24 -15 102 -22q49 -5 81 -11l3 -31q-4 -4 -15 -4h-24q-47 -3 -156 -3l-177 4h-47q-6 0 -45 -2.5t-79 -2.5v34zM278 1394q17 20 117 115l270 255l57 1l20 -373l-21 -1q-3 7 -28 89l-39 129q-4 15 -9 26l-336 -240z" />
<glyph unicode="&#xcf;" horiz-adv-x="661" d="M16 16q34 8 68 14q84 13 113 32q10 6 21 26t57 209q60 252 106 527l55 287l6 58q4 23 4 39q0 27 -16 37q-28 18 -108 18l-8 -1h-27q-16 0 -41 6q3 20 9 43l120 -6l187 -6l168 8l75 4v-35q-18 -5 -72 -11q-82 -10 -100 -22q-13 -10 -24 -34.5t-81 -355.5l-114 -547 q-45 -210 -45 -238q0 -6 4 -14q24 -15 102 -22q49 -5 81 -11l3 -31q-4 -4 -15 -4h-24q-47 -3 -156 -3l-177 4h-47q-6 0 -45 -2.5t-79 -2.5v34zM418 1530q0 32 23.5 56t57.5 24t57.5 -23.5t23.5 -57.5t-24 -58t-57 -24t-57 24t-24 59zM752 1530q0 32 23.5 55.5t57.5 23.5 t58 -24t24 -57q0 -34 -24 -58t-58 -24t-57.5 24t-23.5 60z" />
<glyph unicode="&#xd0;" horiz-adv-x="1557" d="M69 -11l1 35l115 13q40 6 55 14q8 4 13 13q11 15 25 85q31 150 44 238q2 17 45 246h-184l10 46h184l59 274q3 14 20 112.5t23 116.5q9 27 9 41q0 16 -18 26.5t-116 15.5q-42 1 -69 8l-2 13q0 8 7 24q16 -1 67 -3q67 -2 82 -2q21 0 42 1q51 3 58 3q88 0 193 -2l153 1 l47 -3l107 1q87 0 166 -27.5t140.5 -74t115.5 -126.5q36 -53 55.5 -125t19.5 -131q0 -115 -52.5 -247t-151 -246t-235.5 -199q-99 -61 -250.5 -99.5t-278.5 -38.5l-185 2l-94 -6q-23 -1 -138 -1q-57 0 -82 2zM414 117q0 -43 30.5 -63.5t166.5 -20.5q11 0 92 13 q112 19 205 61t173.5 111t143 165t90.5 177q52 146 52 244q0 119 -57.5 220.5t-132.5 153t-208.5 69t-232.5 17.5q-65 0 -99 -9q-2 -18 -16.5 -81.5t-22 -117.5t-73.5 -377h463l-9 -46h-464q-53 -274 -72 -351q-29 -109 -29 -165z" />
<glyph unicode="&#xd1;" horiz-adv-x="1600" d="M-20 -2v36q20 4 63 7t67 7q63 5 93 31q19 17 25 49l59 276q15 74 24 105l3 25l47 258q2 24 16 72t21 148l15 74l13 127q0 18 -13 25q-29 16 -201 40l9 32l369 1q11 -13 18 -27q12 -20 54 -81l57 -81q34 -56 70 -110t67 -109q22 -37 309 -493q54 -85 75 -123 q39 -72 82 -141q13 62 21 130q42 193 49 260q4 37 10 70q5 22 13 81l16 112q1 19 24 173.5t23 210.5q0 16 -9 45q-29 19 -143 37q-40 7 -63 12q-3 15 -3 23v9l13 1q19 0 245 -12q39 -2 53 -2q66 0 131 6q46 4 71 4q-4 -23 -12 -44q-142 -13 -180 -25q-21 -7 -28.5 -17 t-23.5 -91q-22 -116 -29 -170t-15 -91q-10 -51 -13 -68l-39 -273l-70 -408q-21 -134 -22 -157h-24q-10 0 -31 1q-20 38 -47 79l-286 448q-19 29 -33 54l-72 108l-228 359q-47 72 -80 113q-8 15 -18 28.5t-24 36.5q-5 7 -14 22q-8 -30 -21 -109l-23 -128q-18 -111 -62 -337 l-23 -120l-24 -178q-9 -75 -23 -138t-14 -103q0 -12 13 -26q24 -10 65 -21q19 -6 58 -12q7 -1 107 -25l-9 -35q-24 5 -84 11q-140 14 -196 14q-26 0 -66 -2q-115 -5 -147 -5q-17 0 -55 1zM815 1436v10q0 91 47.5 142.5t114.5 51.5q63 0 149.5 -55.5t105.5 -63.5 q27 -11 43 -11q32 0 58 28t36 103h15q1 -15 1 -26q0 -76 -49 -127.5t-115 -51.5q-32 0 -67 14t-109.5 63t-120.5 49q-33 0 -58.5 -28t-32.5 -98h-18z" />
<glyph unicode="&#xd2;" horiz-adv-x="1387" d="M167 579q0 103 41 211.5t108 223.5q22 40 150 168q42 42 178 105q56 27 143 32q23 2 57.5 6t59.5 4q207 0 362 -196q115 -145 115 -398q0 -87 -36.5 -204t-107.5 -218t-164.5 -183.5t-197.5 -120t-207 -37.5q-130 0 -236.5 67t-172.5 176q-92 153 -92 364zM316 510 q0 -153 47 -271q24 -60 99 -139q33 -31 58 -43.5t106 -38.5q22 -6 60 -4l41 2q110 26 147 49q62 37 118 107q76 96 125.5 212t72.5 199q32 115 32 212q0 89 -21.5 173.5t-35.5 111.5q-36 68 -78.5 111t-98.5 68t-120 25q-104 0 -199.5 -52t-163 -140.5t-128.5 -262.5 t-61 -319zM656 1686q0 20 14 33t36 13q27 0 55.5 -19t94.5 -105q98 -129 134 -185h-18q-258 174 -287 204t-29 59z" />
<glyph unicode="&#xd3;" horiz-adv-x="1387" d="M167 579q0 103 41 211.5t108 223.5q22 40 150 168q42 42 178 105q56 27 143 32q23 2 57.5 6t59.5 4q207 0 362 -196q115 -145 115 -398q0 -87 -36.5 -204t-107.5 -218t-164.5 -183.5t-197.5 -120t-207 -37.5q-130 0 -236.5 67t-172.5 176q-92 153 -92 364zM316 510 q0 -153 47 -271q24 -60 99 -139q33 -31 58 -43.5t106 -38.5q22 -6 60 -4l41 2q110 26 147 49q62 37 118 107q76 96 125.5 212t72.5 199q32 115 32 212q0 89 -21.5 173.5t-35.5 111.5q-36 68 -78.5 111t-98.5 68t-120 25q-104 0 -199.5 -52t-163 -140.5t-128.5 -262.5 t-61 -319zM797 1423q2 5 85.5 122.5t94.5 129.5q27 31 56 47q20 10 42 10q25 0 39.5 -13.5t14.5 -32.5q0 -43 -82 -100l-232 -164z" />
<glyph unicode="&#xd4;" horiz-adv-x="1387" d="M167 579q0 103 41 211.5t108 223.5q22 40 150 168q42 42 178 105q56 27 143 32q23 2 57.5 6t59.5 4q207 0 362 -196q115 -145 115 -398q0 -87 -36.5 -204t-107.5 -218t-164.5 -183.5t-197.5 -120t-207 -37.5q-130 0 -236.5 67t-172.5 176q-92 153 -92 364zM316 510 q0 -153 47 -271q24 -60 99 -139q33 -31 58 -43.5t106 -38.5q22 -6 60 -4l41 2q110 26 147 49q62 37 118 107q76 96 125.5 212t72.5 199q32 115 32 212q0 89 -21.5 173.5t-35.5 111.5q-36 68 -78.5 111t-98.5 68t-120 25q-104 0 -199.5 -52t-163 -140.5t-128.5 -262.5 t-61 -319zM667 1394q17 20 117 115l270 255l57 1l20 -373l-21 -1q-3 7 -28 89l-39 129q-4 15 -9 26l-336 -240z" />
<glyph unicode="&#xd5;" horiz-adv-x="1387" d="M167 579q0 103 41 211.5t108 223.5q22 40 150 168q42 42 178 105q56 27 143 32q23 2 57.5 6t59.5 4q207 0 362 -196q115 -145 115 -398q0 -87 -36.5 -204t-107.5 -218t-164.5 -183.5t-197.5 -120t-207 -37.5q-130 0 -236.5 67t-172.5 176q-92 153 -92 364zM316 510 q0 -153 47 -271q24 -60 99 -139q33 -31 58 -43.5t106 -38.5q22 -6 60 -4l41 2q110 26 147 49q62 37 118 107q76 96 125.5 212t72.5 199q32 115 32 212q0 89 -21.5 173.5t-35.5 111.5q-36 68 -78.5 111t-98.5 68t-120 25q-104 0 -199.5 -52t-163 -140.5t-128.5 -262.5 t-61 -319zM701 1436v10q0 91 47.5 142.5t114.5 51.5q63 0 149.5 -55.5t105.5 -63.5q27 -11 43 -11q32 0 58 28t36 103h15q1 -15 1 -26q0 -76 -49 -127.5t-115 -51.5q-32 0 -67 14t-109.5 63t-120.5 49q-33 0 -58.5 -28t-32.5 -98h-18z" />
<glyph unicode="&#xd6;" horiz-adv-x="1387" d="M167 579q0 103 41 211.5t108 223.5q22 40 150 168q42 42 178 105q56 27 143 32q23 2 57.5 6t59.5 4q207 0 362 -196q115 -145 115 -398q0 -87 -36.5 -204t-107.5 -218t-164.5 -183.5t-197.5 -120t-207 -37.5q-130 0 -236.5 67t-172.5 176q-92 153 -92 364zM316 510 q0 -153 47 -271q24 -60 99 -139q33 -31 58 -43.5t106 -38.5q22 -6 60 -4l41 2q110 26 147 49q62 37 118 107q76 96 125.5 212t72.5 199q32 115 32 212q0 89 -21.5 173.5t-35.5 111.5q-36 68 -78.5 111t-98.5 68t-120 25q-104 0 -199.5 -52t-163 -140.5t-128.5 -262.5 t-61 -319zM653 1530q0 32 23.5 56t57.5 24t57.5 -23.5t23.5 -57.5t-24 -58t-57 -24t-57 24t-24 59zM987 1530q0 32 23.5 55.5t57.5 23.5t58 -24t24 -57q0 -34 -24 -58t-58 -24t-57.5 24t-23.5 60z" />
<glyph unicode="&#xd7;" horiz-adv-x="1365" d="M269 1060l61 63l426 -427l426 427l61 -63l-425 -427l421 -421l-62 -62l-421 422l-424 -422l-62 62l423 421z" />
<glyph unicode="&#xd8;" horiz-adv-x="1387" d="M167 579q0 103 41 211.5t108 223.5q22 40 149 167q43 43 179 106q56 27 143 32q23 2 57.5 6t59.5 4q165 0 303 -131l114 135l35 -31l-117 -137q69 -79 105.5 -178t36.5 -252q0 -87 -36.5 -204t-107.5 -218t-164.5 -183.5t-197.5 -120t-207 -37.5q-92 0 -181 38 q-62 26 -143 99l-121 -142l-35 30l123 144q-34 37 -70 105t-59 173q-15 68 -15 160zM316 510q0 -168 57 -295l769 907q-46 75 -118.5 118.5t-155.5 43.5q-104 0 -199.5 -52t-163 -140.5t-128.5 -262.5t-61 -319zM398 174q70 -97 150 -130.5t138 -29.5l41 2q110 26 147 49 q62 37 117 107q77 96 126.5 212t72.5 199q32 115 32 212q0 89 -18 160q-24 95 -38 123z" />
<glyph unicode="&#xd9;" horiz-adv-x="1472" d="M237 1255l15 53q37 -7 53 -7l179 -5q65 0 188 11q18 2 78 4q3 -19 3 -28q0 -5 -1 -16q-15 -3 -93 -14.5t-88 -18.5q-8 -5 -11 -12q-23 -49 -49 -209l-69 -414q-29 -192 -29 -268q0 -37 12 -100q8 -44 30 -77q30 -45 73 -76q114 -58 209 -58q65 0 102 7q136 26 203.5 66 t109.5 102t78 195q26 95 74 422q33 226 33 333q0 44 -33 77t-103 42q-37 4 -61 8l-1 8q0 12 5 34q135 -11 278 -11q50 0 121 6l19 1h43l1 -39q-14 -3 -60 -12q-62 -12 -86.5 -27t-41.5 -46q-27 -48 -37 -135l-43 -338q-20 -150 -60 -317q-28 -119 -75 -206q-30 -55 -98 -114 q-51 -44 -143.5 -75.5t-219.5 -31.5q-18 0 -69 5q-95 2 -180.5 35t-129.5 74t-73 109t-29 160q0 108 22.5 211.5t60.5 332.5l47 266q3 21 3 35q0 17 -13.5 27t-82.5 20q-45 7 -61 11zM702 1686q0 20 14 33t36 13q27 0 55.5 -19t94.5 -105q98 -129 134 -185h-18 q-258 174 -287 204t-29 59z" />
<glyph unicode="&#xda;" horiz-adv-x="1472" d="M237 1255l15 53q37 -7 53 -7l179 -5q65 0 188 11q18 2 78 4q3 -19 3 -28q0 -5 -1 -16q-15 -3 -93 -14.5t-88 -18.5q-8 -5 -11 -12q-23 -49 -49 -209l-69 -414q-29 -192 -29 -268q0 -37 12 -100q8 -44 30 -77q30 -45 73 -76q114 -58 209 -58q65 0 102 7q136 26 203.5 66 t109.5 102t78 195q26 95 74 422q33 226 33 333q0 44 -33 77t-103 42q-37 4 -61 8l-1 8q0 12 5 34q135 -11 278 -11q50 0 121 6l19 1h43l1 -39q-14 -3 -60 -12q-62 -12 -86.5 -27t-41.5 -46q-27 -48 -37 -135l-43 -338q-20 -150 -60 -317q-28 -119 -75 -206q-30 -55 -98 -114 q-51 -44 -143.5 -75.5t-219.5 -31.5q-18 0 -69 5q-95 2 -180.5 35t-129.5 74t-73 109t-29 160q0 108 22.5 211.5t60.5 332.5l47 266q3 21 3 35q0 17 -13.5 27t-82.5 20q-45 7 -61 11zM851 1423q2 5 85.5 122.5t94.5 129.5q27 31 56 47q20 10 42 10q25 0 39.5 -13.5 t14.5 -32.5q0 -43 -82 -100l-232 -164z" />
<glyph unicode="&#xdb;" horiz-adv-x="1472" d="M237 1255l15 53q37 -7 53 -7l179 -5q65 0 188 11q18 2 78 4q3 -19 3 -28q0 -5 -1 -16q-15 -3 -93 -14.5t-88 -18.5q-8 -5 -11 -12q-23 -49 -49 -209l-69 -414q-29 -192 -29 -268q0 -37 12 -100q8 -44 30 -77q30 -45 73 -76q114 -58 209 -58q65 0 102 7q136 26 203.5 66 t109.5 102t78 195q26 95 74 422q33 226 33 333q0 44 -33 77t-103 42q-37 4 -61 8l-1 8q0 12 5 34q135 -11 278 -11q50 0 121 6l19 1h43l1 -39q-14 -3 -60 -12q-62 -12 -86.5 -27t-41.5 -46q-27 -48 -37 -135l-43 -338q-20 -150 -60 -317q-28 -119 -75 -206q-30 -55 -98 -114 q-51 -44 -143.5 -75.5t-219.5 -31.5q-18 0 -69 5q-95 2 -180.5 35t-129.5 74t-73 109t-29 160q0 108 22.5 211.5t60.5 332.5l47 266q3 21 3 35q0 17 -13.5 27t-82.5 20q-45 7 -61 11zM713 1394q17 20 117 115l270 255l57 1l20 -373l-21 -1q-3 7 -28 89l-39 129q-4 15 -9 26 l-336 -240z" />
<glyph unicode="&#xdc;" horiz-adv-x="1472" d="M237 1255l15 53q37 -7 53 -7l179 -5q65 0 188 11q18 2 78 4q3 -19 3 -28q0 -5 -1 -16q-15 -3 -93 -14.5t-88 -18.5q-8 -5 -11 -12q-23 -49 -49 -209l-69 -414q-29 -192 -29 -268q0 -37 12 -100q8 -44 30 -77q30 -45 73 -76q114 -58 209 -58q65 0 102 7q136 26 203.5 66 t109.5 102t78 195q26 95 74 422q33 226 33 333q0 44 -33 77t-103 42q-37 4 -61 8l-1 8q0 12 5 34q135 -11 278 -11q50 0 121 6l19 1h43l1 -39q-14 -3 -60 -12q-62 -12 -86.5 -27t-41.5 -46q-27 -48 -37 -135l-43 -338q-20 -150 -60 -317q-28 -119 -75 -206q-30 -55 -98 -114 q-51 -44 -143.5 -75.5t-219.5 -31.5q-18 0 -69 5q-95 2 -180.5 35t-129.5 74t-73 109t-29 160q0 108 22.5 211.5t60.5 332.5l47 266q3 21 3 35q0 17 -13.5 27t-82.5 20q-45 7 -61 11zM759 1530q0 32 23.5 56t57.5 24t57.5 -23.5t23.5 -57.5t-24 -58t-57 -24t-57 24t-24 59z M1093 1530q0 32 23.5 55.5t57.5 23.5t58 -24t24 -57q0 -34 -24 -58t-58 -24t-57.5 24t-23.5 60z" />
<glyph unicode="&#xdd;" horiz-adv-x="1323" d="M146 1290l1 27l16 1q11 0 42 -3l133 -12q118 0 283 9q18 1 24 1h11q5 -16 5 -24q0 -5 -2 -15l-138 -23q-21 -7 -21 -22q0 -6 3 -14l49 -98q71 -142 120 -258q32 -76 101 -183q195 196 234.5 230.5t82.5 79.5q61 62 116 114q86 81 86 118q0 22 -20 34q-44 25 -151 26 q-11 1 -33 1l-1 11q0 8 5 23l24 1h132l103 -5q59 0 125 5q43 3 81 3q-1 -14 -1 -22q0 -11 -1 -18q-11 -3 -22 -5q-16 -3 -86 -23q-35 -16 -65 -39q-23 -17 -64 -60q-18 -16 -28 -26q-61 -61 -93 -89t-126 -120l-266 -257q-5 -20 -12 -51q-13 -52 -25 -109q-17 -77 -26 -116 l-21 -88q-9 -41 -15 -61q-19 -70 -19 -130q0 -34 15 -46q29 -20 103 -21q30 0 49.5 -2.5t35.5 -3.5q2 -8 2 -13q0 -6 -4 -18q-49 -4 -139 -4l-68 4q-30 2 -58 2q-18 0 -64 -2q-149 -6 -238 -6q-6 0 -32 1l7 30l189 30q16 5 22 12q14 16 28 71l44 156q57 251 69 322 q-33 57 -154 303q-60 122 -84 162q-61 128 -77 151q-11 17 -20 21q-4 2 -105 18q-43 3 -60 6q-2 7 -2 14zM783 1423q2 5 85.5 122.5t94.5 129.5q27 31 56 47q20 10 42 10q25 0 39.5 -13.5t14.5 -32.5q0 -43 -82 -100l-232 -164z" />
<glyph unicode="&#xde;" horiz-adv-x="1131" d="M47 -12v40q9 4 19 4q97 8 139 23q28 10 41 29q6 9 25 89q6 44 56 265q7 47 20 119q4 19 20 126q2 17 23 124l23 129l4 39q44 206 44 261q0 6 -6 17q-15 10 -51 13q-8 1 -26 3l-50 1l-23 -2l-16 -1q-10 0 -31 5q1 12 12 44q14 0 120.5 -6t142.5 -6q32 0 89 3l6 -1 q124 4 182 10v-39q-9 -4 -19 -5q-122 -10 -159 -32q-25 -15 -32 -50l-3 -12l-32 -167q65 14 162 14q93 0 173 -34q6 -3 17 -7l70 -40q57 -45 75 -68q33 -41 55.5 -97.5t22.5 -112.5q0 -38 -7 -64l-24 -88q-15 -36 -43 -77q-13 -20 -46 -48q-13 -11 -24 -22q-57 -44 -134 -79 q-39 -17 -89 -23q-98 -13 -109 -13q-102 0 -231 56q-2 -11 -8 -39t-10.5 -61t-10.5 -54q-11 -38 -11 -60q0 -16 16.5 -28.5t72.5 -17.5t78 -16q-1 -16 -1 -24q0 -14 -3 -21q-26 0 -119 9l-196 3q-92 0 -194 -11zM437 341q58 -22 87 -28q47 -9 95 -11q14 1 33 3q58 4 115 32 q80 50 101 70q42 39 71 90t36 82q12 61 12 106q0 69 -44 145t-116 113t-173 37q-55 0 -97 -9l-69 -382l-48 -230z" />
<glyph unicode="&#xdf;" horiz-adv-x="853" d="M-298 -419q0 26 25 49q25 16 45 16q29 0 47.5 -20t18.5 -59q0 -13 -1 -30l3 -7q5 -3 22 -3q49 0 85.5 25.5t68.5 92.5q46 96 57 168l164 622q84 286 203 521q63 124 168 238q47 51 132 93t163 42q94 0 147 -50t53 -129q0 -54 -25.5 -103.5t-82.5 -94.5 q-38 -29 -126.5 -78.5t-111.5 -65.5q-42 -32 -59 -61t-17 -64q0 -46 61 -215q28 -78 37 -120.5t9 -89.5q0 -54 -19.5 -105t-56.5 -101q-22 -29 -63.5 -55t-80.5 -26q-48 0 -113 23q-48 17 -68.5 46t-20.5 62q0 12 8 34q26 27 49 27q41 0 58 -37q9 -53 39 -80q29 -27 61 -27 q26 0 56 21t40 56q19 60 19 92q0 47 -11 102q-7 42 -37 140t-37.5 134.5t-7.5 69.5q0 41 17 74q22 46 84 110q21 21 113 92q136 105 175 159.5t39 101.5q0 51 -32 85.5t-80 34.5q-108 0 -215 -91.5t-213.5 -332.5t-172.5 -512q-14 -56 -57 -210l-57 -209q-63 -265 -150 -357 q-88 -92 -194 -92q-79 0 -118.5 30.5t-39.5 63.5z" />
<glyph unicode="&#xe0;" horiz-adv-x="832" d="M78 90q0 64 28 142q48 133 97 197q84 111 166.5 176t151.5 95q91 40 158 40q22 0 42 -4t38 -12q10 17 13 27q12 30 24 39q28 3 41 3q17 0 33 -7l3 -12q0 -6 -5 -18q-3 -6 -13 -38l-8 -20l-66 -179q-42 -121 -73.5 -193t-54.5 -146.5t-42 -106.5l-4 -10q0 -6 11 -16 q45 25 76 54q80 75 95 93q11 13 21 24q12 -10 22 -21q-28 -39 -94 -106t-119 -95q-41 -21 -77 -21q-23 0 -34.5 10t-11.5 26q0 14 10 52q25 66 35 87t27 65q10 27 41 94q-19 -19 -47 -56q-81 -102 -186 -193q-24 -21 -116 -67q-34 -13 -80 -17q-39 1 -52 8q-24 13 -39 41 q-11 21 -11 65zM193 138q0 -37 15 -55t38 -18q8 0 37 3q24 6 42 17q11 6 78 55q122 123 138 141q35 39 79 107q12 17 51 94l26 69q14 61 14 70q0 28 -23 53q-15 15 -49 15q-39 0 -67 -13q-63 -30 -115 -76q-70 -63 -135 -161.5t-92 -164.5q-37 -91 -37 -136zM579 1208 q0 20 14 33t36 13q27 0 55.5 -19t94.5 -105q98 -129 134 -185h-18q-258 174 -287 204t-29 59z" />
<glyph unicode="&#xe1;" horiz-adv-x="832" d="M78 90q0 64 28 142q48 133 97 197q84 111 166.5 176t151.5 95q91 40 158 40q22 0 42 -4t38 -12q10 17 13 27q12 30 24 39q28 3 41 3q17 0 33 -7l3 -12q0 -6 -5 -18q-3 -6 -13 -38l-8 -20l-66 -179q-42 -121 -73.5 -193t-54.5 -146.5t-42 -106.5l-4 -10q0 -6 11 -16 q45 25 76 54q80 75 95 93q11 13 21 24q12 -10 22 -21q-28 -39 -94 -106t-119 -95q-41 -21 -77 -21q-23 0 -34.5 10t-11.5 26q0 14 10 52q25 66 35 87t27 65q10 27 41 94q-19 -19 -47 -56q-81 -102 -186 -193q-24 -21 -116 -67q-34 -13 -80 -17q-39 1 -52 8q-24 13 -39 41 q-11 21 -11 65zM193 138q0 -37 15 -55t38 -18q8 0 37 3q24 6 42 17q11 6 78 55q122 123 138 141q35 39 79 107q12 17 51 94l26 69q14 61 14 70q0 28 -23 53q-15 15 -49 15q-39 0 -67 -13q-63 -30 -115 -76q-70 -63 -135 -161.5t-92 -164.5q-37 -91 -37 -136zM578 944 q2 5 85.5 122.5t94.5 129.5q27 31 56 47q20 10 42 10q25 0 39.5 -13.5t14.5 -32.5q0 -43 -82 -100l-232 -164z" />
<glyph unicode="&#xe2;" horiz-adv-x="832" d="M78 90q0 64 28 142q48 133 97 197q84 111 166.5 176t151.5 95q91 40 158 40q22 0 42 -4t38 -12q10 17 13 27q12 30 24 39q28 3 41 3q17 0 33 -7l3 -12q0 -6 -5 -18q-3 -6 -13 -38l-8 -20l-66 -179q-42 -121 -73.5 -193t-54.5 -146.5t-42 -106.5l-4 -10q0 -6 11 -16 q45 25 76 54q80 75 95 93q11 13 21 24q12 -10 22 -21q-28 -39 -94 -106t-119 -95q-41 -21 -77 -21q-23 0 -34.5 10t-11.5 26q0 14 10 52q25 66 35 87t27 65q10 27 41 94q-19 -19 -47 -56q-81 -102 -186 -193q-24 -21 -116 -67q-34 -13 -80 -17q-39 1 -52 8q-24 13 -39 41 q-11 21 -11 65zM193 138q0 -37 15 -55t38 -18q8 0 37 3q24 6 42 17q11 6 78 55q122 123 138 141q35 39 79 107q12 17 51 94l26 69q14 61 14 70q0 28 -23 53q-15 15 -49 15q-39 0 -67 -13q-63 -30 -115 -76q-70 -63 -135 -161.5t-92 -164.5q-37 -91 -37 -136zM416 904 q17 20 117 115l270 255l57 1l20 -373l-21 -1q-3 7 -28 89l-39 129q-4 15 -9 26l-336 -240z" />
<glyph unicode="&#xe3;" horiz-adv-x="832" d="M78 90q0 64 28 142q48 133 97 197q84 111 166.5 176t151.5 95q91 40 158 40q22 0 42 -4t38 -12q10 17 13 27q12 30 24 39q28 3 41 3q17 0 33 -7l3 -12q0 -6 -5 -18q-3 -6 -13 -38l-8 -20l-66 -179q-42 -121 -73.5 -193t-54.5 -146.5t-42 -106.5l-4 -10q0 -6 11 -16 q45 25 76 54q80 75 95 93q11 13 21 24q12 -10 22 -21q-28 -39 -94 -106t-119 -95q-41 -21 -77 -21q-23 0 -34.5 10t-11.5 26q0 14 10 52q25 66 35 87t27 65q10 27 41 94q-19 -19 -47 -56q-81 -102 -186 -193q-24 -21 -116 -67q-34 -13 -80 -17q-39 1 -52 8q-24 13 -39 41 q-11 21 -11 65zM193 138q0 -37 15 -55t38 -18q8 0 37 3q24 6 42 17q11 6 78 55q122 123 138 141q35 39 79 107q12 17 51 94l26 69q14 61 14 70q0 28 -23 53q-15 15 -49 15q-39 0 -67 -13q-63 -30 -115 -76q-70 -63 -135 -161.5t-92 -164.5q-37 -91 -37 -136zM406 1002v10 q0 91 47.5 142.5t114.5 51.5q63 0 149.5 -55.5t105.5 -63.5q27 -11 43 -11q32 0 58 28t36 103h15q1 -15 1 -26q0 -76 -49 -127.5t-115 -51.5q-32 0 -67 14t-109.5 63t-120.5 49q-33 0 -58.5 -28t-32.5 -98h-18z" />
<glyph unicode="&#xe4;" horiz-adv-x="832" d="M78 90q0 64 28 142q48 133 97 197q84 111 166.5 176t151.5 95q91 40 158 40q22 0 42 -4t38 -12q10 17 13 27q12 30 24 39q28 3 41 3q17 0 33 -7l3 -12q0 -6 -5 -18q-3 -6 -13 -38l-8 -20l-66 -179q-42 -121 -73.5 -193t-54.5 -146.5t-42 -106.5l-4 -10q0 -6 11 -16 q45 25 76 54q80 75 95 93q11 13 21 24q12 -10 22 -21q-28 -39 -94 -106t-119 -95q-41 -21 -77 -21q-23 0 -34.5 10t-11.5 26q0 14 10 52q25 66 35 87t27 65q10 27 41 94q-19 -19 -47 -56q-81 -102 -186 -193q-24 -21 -116 -67q-34 -13 -80 -17q-39 1 -52 8q-24 13 -39 41 q-11 21 -11 65zM193 138q0 -37 15 -55t38 -18q8 0 37 3q24 6 42 17q11 6 78 55q122 123 138 141q35 39 79 107q12 17 51 94l26 69q14 61 14 70q0 28 -23 53q-15 15 -49 15q-39 0 -67 -13q-63 -30 -115 -76q-70 -63 -135 -161.5t-92 -164.5q-37 -91 -37 -136zM518 1097 q0 32 23.5 56t57.5 24t57.5 -23.5t23.5 -57.5t-24 -58t-57 -24t-57 24t-24 59zM852 1097q0 32 23.5 55.5t57.5 23.5t58 -24t24 -57q0 -34 -24 -58t-58 -24t-57.5 24t-23.5 60z" />
<glyph unicode="&#xe5;" horiz-adv-x="832" d="M78 90q0 64 28 142q48 133 97 197q84 111 166.5 176t151.5 95q91 40 158 40q22 0 42 -4t38 -12q10 17 13 27q12 30 24 39q28 3 41 3q17 0 33 -7l3 -12q0 -6 -5 -18q-3 -6 -13 -38l-8 -20l-66 -179q-42 -121 -73.5 -193t-54.5 -146.5t-42 -106.5l-4 -10q0 -6 11 -16 q45 25 76 54q80 75 95 93q11 13 21 24q12 -10 22 -21q-28 -39 -94 -106t-119 -95q-41 -21 -77 -21q-23 0 -34.5 10t-11.5 26q0 14 10 52q25 66 35 87t27 65q10 27 41 94q-19 -19 -47 -56q-81 -102 -186 -193q-24 -21 -116 -67q-34 -13 -80 -17q-39 1 -52 8q-24 13 -39 41 q-11 21 -11 65zM193 138q0 -37 15 -55t38 -18q8 0 37 3q24 6 42 17q11 6 78 55q122 123 138 141q35 39 79 107q12 17 51 94l26 69q14 61 14 70q0 28 -23 53q-15 15 -49 15q-39 0 -67 -13q-63 -30 -115 -76q-70 -63 -135 -161.5t-92 -164.5q-37 -91 -37 -136zM542 1094 q0 70 48.5 119t117.5 49q68 0 116.5 -48.5t48.5 -117.5q0 -68 -48.5 -117t-116.5 -49q-69 0 -117.5 48t-48.5 116zM587 1096q0 -51 35 -86.5t86 -35.5t86.5 35.5t35.5 85.5q0 51 -36 87t-86 36t-85.5 -35.5t-35.5 -86.5z" />
<glyph unicode="&#xe6;" horiz-adv-x="1003" d="M54 107q0 92 45 191.5t158 225.5q85 94 144 141t126 75.5t121 28.5q38 0 89 -16q14 30 41 77q13 2 19 2q7 0 21 -2q1 -14 1 -21q0 -23 -16 -86q101 74 154 74q35 0 65.5 -35t30.5 -93q0 -72 -41 -133t-116 -107.5t-249 -119.5q-61 -147 -61 -216q0 -29 14 -46 q10 -13 28 -13q47 0 120.5 46t155.5 147q17 20 28 32q16 -8 25 -16q-25 -52 -94.5 -122t-143.5 -108t-145 -38q-45 0 -71.5 26.5t-26.5 64.5q0 40 21 110q-138 -129 -207 -166.5t-132 -37.5q-48 0 -76 32.5t-28 102.5zM160 117q0 -34 19.5 -54.5t49.5 -20.5q25 0 69 25 q88 48 153 119q37 39 87 138q133 266 177 378q-23 25 -46 25q-40 0 -90 -25q-71 -35 -143.5 -106t-153.5 -188q-55 -79 -88.5 -159.5t-33.5 -131.5zM667 364q38 6 111 47q99 57 165 146q50 67 50 138q0 31 -15 48.5t-35 17.5q-27 0 -61 -30q-53 -46 -125 -177.5t-90 -189.5z " />
<glyph unicode="&#xe7;" horiz-adv-x="555" d="M-16 -404q0 18 9 29t17 11q12 0 29 -16q36 -34 65 -34q32 0 57.5 28t25.5 67q0 58 -49 94q-25 18 -30 26q-3 4 -3 18q4 16 14.5 37.5t69.5 158.5l27 -1q-8 -27 -25 -63.5t-25 -64.5l2 -13q5 -9 27 -33q44 -49 44 -124t-48 -124t-122 -49q-46 0 -69 17q-16 13 -16 36z M99 147q0 80 38.5 195t113.5 222t122.5 153.5t116.5 79.5q47 23 88 23q42 0 74.5 -36.5t32.5 -85.5q0 -30 -15.5 -46.5t-36.5 -16.5q-13 0 -32 6q-15 12 -23 22q-5 7 -19 38.5t-21 38.5q-12 11 -25 11q-35 0 -75 -43q-74 -79 -149.5 -261t-75.5 -302q0 -45 13 -63 q10 -13 29 -13q39 0 86 42q63 56 128 156q19 4 29 4l15 -1q-4 -18 -56 -95q-75 -110 -138 -153.5t-116 -43.5q-46 0 -71 33q-33 43 -33 136z" />
<glyph unicode="&#xe8;" horiz-adv-x="597" d="M104 189q0 48 14.5 115t33.5 112q30 70 67 132l77 112q75 80 84 88q35 30 70.5 45.5t73.5 15.5q49 0 86 -41t37 -103q0 -55 -28.5 -108.5t-61.5 -78.5l-83 -54q-14 -7 -75 -25.5t-157 -37.5q-33 -91 -33 -184q0 -68 32 -109q21 -28 57 -28q22 0 39 9q37 19 63.5 45 t55.5 68t47 94h14q12 0 27 -2q-30 -112 -148 -220q-74 -67 -153 -67q-53 0 -90 48q-49 63 -49 174zM259 411q32 -1 100 25q37 14 98 55q24 16 55 54.5t47 80t16 85.5q0 29 -17 48t-38 19q-27 0 -64 -31q-62 -54 -130 -181q-51 -97 -67 -155zM353 1208q0 20 14 33t36 13 q27 0 55.5 -19t94.5 -105q98 -129 134 -185h-18q-258 174 -287 204t-29 59z" />
<glyph unicode="&#xe9;" horiz-adv-x="597" d="M104 189q0 48 14.5 115t33.5 112q30 70 67 132l77 112q75 80 84 88q35 30 70.5 45.5t73.5 15.5q49 0 86 -41t37 -103q0 -55 -28.5 -108.5t-61.5 -78.5l-83 -54q-14 -7 -75 -25.5t-157 -37.5q-33 -91 -33 -184q0 -68 32 -109q21 -28 57 -28q22 0 39 9q37 19 63.5 45 t55.5 68t47 94h14q12 0 27 -2q-30 -112 -148 -220q-74 -67 -153 -67q-53 0 -90 48q-49 63 -49 174zM259 411q32 -1 100 25q37 14 98 55q24 16 55 54.5t47 80t16 85.5q0 29 -17 48t-38 19q-27 0 -64 -31q-62 -54 -130 -181q-51 -97 -67 -155zM452 944q2 5 85.5 122.5 t94.5 129.5q27 31 56 47q20 10 42 10q25 0 39.5 -13.5t14.5 -32.5q0 -43 -82 -100l-232 -164z" />
<glyph unicode="&#xea;" horiz-adv-x="597" d="M104 189q0 48 14.5 115t33.5 112q30 70 67 132l77 112q75 80 84 88q35 30 70.5 45.5t73.5 15.5q49 0 86 -41t37 -103q0 -55 -28.5 -108.5t-61.5 -78.5l-83 -54q-14 -7 -75 -25.5t-157 -37.5q-33 -91 -33 -184q0 -68 32 -109q21 -28 57 -28q22 0 39 9q37 19 63.5 45 t55.5 68t47 94h14q12 0 27 -2q-30 -112 -148 -220q-74 -67 -153 -67q-53 0 -90 48q-49 63 -49 174zM259 411q32 -1 100 25q37 14 98 55q24 16 55 54.5t47 80t16 85.5q0 29 -17 48t-38 19q-27 0 -64 -31q-62 -54 -130 -181q-51 -97 -67 -155zM289 904q17 20 117 115l270 255 l57 1l20 -373l-21 -1q-3 7 -28 89l-39 129q-4 15 -9 26l-336 -240z" />
<glyph unicode="&#xeb;" horiz-adv-x="597" d="M104 189q0 48 14.5 115t33.5 112q30 70 67 132l77 112q75 80 84 88q35 30 70.5 45.5t73.5 15.5q49 0 86 -41t37 -103q0 -55 -28.5 -108.5t-61.5 -78.5l-83 -54q-14 -7 -75 -25.5t-157 -37.5q-33 -91 -33 -184q0 -68 32 -109q21 -28 57 -28q22 0 39 9q37 19 63.5 45 t55.5 68t47 94h14q12 0 27 -2q-30 -112 -148 -220q-74 -67 -153 -67q-53 0 -90 48q-49 63 -49 174zM259 411q32 -1 100 25q37 14 98 55q24 16 55 54.5t47 80t16 85.5q0 29 -17 48t-38 19q-27 0 -64 -31q-62 -54 -130 -181q-51 -97 -67 -155zM322 1097q0 32 23.5 56t57.5 24 t57.5 -23.5t23.5 -57.5t-24 -58t-57 -24t-57 24t-24 59zM656 1097q0 32 23.5 55.5t57.5 23.5t58 -24t24 -57q0 -34 -24 -58t-58 -24t-57.5 24t-23.5 60z" />
<glyph unicode="&#xec;" horiz-adv-x="469" d="M78 27q0 84 114 291q137 246 170 314q15 32 23 46q14 23 14 33q0 9 -14 29q-78 -21 -179 -132l-54 -10q61 90 160 153.5t161 63.5q18 0 29.5 -11.5t11.5 -29.5q0 -11 -2.5 -22t-27.5 -80q-15 -39 -121 -249l-145 -266q-18 -35 -22.5 -50t-4.5 -37q6 -7 13 -7q33 0 71 35 q99 89 133 148q18 0 39 -3q-28 -52 -85.5 -121t-119 -105t-104.5 -36q-27 0 -43.5 14.5t-16.5 31.5zM285 1208q0 20 14 33t36 13q27 0 55.5 -19t94.5 -105q98 -129 134 -185h-18q-258 174 -287 204t-29 59z" />
<glyph unicode="&#xed;" horiz-adv-x="469" d="M78 27q0 84 114 291q137 246 170 314q15 32 23 46q14 23 14 33q0 9 -14 29q-78 -21 -179 -132l-54 -10q61 90 160 153.5t161 63.5q18 0 29.5 -11.5t11.5 -29.5q0 -11 -2.5 -22t-27.5 -80q-15 -39 -121 -249l-145 -266q-18 -35 -22.5 -50t-4.5 -37q6 -7 13 -7q33 0 71 35 q99 89 133 148q18 0 39 -3q-28 -52 -85.5 -121t-119 -105t-104.5 -36q-27 0 -43.5 14.5t-16.5 31.5zM383 944q2 5 85.5 122.5t94.5 129.5q27 31 56 47q20 10 42 10q25 0 39.5 -13.5t14.5 -32.5q0 -43 -82 -100l-232 -164z" />
<glyph unicode="&#xee;" horiz-adv-x="469" d="M78 27q0 84 114 291q137 246 170 314q15 32 23 46q14 23 14 33q0 9 -14 29q-78 -21 -179 -132l-54 -10q61 90 160 153.5t161 63.5q18 0 29.5 -11.5t11.5 -29.5q0 -11 -2.5 -22t-27.5 -80q-15 -39 -121 -249l-145 -266q-18 -35 -22.5 -50t-4.5 -37q6 -7 13 -7q33 0 71 35 q99 89 133 148q18 0 39 -3q-28 -52 -85.5 -121t-119 -105t-104.5 -36q-27 0 -43.5 14.5t-16.5 31.5zM235 904q17 20 117 115l270 255l57 1l20 -373l-21 -1q-3 7 -28 89l-39 129q-4 15 -9 26l-336 -240z" />
<glyph unicode="&#xef;" horiz-adv-x="469" d="M78 27q0 84 114 291q137 246 170 314q15 32 23 46q14 23 14 33q0 9 -14 29q-78 -21 -179 -132l-54 -10q61 90 160 153.5t161 63.5q18 0 29.5 -11.5t11.5 -29.5q0 -11 -2.5 -22t-27.5 -80q-15 -39 -121 -249l-145 -266q-18 -35 -22.5 -50t-4.5 -37q6 -7 13 -7q33 0 71 35 q99 89 133 148q18 0 39 -3q-28 -52 -85.5 -121t-119 -105t-104.5 -36q-27 0 -43.5 14.5t-16.5 31.5zM278 1097q0 32 23.5 56t57.5 24t57.5 -23.5t23.5 -57.5t-24 -58t-57 -24t-57 24t-24 59zM612 1097q0 32 23.5 55.5t57.5 23.5t58 -24t24 -57q0 -34 -24 -58t-58 -24 t-57.5 24t-23.5 60z" />
<glyph unicode="&#xf0;" horiz-adv-x="811" d="M120 214q0 235 168 437q133 160 268 160q19 0 43.5 -6.5t53.5 -19.5q-3 127 -41 253l-181 -49l-15 37l180 55l-54 114q-16 26 -69 96l33 24q39 -32 80 -92t67 -125l205 56l14 -38l-201 -58q79 -213 79 -403q0 -196 -80 -363t-180.5 -243t-198.5 -76q-73 0 -122 59.5 t-49 181.5zM206 103q0 -41 23 -64t70 -23q48 0 92 42q71 67 165 274.5t94 339.5q0 48 -19.5 71.5t-45.5 23.5q-31 0 -67 -21.5t-86.5 -80t-92.5 -134.5q-56 -99 -94.5 -224.5t-38.5 -203.5z" />
<glyph unicode="&#xf1;" horiz-adv-x="875" d="M93 -10q0 8 10 36q22 65 108 274l23 54l128 339q-2 8 -5.5 11t-8.5 3q-52 0 -162 -164q-11 -1 -16 -1q-6 0 -20 1q21 42 68.5 106t101 106.5t101.5 63.5q16 7 29 7q5 0 15 -1q18 -18 18 -37q0 -12 -2.5 -24t-10.5 -37q-30 -86 -44 -121l-57 -148q-20 -51 -39 -108 q8 10 14 19q93 136 200.5 260.5t177.5 166.5q50 31 95 31q34 0 53 -18.5t19 -47.5q0 -18 -4 -35q-7 -38 -31 -106t-126 -295l-100 -231l-4 -13q0 -6 7 -18q56 12 168 178l41 -1q-31 -56 -102 -144q-55 -67 -118 -104q-35 -21 -75 -21q-24 0 -36 10t-12 22q0 53 51 164 l145 317l56 133q19 44 23 61t4 34q0 13 -7 20.5t-18 7.5q-16 0 -37 -13q-74 -44 -163 -151q-128 -154 -170 -221q-105 -166 -183 -339q-12 -28 -29 -41q-21 -3 -32 -3q-13 0 -40 5q-4 8 -4 13zM528 1002v10q0 91 47.5 142.5t114.5 51.5q63 0 149.5 -55.5t105.5 -63.5 q27 -11 43 -11q32 0 58 28t36 103h15q1 -15 1 -26q0 -76 -49 -127.5t-115 -51.5q-32 0 -67 14t-109.5 63t-120.5 49q-33 0 -58.5 -28t-32.5 -98h-18z" />
<glyph unicode="&#xf2;" horiz-adv-x="725" d="M114 226q0 87 39 200.5t101 188.5q14 17 32 41q53 69 126 116t149 47q70 0 118 -58.5t48 -192.5q0 -232 -140.5 -412t-291.5 -180q-81 0 -131 60.5t-50 189.5zM207 113q0 -46 21.5 -68t69.5 -22q47 0 95 46q86 84 172 289t86 323q0 42 -21 66.5t-48 24.5q-59 0 -123 -69 q-109 -116 -188 -320q-64 -166 -64 -270zM422 1208q0 20 14 33t36 13q27 0 55.5 -19t94.5 -105q98 -129 134 -185h-18q-258 174 -287 204t-29 59z" />
<glyph unicode="&#xf3;" horiz-adv-x="725" d="M114 226q0 87 39 200.5t101 188.5q14 17 32 41q53 69 126 116t149 47q70 0 118 -58.5t48 -192.5q0 -232 -140.5 -412t-291.5 -180q-81 0 -131 60.5t-50 189.5zM207 113q0 -46 21.5 -68t69.5 -22q47 0 95 46q86 84 172 289t86 323q0 42 -21 66.5t-48 24.5q-59 0 -123 -69 q-109 -116 -188 -320q-64 -166 -64 -270zM521 944q2 5 85.5 122.5t94.5 129.5q27 31 56 47q20 10 42 10q25 0 39.5 -13.5t14.5 -32.5q0 -43 -82 -100l-232 -164z" />
<glyph unicode="&#xf4;" horiz-adv-x="725" d="M114 226q0 87 39 200.5t101 188.5q14 17 32 41q53 69 126 116t149 47q70 0 118 -58.5t48 -192.5q0 -232 -140.5 -412t-291.5 -180q-81 0 -131 60.5t-50 189.5zM207 113q0 -46 21.5 -68t69.5 -22q47 0 95 46q86 84 172 289t86 323q0 42 -21 66.5t-48 24.5q-59 0 -123 -69 q-109 -116 -188 -320q-64 -166 -64 -270zM359 904q17 20 117 115l270 255l57 1l20 -373l-21 -1q-3 7 -28 89l-39 129q-4 15 -9 26l-336 -240z" />
<glyph unicode="&#xf5;" horiz-adv-x="725" d="M114 226q0 87 39 200.5t101 188.5q14 17 32 41q53 69 126 116t149 47q70 0 118 -58.5t48 -192.5q0 -232 -140.5 -412t-291.5 -180q-81 0 -131 60.5t-50 189.5zM207 113q0 -46 21.5 -68t69.5 -22q47 0 95 46q86 84 172 289t86 323q0 42 -21 66.5t-48 24.5q-59 0 -123 -69 q-109 -116 -188 -320q-64 -166 -64 -270zM348 1002v10q0 91 47.5 142.5t114.5 51.5q63 0 149.5 -55.5t105.5 -63.5q27 -11 43 -11q32 0 58 28t36 103h15q1 -15 1 -26q0 -76 -49 -127.5t-115 -51.5q-32 0 -67 14t-109.5 63t-120.5 49q-33 0 -58.5 -28t-32.5 -98h-18z" />
<glyph unicode="&#xf6;" horiz-adv-x="725" d="M114 226q0 87 39 200.5t101 188.5q14 17 32 41q53 69 126 116t149 47q70 0 118 -58.5t48 -192.5q0 -232 -140.5 -412t-291.5 -180q-81 0 -131 60.5t-50 189.5zM207 113q0 -46 21.5 -68t69.5 -22q47 0 95 46q86 84 172 289t86 323q0 42 -21 66.5t-48 24.5q-59 0 -123 -69 q-109 -116 -188 -320q-64 -166 -64 -270zM391 1097q0 32 23.5 56t57.5 24t57.5 -23.5t23.5 -57.5t-24 -58t-57 -24t-57 24t-24 59zM725 1097q0 32 23.5 55.5t57.5 23.5t58 -24t24 -57q0 -34 -24 -58t-58 -24t-57.5 24t-23.5 60z" />
<glyph unicode="&#xf7;" horiz-adv-x="1365" d="M218 593v86h1074v-86h-1074zM690 1056q0 23 18 40t44 17t43.5 -18t17.5 -43q0 -27 -17.5 -45t-42.5 -18t-44 19.5t-19 47.5zM691 229q0 26 18 44t44 18q25 0 43.5 -18t18.5 -44t-18.5 -44t-43.5 -18q-26 0 -44 18t-18 44z" />
<glyph unicode="&#xf8;" horiz-adv-x="725" d="M90 38l50 59q-21 75 -21 125q0 92 40 205q30 84 63 137q47 75 94 125q67 71 125.5 101t113.5 30q48 0 78.5 -16.5t60.5 -57.5q6 7 53 61q10 -18 18 -39l-53 -64q18 -60 18 -140q0 -73 -14 -134q-24 -103 -56 -164q-44 -84 -116 -161t-133 -105q-46 -21 -101 -21 q-59 0 -90.5 16t-59.5 59q-16 -12 -35 -36q-9 -12 -25 -28zM209 106q0 -40 23 -62t67 -22q28 0 63 18.5t80 80t100.5 179t81.5 208t26 116.5v6l-290 -337q-139 -161 -150 -178zM219 192q35 35 170 196l264 309q-4 40 -24.5 59.5t-49.5 19.5q-12 0 -23 -3q-49 -21 -76 -46 q-48 -44 -103.5 -134t-94.5 -189q-53 -134 -63 -212z" />
<glyph unicode="&#xf9;" horiz-adv-x="875" d="M78 14q0 16 7 40q16 51 57 130l171 337l70 149q19 30 19 44q0 5 -7 18q-33 -14 -93 -77q-39 -33 -73 -69q-23 -26 -34 -36l-32 7q16 30 93 112.5t157 128.5q39 23 71 23q19 0 33 -14t14 -30q0 -21 -17 -57q-3 -6 -15 -34q-45 -105 -174 -357q-112 -216 -112 -245l1 -6 q26 4 70 42q131 111 198 186q9 9 46 48q114 118 189 227q45 65 128 236q28 3 47 3q23 0 35 -16q-21 -63 -79 -206l-186 -464q-17 -36 -22 -66l7 -1q7 0 33 23q58 52 97 106q18 25 31 39l32 -5q-48 -91 -162 -198q-63 -58 -99 -58q-13 0 -34 6q-18 19 -18 36q0 50 41 146 l141 329q6 10 8 20q-18 -20 -79 -90q-144 -168 -247.5 -264t-222.5 -165q-29 -16 -57 -16q-14 0 -23.5 10t-9.5 28zM502 1208q0 20 14 33t36 13q27 0 55.5 -19t94.5 -105q98 -129 134 -185h-18q-258 174 -287 204t-29 59z" />
<glyph unicode="&#xfa;" horiz-adv-x="875" d="M78 14q0 16 7 40q16 51 57 130l171 337l70 149q19 30 19 44q0 5 -7 18q-33 -14 -93 -77q-39 -33 -73 -69q-23 -26 -34 -36l-32 7q16 30 93 112.5t157 128.5q39 23 71 23q19 0 33 -14t14 -30q0 -21 -17 -57q-3 -6 -15 -34q-45 -105 -174 -357q-112 -216 -112 -245l1 -6 q26 4 70 42q131 111 198 186q9 9 46 48q114 118 189 227q45 65 128 236q28 3 47 3q23 0 35 -16q-21 -63 -79 -206l-186 -464q-17 -36 -22 -66l7 -1q7 0 33 23q58 52 97 106q18 25 31 39l32 -5q-48 -91 -162 -198q-63 -58 -99 -58q-13 0 -34 6q-18 19 -18 36q0 50 41 146 l141 329q6 10 8 20q-18 -20 -79 -90q-144 -168 -247.5 -264t-222.5 -165q-29 -16 -57 -16q-14 0 -23.5 10t-9.5 28zM601 944q2 5 85.5 122.5t94.5 129.5q27 31 56 47q20 10 42 10q25 0 39.5 -13.5t14.5 -32.5q0 -43 -82 -100l-232 -164z" />
<glyph unicode="&#xfb;" horiz-adv-x="875" d="M78 14q0 16 7 40q16 51 57 130l171 337l70 149q19 30 19 44q0 5 -7 18q-33 -14 -93 -77q-39 -33 -73 -69q-23 -26 -34 -36l-32 7q16 30 93 112.5t157 128.5q39 23 71 23q19 0 33 -14t14 -30q0 -21 -17 -57q-3 -6 -15 -34q-45 -105 -174 -357q-112 -216 -112 -245l1 -6 q26 4 70 42q131 111 198 186q9 9 46 48q114 118 189 227q45 65 128 236q28 3 47 3q23 0 35 -16q-21 -63 -79 -206l-186 -464q-17 -36 -22 -66l7 -1q7 0 33 23q58 52 97 106q18 25 31 39l32 -5q-48 -91 -162 -198q-63 -58 -99 -58q-13 0 -34 6q-18 19 -18 36q0 50 41 146 l141 329q6 10 8 20q-18 -20 -79 -90q-144 -168 -247.5 -264t-222.5 -165q-29 -16 -57 -16q-14 0 -23.5 10t-9.5 28zM439 904q17 20 117 115l270 255l57 1l20 -373l-21 -1q-3 7 -28 89l-39 129q-4 15 -9 26l-336 -240z" />
<glyph unicode="&#xfc;" horiz-adv-x="875" d="M78 14q0 16 7 40q16 51 57 130l171 337l70 149q19 30 19 44q0 5 -7 18q-33 -14 -93 -77q-39 -33 -73 -69q-23 -26 -34 -36l-32 7q16 30 93 112.5t157 128.5q39 23 71 23q19 0 33 -14t14 -30q0 -21 -17 -57q-3 -6 -15 -34q-45 -105 -174 -357q-112 -216 -112 -245l1 -6 q26 4 70 42q131 111 198 186q9 9 46 48q114 118 189 227q45 65 128 236q28 3 47 3q23 0 35 -16q-21 -63 -79 -206l-186 -464q-17 -36 -22 -66l7 -1q7 0 33 23q58 52 97 106q18 25 31 39l32 -5q-48 -91 -162 -198q-63 -58 -99 -58q-13 0 -34 6q-18 19 -18 36q0 50 41 146 l141 329q6 10 8 20q-18 -20 -79 -90q-144 -168 -247.5 -264t-222.5 -165q-29 -16 -57 -16q-14 0 -23.5 10t-9.5 28zM471 1097q0 32 23.5 56t57.5 24t57.5 -23.5t23.5 -57.5t-24 -58t-57 -24t-57 24t-24 59zM805 1097q0 32 23.5 55.5t57.5 23.5t58 -24t24 -57q0 -34 -24 -58 t-58 -24t-57.5 24t-23.5 60z" />
<glyph unicode="&#xfd;" horiz-adv-x="683" d="M-441 -406q0 20 15 34.5t35 14.5q28 0 59 -15q15 -8 49 -43q21 -23 36.5 -29.5t52.5 -6.5q53 0 124.5 29.5t105.5 61.5q64 43 148 139q45 52 77.5 133t48 204.5t15.5 212.5q0 52 -5 191q-5 95 -15.5 130t-27.5 50q-9 8 -23 8q-23 0 -40 -20q-35 -43 -69 -163l-8 -2 q-10 0 -25 11q35 131 50 163q31 64 54 89q14 15 46 30q16 2 25 2q58 0 93 -75q48 -104 48 -283q0 -81 -11.5 -201t-24.5 -177q-17 -81 -19 -100q5 5 11 15q64 96 110 184q36 66 65.5 158t46.5 189q10 58 10 127q0 25 -1 43q-2 24 -2 29q0 49 19 74q9 14 35 14t38.5 -14 t12.5 -46q0 -48 -57 -239q-78 -264 -161 -408q-126 -219 -291 -387q-112 -114 -232.5 -166.5t-209.5 -52.5q-120 0 -164 30.5t-44 61.5zM497 944q2 5 85.5 122.5t94.5 129.5q27 31 56 47q20 10 42 10q25 0 39.5 -13.5t14.5 -32.5q0 -43 -82 -100l-232 -164z" />
<glyph unicode="&#xfe;" horiz-adv-x="832" d="M-289 -507q0 9 6 24q37 9 97 16q31 3 44 5q16 4 30 6q14 6 20 13q11 13 27 53l99 260q21 51 40 113q12 39 26.5 76t16.5 48q6 23 10 33l93 259q5 15 75 220q21 62 38 124q-71 -12 -124 -28q-11 -3 -31 -9q-37 -15 -46 -15q-8 0 -25 7l-2 11q0 14 16 24q49 31 232 70 q52 200 104 340q24 65 33 101q14 61 33 83q13 2 25 2q15 0 42 -2q17 -18 17 -29l-4 -14q-2 -5 -13 -46q-6 -22 -32 -92q-45 -119 -98 -326q44 3 59 3q16 0 48 -2h5q53 0 111 -28q81 -40 118 -107.5t37 -156.5q0 -67 -26 -143t-79 -155t-121 -132.5t-121 -71.5 q-119 -42 -157 -42q-28 0 -63 8t-76 24q-40 -81 -133 -347q-18 -53 -29 -78.5t-11 -39.5l1 -9l11 -9q27 -8 64.5 -10t65.5 -7q5 -4 13 -7l5 -16q0 -5 -5 -11q-39 2 -60 2q-14 0 -23 -1l-24 -1l-184 7q-49 0 -77 -6q-35 2 -60 2h-37zM231 104q0 -34 19 -49q30 -23 83 -23 q48 0 92 19q34 15 124 87q93 102 132.5 208.5t39.5 186.5q0 51 -14 103q-7 28 -29 50q-31 32 -60 45q-48 21 -123 21q-23 0 -55 -3q-66 -206 -109 -320l-83 -239q-10 -29 -14 -56q-3 -14 -3 -30z" />
<glyph unicode="&#xff;" horiz-adv-x="683" d="M-441 -406q0 20 15 34.5t35 14.5q28 0 59 -15q15 -8 49 -43q21 -23 36.5 -29.5t52.5 -6.5q53 0 124.5 29.5t105.5 61.5q64 43 148 139q45 52 77.5 133t48 204.5t15.5 212.5q0 52 -5 191q-5 95 -15.5 130t-27.5 50q-9 8 -23 8q-23 0 -40 -20q-35 -43 -69 -163l-8 -2 q-10 0 -25 11q35 131 50 163q31 64 54 89q14 15 46 30q16 2 25 2q58 0 93 -75q48 -104 48 -283q0 -81 -11.5 -201t-24.5 -177q-17 -81 -19 -100q5 5 11 15q64 96 110 184q36 66 65.5 158t46.5 189q10 58 10 127q0 25 -1 43q-2 24 -2 29q0 49 19 74q9 14 35 14t38.5 -14 t12.5 -46q0 -48 -57 -239q-78 -264 -161 -408q-126 -219 -291 -387q-112 -114 -232.5 -166.5t-209.5 -52.5q-120 0 -164 30.5t-44 61.5zM248 1097q0 32 23.5 56t57.5 24t57.5 -23.5t23.5 -57.5t-24 -58t-57 -24t-57 24t-24 59zM582 1097q0 32 23.5 55.5t57.5 23.5t58 -24 t24 -57q0 -34 -24 -58t-58 -24t-57.5 24t-23.5 60z" />
<glyph unicode="&#x152;" horiz-adv-x="2005" d="M164 512q0 144 59.5 295.5t160.5 261.5t209 167q152 80 315 80q50 0 85 -4q82 -9 130 -9q257 0 436 5q292 7 412 7q3 -20 3 -28q0 -53 -35 -178q-12 -3 -19 -3l-5 1q-11 121 -32 147q-12 15 -70 15q-18 0 -125 -2l-313 -7q-16 -43 -31 -134l-67 -397h23q8 0 190 9.5 t233 23.5q22 6 32 15q28 30 76 139q3 5 8 17l36 2q-2 -19 -7 -38q-8 -34 -32.5 -158.5t-48.5 -234.5l-38 1q1 13 8 111q0 49 -26 73q-13 12 -95 12q-25 0 -68 -3l-211 -15q-54 -7 -95 -19q-8 -32 -26 -130l-58 -312q-18 -98 -33 -162q74 -9 169 -9q198 0 290 21t154.5 73 t139.5 169q22 4 45 6q-45 -229 -90 -319l-312 9q-43 0 -386 -6q-215 -4 -311.5 -9t-127.5 -5q-177 0 -293.5 58.5t-187.5 189t-71 274.5zM325 485q0 -213 105 -330.5t265 -117.5q144 0 237.5 95.5t162 380.5t68.5 457q0 155 -66 227t-178 72q-162 0 -298.5 -98.5 t-216 -302.5t-79.5 -383z" />
<glyph unicode="&#x153;" horiz-adv-x="939" d="M108 190q0 118 69 284q36 86 107 174t123 122q69 46 145 46q49 0 87 -28.5t64 -85.5q87 72 129 92.5t79 20.5q38 0 69 -34t31 -81t-36 -108.5t-107 -110.5q-35 -24 -206 -98q-54 -171 -54 -241q0 -47 16.5 -68t40.5 -21q37 0 86 38q79 62 156 167q16 -2 33 -7 q-63 -113 -178 -213q-71 -61 -141 -61q-41 0 -68 29t-41 119q-12 -10 -29 -26q-134 -123 -227 -123q-70 0 -109 47t-39 167zM189 103q0 -49 18.5 -71t48.5 -22q58 0 142 75.5t165.5 291t81.5 297.5q0 46 -27.5 76t-64.5 30q-51 0 -95 -39q-60 -55 -164.5 -270.5 t-104.5 -367.5zM671 423q84 26 124 54q29 21 70 60t61.5 83t20.5 89q0 31 -14 45q-20 19 -47 19q-54 0 -110 -82q-43 -61 -105 -268z" />
<glyph unicode="&#x178;" horiz-adv-x="1323" d="M146 1290l1 27l16 1q11 0 42 -3l133 -12q118 0 283 9q18 1 24 1h11q5 -16 5 -24q0 -5 -2 -15l-138 -23q-21 -7 -21 -22q0 -6 3 -14l49 -98q71 -142 120 -258q32 -76 101 -183q195 196 234.5 230.5t82.5 79.5q61 62 116 114q86 81 86 118q0 22 -20 34q-44 25 -151 26 q-11 1 -33 1l-1 11q0 8 5 23l24 1h132l103 -5q59 0 125 5q43 3 81 3q-1 -14 -1 -22q0 -11 -1 -18q-11 -3 -22 -5q-16 -3 -86 -23q-35 -16 -65 -39q-23 -17 -64 -60q-18 -16 -28 -26q-61 -61 -93 -89t-126 -120l-266 -257q-5 -20 -12 -51q-13 -52 -25 -109q-17 -77 -26 -116 l-21 -88q-9 -41 -15 -61q-19 -70 -19 -130q0 -34 15 -46q29 -20 103 -21q30 0 49.5 -2.5t35.5 -3.5q2 -8 2 -13q0 -6 -4 -18q-49 -4 -139 -4l-68 4q-30 2 -58 2q-18 0 -64 -2q-149 -6 -238 -6q-6 0 -32 1l7 30l189 30q16 5 22 12q14 16 28 71l44 156q57 251 69 322 q-33 57 -154 303q-60 122 -84 162q-61 128 -77 151q-11 17 -20 21q-4 2 -105 18q-43 3 -60 6q-2 7 -2 14zM678 1530q0 32 23.5 56t57.5 24t57.5 -23.5t23.5 -57.5t-24 -58t-57 -24t-57 24t-24 59zM1012 1530q0 32 23.5 55.5t57.5 23.5t58 -24t24 -57q0 -34 -24 -58t-58 -24 t-57.5 24t-23.5 60z" />
<glyph unicode="&#x2c6;" horiz-adv-x="683" d="M335 904q17 20 117 115l270 255l57 1l20 -373l-21 -1q-3 7 -28 89l-39 129q-4 15 -9 26l-336 -240z" />
<glyph unicode="&#x2dc;" horiz-adv-x="683" d="M325 1002v10q0 91 47.5 142.5t114.5 51.5q63 0 149.5 -55.5t105.5 -63.5q27 -11 43 -11q32 0 58 28t36 103h15q1 -15 1 -26q0 -76 -49 -127.5t-115 -51.5q-32 0 -67 14t-109.5 63t-120.5 49q-33 0 -58.5 -28t-32.5 -98h-18z" />
<glyph unicode="&#x2000;" horiz-adv-x="882" />
<glyph unicode="&#x2001;" horiz-adv-x="1765" />
<glyph unicode="&#x2002;" horiz-adv-x="882" />
<glyph unicode="&#x2003;" horiz-adv-x="1765" />
<glyph unicode="&#x2004;" horiz-adv-x="588" />
<glyph unicode="&#x2005;" horiz-adv-x="441" />
<glyph unicode="&#x2006;" horiz-adv-x="294" />
<glyph unicode="&#x2007;" horiz-adv-x="294" />
<glyph unicode="&#x2008;" horiz-adv-x="220" />
<glyph unicode="&#x2009;" horiz-adv-x="353" />
<glyph unicode="&#x200a;" horiz-adv-x="98" />
<glyph unicode="&#x2010;" horiz-adv-x="533" d="M106 356q5 14 16.5 36t17.5 36q3 6 8 17l21 1h31q10 0 55 3l31 -1l49 2l86 -2q11 0 33 -1q35 2 41 2q8 0 33 -2q7 -1 23 -2q-20 -62 -39 -94q-21 -3 -42 -4l-18 4q-46 -2 -56 -3q-27 5 -47 5q-101 0 -156 -5q-30 7 -87 8z" />
<glyph unicode="&#x2011;" horiz-adv-x="533" d="M106 356q5 14 16.5 36t17.5 36q3 6 8 17l21 1h31q10 0 55 3l31 -1l49 2l86 -2q11 0 33 -1q35 2 41 2q8 0 33 -2q7 -1 23 -2q-20 -62 -39 -94q-21 -3 -42 -4l-18 4q-46 -2 -56 -3q-27 5 -47 5q-101 0 -156 -5q-30 7 -87 8z" />
<glyph unicode="&#x2012;" horiz-adv-x="533" d="M106 356q5 14 16.5 36t17.5 36q3 6 8 17l21 1h31q10 0 55 3l31 -1l49 2l86 -2q11 0 33 -1q35 2 41 2q8 0 33 -2q7 -1 23 -2q-20 -62 -39 -94q-21 -3 -42 -4l-18 4q-46 -2 -56 -3q-27 5 -47 5q-101 0 -156 -5q-30 7 -87 8z" />
<glyph unicode="&#x2013;" horiz-adv-x="1024" d="M-12 345v93h1048v-93h-1048z" />
<glyph unicode="&#x2014;" horiz-adv-x="2048" d="M-12 345v93h2072v-93h-2072z" />
<glyph unicode="&#x2018;" d="M364 971q0 5 12 62q7 33 31 76q7 13 59 81q92 90 181 143l22 -34q-112 -78 -162 -148q-35 -49 -35 -71q0 -26 41 -57q17 -14 20 -18q10 -13 20 -39q5 -13 5 -25q0 -64 -39 -115q-27 -35 -59 -35q-29 0 -62.5 44.5t-33.5 135.5z" />
<glyph unicode="&#x2019;" d="M313 825v8q73 53 122.5 107.5t66.5 91.5q4 13 4 21q0 18 -28 38q-59 43 -59 90q0 61 34.5 106t54.5 45q19 0 44 -19t41 -63.5t16 -94.5q0 -49 -19.5 -96t-62 -98t-74.5 -77q-62 -50 -120 -78l-18 14z" />
<glyph unicode="&#x201a;" d="M15 -256q73 54 122.5 108.5t66.5 90.5q4 13 4 22q0 17 -28 38q-59 43 -59 89q0 61 34.5 106.5t54.5 45.5q19 0 44 -19.5t41 -64t16 -93.5t-19.5 -96.5t-62 -98t-74.5 -76.5q-62 -51 -120 -78l-18 14l-2 5v7z" />
<glyph unicode="&#x201c;" horiz-adv-x="853" d="M387 953q0 68 32.5 132t98.5 128q35 33 150 111q11 -17 19 -40q-110 -77 -149.5 -134.5t-39.5 -82.5q0 -15 36.5 -52.5t36.5 -72.5q0 -62 -41 -121q-21 -31 -46 -31q-31 0 -59 37q-38 50 -38 126zM803 948q0 104 75.5 206.5t202.5 165.5q13 -18 17 -32 q-186 -141 -186 -218q0 -14 6 -26q4 -8 29.5 -32.5t30.5 -34.5q10 -22 10 -44q0 -61 -37 -110q-25 -33 -54 -33q-34 0 -59 33q-35 47 -35 125z" />
<glyph unicode="&#x201d;" horiz-adv-x="853" d="M301 827q103 65 147.5 124.5t44.5 89.5q0 21 -25 48q-34 37 -41 53q-11 23 -11 48q0 50 40 100q26 32 54 32q31 0 57 -35q36 -49 36 -125q0 -100 -78 -204t-205 -162zM707 827q112 74 162 143q37 50 37 72q0 10 -5.5 19t-39.5 46t-34 72q0 58 39 108q28 36 57 36t55 -35 q37 -50 37 -125q0 -95 -74.5 -197t-210.5 -171z" />
<glyph unicode="&#x201e;" horiz-adv-x="853" d="M13 -299q110 63 153.5 123t43.5 94q0 19 -24 45q-48 54 -48 94q0 52 41 104q26 34 53 34q29 0 53 -33q37 -50 37 -115q0 -108 -79 -214t-212 -163zM425 -297q109 68 159 136q37 52 37 80q0 17 -22 41q-38 43 -42 52q-10 19 -10 36q0 47 26.5 97t66.5 50q28 0 60.5 -42.5 t32.5 -117.5q0 -91 -70.5 -188.5t-220.5 -178.5z" />
<glyph unicode="&#x2022;" horiz-adv-x="725" d="M209 677q0 104 73 177.5t178 73.5q104 0 177.5 -73.5t73.5 -177.5t-73.5 -177.5t-177.5 -73.5t-177.5 73.5t-73.5 177.5z" />
<glyph unicode="&#x2026;" horiz-adv-x="2048" d="M234 90q0 44 31.5 75.5t75.5 31.5q46 0 77.5 -31.5t31.5 -75.5t-32 -75.5t-77 -31.5q-44 0 -75.5 31.5t-31.5 75.5zM917 89q0 44 31.5 75.5t76.5 31.5t76 -31.5t31 -75.5q0 -45 -31.5 -76.5t-75.5 -31.5t-76 32t-32 76zM1600 88q0 47 31.5 78t75.5 31q45 0 76.5 -31.5 t31.5 -75.5q0 -45 -31.5 -76t-75.5 -31q-45 0 -76.5 31t-31.5 74z" />
<glyph unicode="&#x202f;" horiz-adv-x="353" />
<glyph unicode="&#x2039;" horiz-adv-x="491" d="M126 408l487 420l38 -1q-11 -13 -150 -154l-257 -262l144 -423h-30z" />
<glyph unicode="&#x203a;" horiz-adv-x="491" d="M-40 -13l409 419l-146 421l29 1l233 -423l-489 -420z" />
<glyph unicode="&#x205f;" horiz-adv-x="441" />
<glyph unicode="&#x20ac;" horiz-adv-x="960" d="M91 552v7q1 2 1 4v2l1 2q2 2 2 6h95l22 2l33 140h-16q-21 4 -97 4h-34q-7 14 -7 26q0 10 2 13t2 6h168q17 58 67.5 138.5t110.5 146.5t133 118t149 87q31 14 103.5 35t104.5 24q126 10 141 10q92 0 181 -35q-77 -216 -82 -223l-33 -2l-2 16q0 39 14 101q6 33 6 41 q0 29 -28 45t-45 16h-13l-16 4l-55 -4q-58 0 -176 -59t-228.5 -188t-154.5 -261l-2 -6h28l92 2h45q39 0 58 -2l94 -6h121q16 0 31 -2q-2 -13 -5 -15q0 -4 -6 -16q-7 -14 -8 -18l-61 -2h-176l-111 -2h-39l-66 2h-18q-21 -63 -35 -136h53l228 2l92 -4h51l29 -2l-2 -14 q-12 -20 -15 -37h-61l-20 1q-2 0 -3 1h-12l-182 -4h-166v-6q-6 -46 -6 -111q0 -385 203 -385q67 0 119 29.5t88.5 78t57.5 96t40 85.5l24 -2v-20l-20 -111q-13 -67 -14 -74q-12 -7 -47.5 -33t-88 -49.5t-105 -35t-97.5 -11.5q-158 0 -243 122t-85 349q0 62 4 88h-6 q-8 2 -51 2h-49q-2 5 -3 7q-1 3 -2 5q-1 3 -1 6t-1 6z" />
<glyph unicode="&#x2122;" horiz-adv-x="2005" d="M126 1155l21 201h728l22 -201h-34q-10 72 -52.5 106.5t-141.5 34.5h-75v-579q0 -84 20 -106.5t86 -25.5v-36h-374v36q65 6 82.5 27.5t17.5 103.5v580h-76q-95 0 -135 -31.5t-55 -109.5h-34zM966 549v36q56 0 75.5 10t28.5 31t9 90v466q0 89 -19.5 113t-93.5 24v37h286 l273 -572l265 572h279v-37q-71 -2 -91 -25.5t-20 -109.5v-468q0 -85 19 -106t92 -25v-36h-398v36q59 1 79.5 12t30 32t9.5 86v492l-307 -658h-32l-308 649v-482q0 -64 5 -81q9 -25 28 -37.5t60 -12.5h36v-36h-306z" />
<glyph unicode="&#x25fc;" horiz-adv-x="815" d="M0 0v815h815v-815h-815z" />
<glyph unicode="&#xfb01;" horiz-adv-x="917" d="M-256 -455q0 26 18 45t38 19q8 0 20 -2q31 -10 59 -53q15 -11 25 -11q23 0 60.5 72.5t143.5 404.5l230 717q-52 5 -108 5q-28 0 -47 1q4 29 14 52l20 3l141 -2q91 287 192 398q127 140 283 140q106 0 158 -37.5t52 -72.5q0 -24 -16.5 -41.5t-37.5 -17.5h-11q-26 8 -42 19 q-11 7 -49 45.5t-59.5 51t-42.5 12.5q-51 0 -101 -41q-65 -55 -109 -162q-62 -151 -103 -288q8 -2 14 -2l64 2q7 0 31 -1q50 -2 87 -2q110 0 192 52q31 19 52 28l18 -3q-4 -37 -23 -83q-13 -29 -37 -104l-120 -334l-82 -226q-7 -16 -7 -24l2 -10q18 3 28 11q36 25 81 77 q10 12 94 127l30 -14q-52 -101 -124.5 -181t-134.5 -117q-39 -23 -66 -23q-18 0 -29 10.5t-11 26.5q0 17 4 34t67 180q90 234 122 333l61 188h-17q-14 0 -41 -2t-48 -2q-17 0 -42 2q-39 2 -89 2h-95q-2 -5 -6.5 -19.5t-12.5 -39.5q-36 -117 -208 -625q-109 -321 -164 -414.5 t-122 -134.5q-51 -31 -108 -31q-49 0 -68.5 16.5t-19.5 45.5z" />
<glyph unicode="&#xfb02;" horiz-adv-x="811" d="M-259 -423q0 26 15 39q22 20 48 20q12 0 28 -10q19 -13 41 -58q10 -12 22 -12q5 0 10 1q16 8 23 16q27 34 98 223t169 524l120 407l-140 14q10 35 20 53q15 1 23 1q10 0 36 -2q16 -2 24 -2q18 0 49 3q17 25 36 92t81 175q3 5 63 89q37 53 86.5 92t107 60.5t114.5 21.5 q64 0 119 -28q18 -8 31 -10q18 6 52 45l34 -1l-47 -146l-85 -247q-62 -193 -71 -214q-2 -6 -8 -17q-2 -5 -5 -14l-130 -365q-80 -225 -80 -238l1 -6q9 3 20 9q30 20 75 61.5t94 102.5l30 36l23 -22q-18 -33 -95 -122.5t-165 -146.5q-51 -33 -74 -33q-16 0 -31 13 q-10 9 -10 23q0 10 2 20l44 135l60 163l103 289l35 114q-98 11 -147 11q-95 0 -163 -6q-12 -36 -89 -295q-181 -609 -277.5 -770.5t-215.5 -161.5q-56 0 -80 20.5t-24 53.5zM450 799q15 -3 31 -4l100 -4q74 -4 178 -5q125 331 125 402q0 36 -29 61.5t-79 25.5q-39 0 -72 -17 q-44 -22 -85.5 -71.5t-86.5 -149.5q-64 -144 -82 -238z" />
</font>
</defs>
</svg>
